G04 DesignSpark PCB PRO Gerber Version 9.0 Build 5138 *
G04 #@! TF.Part,Single*
G04 #@! TF.FileFunction,Copper,L1,Top *
G04 #@! TF.FilePolarity,Positive *
%FSLAX35Y35*%
%MOIN*%
G04 #@! TA.AperFunction,ViaPad*
%AMT72*0 Octagon Pad at angle 0*4,1,8,-0.00580,-0.01400,0.00580,-0.01400,0.01400,-0.00580,0.01400,0.00580,0.00580,0.01400,-0.00580,0.01400,-0.01400,0.00580,-0.01400,-0.00580,-0.00580,-0.01400,0*%
%ADD72T72*%
%AMT29*0 Octagon Pad at angle 0*4,1,8,-0.00828,-0.02000,0.00828,-0.02000,0.02000,-0.00828,0.02000,0.00828,0.00828,0.02000,-0.00828,0.02000,-0.02000,0.00828,-0.02000,-0.00828,-0.00828,-0.02000,0*%
%ADD29T29*%
G04 #@! TA.AperFunction,ComponentPad*
%AMT95*0 Octagon Pad at angle 0*4,1,8,-0.01077,-0.02600,0.01077,-0.02600,0.02600,-0.01077,0.02600,0.01077,0.01077,0.02600,-0.01077,0.02600,-0.02600,0.01077,-0.02600,-0.01077,-0.01077,-0.02600,0*%
%ADD95T95*%
%AMT14*0 Octagon Pad at angle 0*4,1,8,-0.01119,-0.02700,0.01119,-0.02700,0.02700,-0.01119,0.02700,0.01119,0.01119,0.02700,-0.01119,0.02700,-0.02700,0.01119,-0.02700,-0.01119,-0.01119,-0.02700,0*%
%ADD14T14*%
G04 #@! TA.AperFunction,ViaPad*
%AMT78*0 Octagon Pad at angle 0*4,1,8,-0.01243,-0.03000,0.01243,-0.03000,0.03000,-0.01243,0.03000,0.01243,0.01243,0.03000,-0.01243,0.03000,-0.03000,0.01243,-0.03000,-0.01243,-0.01243,-0.03000,0*%
%ADD78T78*%
G04 #@! TA.AperFunction,ComponentPad*
%AMT82*0 Octagon Pad at angle 0*4,1,8,-0.01450,-0.03500,0.01450,-0.03500,0.03500,-0.01450,0.03500,0.01450,0.01450,0.03500,-0.01450,0.03500,-0.03500,0.01450,-0.03500,-0.01450,-0.01450,-0.03500,0*%
%ADD82T82*%
%AMT98*0 Octagon Pad at angle 0*4,1,8,-0.01657,-0.04000,0.01657,-0.04000,0.04000,-0.01657,0.04000,0.01657,0.01657,0.04000,-0.01657,0.04000,-0.04000,0.01657,-0.04000,-0.01657,-0.01657,-0.04000,0*%
%ADD98T98*%
%AMT90*0 Octagon Pad at angle 0*4,1,8,-0.02900,-0.07000,0.02900,-0.07000,0.07000,-0.02900,0.07000,0.02900,0.02900,0.07000,-0.02900,0.07000,-0.07000,0.02900,-0.07000,-0.02900,-0.02900,-0.07000,0*%
%ADD90T90*%
%AMT92*0 Octagon Pad at angle 0*4,1,8,-0.03107,-0.07500,0.03107,-0.07500,0.07500,-0.03107,0.07500,0.03107,0.03107,0.07500,-0.03107,0.07500,-0.07500,0.03107,-0.07500,-0.03107,-0.03107,-0.07500,0*%
%ADD92T92*%
%ADD87O,0.08000X0.13000*%
G04 #@! TA.AperFunction,SMDPad,CuDef*
%ADD93R,0.02200X0.04000*%
%ADD89R,0.02360X0.08660*%
%ADD101R,0.02500X0.07000*%
%ADD102R,0.02800X0.07000*%
%ADD88R,0.03000X0.06000*%
%ADD103R,0.03000X0.07000*%
%ADD100R,0.03000X0.08000*%
%ADD104R,0.03200X0.07000*%
%ADD96R,0.03900X0.05200*%
%ADD80R,0.05500X0.06000*%
%ADD84R,0.10000X0.12500*%
%ADD85R,0.10000X0.12600*%
%ADD106R,0.06300X0.06300*%
G04 #@! TD.AperFunction*
%ADD10C,0.00500*%
%ADD12C,0.00600*%
%ADD11C,0.01000*%
%ADD74C,0.01500*%
%ADD27C,0.02000*%
%ADD28C,0.03000*%
G04 #@! TA.AperFunction,ComponentPad*
%ADD86O,0.13000X0.08000*%
G04 #@! TA.AperFunction,SMDPad,CuDef*
%ADD94R,0.08000X0.03000*%
%ADD99R,0.05200X0.03900*%
%ADD97R,0.06000X0.05500*%
G04 #@! TD.AperFunction*
%ADD73C,0.04000*%
%ADD24C,0.05000*%
G04 #@! TA.AperFunction,ComponentPad*
%ADD105C,0.06500*%
G04 #@! TD.AperFunction*
%ADD75C,0.08000*%
%ADD77C,0.10000*%
G04 #@! TA.AperFunction,ComponentPad*
%ADD79C,0.13000*%
G04 #@! TD.AperFunction*
%ADD76C,0.15000*%
G04 #@! TA.AperFunction,SMDPad,CuDef*
%ADD91R,0.10200X0.06300*%
%ADD81R,0.12500X0.10000*%
%ADD83R,0.12600X0.10000*%
X0Y0D02*
D02*
D10*
X34750Y34350D02*
G75*
G03Y21750J-6300D01*
G01*
G75*
G03Y34350J6300*
G01*
Y943350D02*
G75*
G03Y930750J-6300D01*
G01*
G75*
G03Y943350J6300*
G01*
X793750Y34350D02*
G75*
G03Y21750J-6300D01*
G01*
G75*
G03Y34350J6300*
G01*
Y943350D02*
G75*
G03Y930750J-6300D01*
G01*
G75*
G03Y943350J6300*
G01*
X811750Y25050D02*
G75*
G02X796750Y10050I-15000D01*
G01*
X31750*
G75*
G02X16750Y25050J15000*
G01*
Y940050*
G75*
G02X31750Y955050I15000*
G01*
X69250*
Y953050*
G75*
G03X74250Y948050I5000*
G01*
X126750*
G75*
G03X131750Y953050J5000*
G01*
Y955050*
X796750*
G75*
G02X811750Y940050J-15000*
G01*
Y25050*
D02*
D11*
X40750Y577050D02*
Y80550D01*
X92250Y29050*
X238250*
X242250Y25050*
X545750*
X551750Y31050*
X606250*
X625750Y50550*
Y95550*
X630750Y100550*
X660750*
X662250Y102050*
X58750Y316050D02*
Y257550D01*
X77250Y239050*
X97750*
X109750Y251050*
X118750*
X126250Y243550*
X137750*
X141250Y247050*
Y253550*
X58750Y326050D02*
X56250D01*
X50250Y320050*
Y154050*
X90250Y114050*
X125250*
X64250Y603550D02*
X65250Y604550D01*
X119750*
X126750Y611550*
Y613050*
X65250Y630050D02*
X66250Y631050D01*
X250750*
X271250Y610550*
Y608050*
X68250Y600550D02*
X65250Y597550D01*
Y562050*
X95250Y532050*
X109750*
X115750Y538050*
X116250*
X68750Y316050D02*
Y308050D01*
X115250Y261550*
X152750*
X156250Y258050*
Y253550*
X68750Y326050D02*
X64250Y330550D01*
X55250*
X47750Y323050*
Y152050*
X88250Y111550*
X123750*
X125250Y110050*
X71250Y597550D02*
X68250Y594550D01*
Y564550*
X94750Y538050*
X98750*
X71250Y634050D02*
Y640050D01*
X156750Y725550*
Y750550*
X76250Y388050D02*
X93750D01*
X82750Y626250D02*
X66450D01*
X65250Y625050*
X88750Y316050D02*
X86750Y314050D01*
Y296550*
X116750Y266550*
X151750*
X155750Y262550*
X156250*
X88750Y326050D02*
X82750Y320050D01*
X56250*
X54750Y318550*
Y157550*
X93750Y118550*
X156750*
X91250Y213550D02*
X73250Y231550D01*
X58250*
X92750Y858050D02*
X85750D01*
X82250Y861550*
X50250*
X33250Y844550*
Y730550*
X36750Y727050*
X47750*
X50750Y724050*
Y660550*
X34250Y644050*
Y74550*
X86250Y22550*
X232750*
X236250Y19050*
X548750*
X555750Y26050*
X669750*
X673250Y29550*
X674250*
X93750Y388050D02*
Y391550D01*
X91250Y394050*
Y423550*
X101250Y433550*
Y438550*
X96250Y46050D02*
X102250Y40050D01*
X117250*
X173750Y96550*
X232750*
X96250Y153550D02*
Y151050D01*
X102250Y145050*
X211750*
X223250Y156550*
X273750*
X286250Y144050*
X318750*
X332250Y157550*
Y158550*
X96750Y619050D02*
X89950D01*
X82750Y626250*
X101250Y413550D02*
Y408050D01*
X103250Y406050*
X108750*
X111250Y408550*
Y413550*
X106250Y153550D02*
X96750Y163050D01*
Y195050*
X116750Y215050*
X136250*
X106250Y567550D02*
Y561050D01*
X112250Y555050*
X117750*
X122250Y550550*
Y531550*
X127750Y526050*
X272750*
X106250Y592550D02*
Y597550D01*
X104750Y599050*
X95750*
X91750Y595050*
X75250*
X70750Y590550*
Y567050*
X89250Y548550*
X91750*
X107750Y547050D02*
Y544050D01*
X101750Y538050*
X98750*
X107750Y547050D02*
Y556050D01*
X101250Y562550*
Y567550*
X111250Y388050D02*
Y392050D01*
X96250Y407050*
Y413550*
X111250Y388050D02*
X128750D01*
X111250Y413550D02*
X129750D01*
X136750Y406550*
X111250Y438550D02*
X112750D01*
X126250Y452050*
X159750*
X164750Y447050*
X193250*
X199250Y453050*
X240250*
X245250Y448050*
Y438550*
X242250Y435550*
X111250Y567550D02*
Y561550D01*
X114250Y558550*
X119250*
X125250Y552550*
Y533050*
X129250Y529050*
X269750*
X115750Y842550D02*
X124250D01*
X152750Y814050*
Y800050*
X116250Y547050D02*
X107750D01*
X116250Y567550D02*
Y572050D01*
X111250Y577050*
X101250*
X118750Y295550D02*
X130750D01*
X137750Y288550*
X292750*
X316250Y265050*
Y231050*
X318750Y228550*
X343750*
X120750Y767550D02*
X123250D01*
X127750Y772050*
X120750Y776550D02*
Y781550D01*
X126750Y787550*
Y792550*
X122750Y747550D02*
Y732550D01*
Y802550D02*
Y799050D01*
X116250Y792550*
X106750*
X123750Y292550D02*
Y287550D01*
X137750Y273550*
X285250*
X301250Y257550*
Y228050*
X335250Y194050*
Y150550*
X329250Y144550*
X322750*
X316750Y138550*
Y132550*
X125250Y102050D02*
Y55050D01*
X116250Y46050*
X106250*
X126250Y578050D02*
X226250D01*
X232750Y584550*
X242750*
X246250Y588050*
Y592550*
X126750Y613050D02*
X120750Y619050D01*
X116750*
X126750Y757550D02*
Y759550D01*
X134750Y767550*
X126750Y792550D02*
Y807050D01*
X122750Y811050*
Y817550*
X128750Y292550D02*
X135750Y285550D01*
X291250*
X313250Y263550*
Y228050*
X321750Y219550*
X341750*
X128750Y379050D02*
X139250D01*
X143750Y383550*
X128750Y883550D02*
X130750D01*
X136750Y877550*
Y863050*
X130750Y732550D02*
Y738050D01*
X134750Y742050*
Y757550*
X130750Y747550D02*
X125750Y752550D01*
X107750*
X106750Y751550*
X130750Y802550D02*
Y806550D01*
X126750Y810550*
Y827550*
X131250Y106050D02*
X125250D01*
X131250Y228550D02*
Y224050D01*
X137250Y218050*
X160250*
X166250Y212050*
Y150050*
X131250Y538050D02*
X148750D01*
X131250Y547050D02*
Y552550D01*
X121250Y562550*
Y567550*
X131250Y613050D02*
X126750D01*
X131250D02*
X131750D01*
X137250Y607550*
X160750*
X166250Y613050*
X131250Y622050D02*
X127050Y626250D01*
X82750*
X131250Y622050D02*
X136250Y627050D01*
X178750*
X183750Y622050*
X134750Y776550D02*
X132250D01*
X127750Y772050*
X136250Y131050D02*
Y139050D01*
X140250Y143050*
X206750*
X208250Y141550*
X136250Y228550D02*
Y223550D01*
X139750Y220050*
X186750*
X193750Y213050*
X230250*
X138750Y294550D02*
X296250D01*
X323750Y267050*
X388750*
X390250Y265550*
Y256550*
X141250Y106050D02*
Y111050D01*
X135750Y116550*
X92250*
X52750Y156050*
Y319050*
X55750Y322050*
X74750*
X78750Y326050*
X141250Y264050D02*
X116250D01*
X78750Y301550*
Y316050*
X143750Y383550D02*
Y406550D01*
X147750Y115550D02*
X262750D01*
X266250Y112050*
Y106050*
X148750Y547050D02*
X166250D01*
X148750Y613050D02*
X141750D01*
X137250Y617550*
X127250*
X120750Y624050*
X148750Y622050D02*
X166250D01*
X153750Y282550D02*
X289750D01*
X310250Y262050*
Y228050*
X342750Y195550*
Y136550*
X344000Y135300*
X156250Y140050D02*
Y131050D01*
X156750Y800050D02*
Y822550D01*
X136750Y842550*
X161250Y118550D02*
X253750D01*
X161250Y140050D02*
Y131050D01*
Y211550D02*
X119750D01*
X101750Y193550*
Y170050*
X111750Y160050*
Y149550*
X114250Y147050*
X204750*
X211250Y153550*
X161250Y253550D02*
Y262550D01*
X163750Y265050*
X259750*
X266250Y258550*
Y253550*
X161250Y379050D02*
X148250D01*
X143750Y383550*
X161250Y388050D02*
X178750D01*
X166250Y131050D02*
X168250D01*
X172250Y127050*
X166250Y140050D02*
Y131050D01*
Y253550D02*
X167750D01*
X172250Y249050*
X166250Y547050D02*
X173250D01*
X177750Y551550*
X189250*
X193750Y556050*
Y567550*
X167250Y262550D02*
X236750D01*
X241250Y258050*
Y253550*
X169250Y87550D02*
Y60050D01*
X178250Y51050*
X206250*
X211250Y46050*
X174750Y618550D02*
X169250Y613050D01*
X166250*
X176250Y432550D02*
X184250D01*
X186250Y434550*
Y438550*
X178750Y388050D02*
Y391550D01*
X176250Y394050*
Y419550*
X180750Y558550D02*
X177750Y555550D01*
X157250*
X137250Y575550*
X183750Y546550D02*
X201250D01*
X183750Y567550D02*
Y556550D01*
X180750Y553550*
X146750*
X131250Y538050*
X183750Y592550D02*
Y599050D01*
X169750Y613050*
X166250*
X186250Y413550D02*
Y409050D01*
X188250Y407050*
X194250*
X196250Y409050*
Y413550*
X188750Y558550D02*
Y567550D01*
Y592550D02*
Y599050D01*
X183750Y604050*
Y613050*
X189750Y895050D02*
X194750Y890050D01*
X204250*
X223250Y871050*
X194750Y900050D02*
X159250D01*
X151750Y892550*
X145750*
X194750Y900050D02*
X199750Y895050D01*
X196250Y388050D02*
Y392550D01*
X181250Y407550*
Y413550*
X196250Y388050D02*
X213750D01*
X198750Y316050D02*
X194250Y311550D01*
X186250*
X183750Y314050*
Y343050*
X160750Y366050*
X103250*
X93750Y375550*
Y379050*
X198750Y326050D02*
Y355550D01*
X178750Y375550*
Y379050*
X201250Y46050D02*
X215750Y31550D01*
X241750*
X245250Y28050*
X367250*
X201250Y537550D02*
X204250D01*
X213250Y546550*
X218250*
X203750Y567550D02*
Y549050D01*
X201250Y546550*
X203750Y592550D02*
Y604050D01*
X201250Y606550*
Y613050*
X206250Y241050D02*
X207750Y239550D01*
X248750*
X208750Y316050D02*
X203750Y321050D01*
X196750*
X193750Y324050*
Y341050*
X163750Y371050*
X115750*
X111250Y375550*
Y379050*
X208750Y326050D02*
Y363050D01*
X196250Y375550*
Y379050*
X208750Y553550D02*
Y567550D01*
X212250Y523050D02*
X99250D01*
X91750Y530550*
X213750Y592550D02*
Y596550D01*
X208750Y601550*
X214750Y537550D02*
X212250Y535050D01*
X218250Y546550D02*
Y556050D01*
X213750Y560550*
Y567550*
X218750Y316050D02*
X213750Y321050D01*
Y348050*
X231250Y365550*
X218750Y326050D02*
Y346050D01*
X243750Y371050*
X260750*
X219750Y905050D02*
Y895050D01*
X225250Y251050D02*
X223750Y252550D01*
X174750*
X172250Y250050*
Y249050*
X226750Y215550D02*
X197250D01*
X177250Y235550*
X163750*
X161250Y233050*
Y228550*
X229250Y871050D02*
Y858550D01*
X257750Y830050*
X416250*
X430750Y815550*
X230250Y20050D02*
X234250Y16050D01*
X550750*
X557750Y23050*
X628250*
X230250Y34550D02*
Y77050D01*
X227750Y79550*
Y91550*
X229750Y93550*
X231250Y365550D02*
X223750Y373050D01*
Y373550*
X231250Y388050D02*
X248750D01*
X235750Y99550D02*
X232250D01*
X225750Y106050*
X179250*
X163250Y90050*
X144750*
X136250Y98550*
Y106050*
X235750Y99550D02*
Y94550D01*
X239750Y90550*
X275250*
X280750Y85050*
Y78550*
X278750Y76550*
Y53550*
X292250Y40050*
X309750*
X315750Y46050*
X316250*
X236250Y106050D02*
X229750D01*
X236250Y131050D02*
X234250D01*
X230250Y127050*
X236250Y253550D02*
X230250D01*
X238750Y81050D02*
X288750Y31050D01*
X462750*
X536750Y105050*
Y114050*
X513750Y137050*
X463750*
X441750Y159050*
Y201550*
X417250Y226050*
Y343550*
X238750Y96550D02*
Y96050D01*
X242250Y92550*
X270250*
X274250Y96550*
X348750*
X353750Y101550*
Y106050*
X241250Y131050D02*
Y140050D01*
Y704550D02*
Y708050D01*
X244750Y711550*
X254750*
X258250Y715050*
Y718050*
X242250Y440050D02*
Y447550D01*
X238750Y451050*
X208750*
X196250Y438550*
X242750Y216050D02*
X236250Y222550D01*
Y228550*
X246250Y131050D02*
Y140050D01*
Y228550D02*
Y221050D01*
X251750Y215550*
Y162050*
X246250Y253550D02*
Y260050D01*
X259250*
X261250Y258050*
Y253550*
X246250D02*
Y262050D01*
X247750Y162050D02*
Y213050D01*
Y216550*
X241250Y223050*
Y228550*
X248250Y551050D02*
X226250D01*
X220750Y556550*
Y569550*
X219750Y570550*
X248750Y379050D02*
X244750D01*
X231750Y366050*
X248750Y413550D02*
Y409050D01*
X237250Y397550*
X230250*
X223750Y391050*
Y373550*
X248750Y438550D02*
Y467550D01*
X250750Y469550*
X286250*
X291250Y464550*
X291750*
X249750Y140550D02*
X248250D01*
Y140050*
X246250*
X249750Y856050D02*
Y865050D01*
X219750Y895050*
X251250Y601550D02*
X244750D01*
X228750Y585550*
X223750*
X218750Y590550*
Y597550*
X212250Y604050*
X203750*
X251750Y154050D02*
X249750D01*
X246250Y150550*
Y140050*
X253750Y413550D02*
Y400050D01*
X248750Y395050*
Y388050*
X253750Y438550D02*
X254250D01*
Y455550*
Y464550D02*
X258250D01*
X262750Y460050*
X278250*
X281750Y456550*
Y450050*
X288250Y443550*
X294250*
X296750Y441050*
Y384050*
X255750Y162050D02*
X277250D01*
X291250Y148050*
X312750*
X316250Y151550*
Y153550*
X257250Y216050D02*
X263250D01*
X271250Y224050*
X258250Y682550D02*
Y685550D01*
X254750Y689050*
X244250*
X241250Y692050*
Y695550*
X258250Y718050D02*
X265750D01*
X270250Y722550*
X297250*
X306750Y732050*
X342250*
X346750Y727550*
Y716050*
X343250Y712550*
X320250*
X258750Y316050D02*
X253750Y321050D01*
Y329050*
X301750Y377050*
Y391050*
X261250Y131050D02*
Y136050D01*
Y137550*
Y228550D02*
Y224050D01*
X259250Y222050*
X248250*
X246250Y224050*
Y228550*
X266250Y87550D02*
X274750D01*
X278250Y84050*
Y79050*
X276250Y77050*
Y52050*
X292250Y36050*
X411250*
X421250Y46050*
X266250Y126550D02*
X258250Y118550D01*
X253750*
X266250Y228550D02*
Y224050D01*
X261250Y219050*
X252750*
X266250Y228550D02*
Y233050D01*
X269250Y236050*
X288250*
X308750Y215550*
X266250Y809550D02*
X283750D01*
X266250Y818550D02*
X271750Y824050D01*
X275250*
X271250Y106050D02*
Y131050D01*
Y140050*
Y165050D02*
Y224050D01*
Y253550D02*
Y253050D01*
X277250Y247050*
X271250Y592550D02*
Y601550D01*
X274250Y464550D02*
X278250D01*
X285250Y457550*
Y451550*
X289750Y447050*
X296250*
X301750Y441550*
Y391050*
X274750Y551050D02*
X334250Y491550D01*
Y349050*
X301250Y316050*
X298750*
X275250Y673550D02*
X272250D01*
X269250Y676550*
Y698550*
X270750Y700050*
X294250*
X300250Y706050*
Y712550*
X275250Y824050D02*
X309355D01*
X276250Y592550D02*
Y602050D01*
X273250Y605050*
X269250*
X247250Y627050*
X188750*
X183750Y622050*
X277250Y233550D02*
X272250Y228550D01*
X271250*
X277750Y526050D02*
X250250Y553550D01*
X229250*
X278750Y326050D02*
Y322550D01*
X273750Y317550*
Y312050*
X276250Y309550*
X373750*
X384250Y320050*
Y463050*
X278750Y667550D02*
X268250D01*
X264250Y671550*
Y679550*
X261250Y682550*
X258250*
X281250Y585550D02*
X280750D01*
X278750Y587550*
Y610050*
X254750Y634050*
X172250*
X281250Y592550D02*
Y589550D01*
X286250Y584550*
X289250*
X291750Y587050*
Y602050*
X296750Y607050*
X372250*
X382750Y617550*
X282750Y880050D02*
Y856550D01*
X283750Y855550*
X282750Y897050D02*
X266250Y880550D01*
Y855550*
X283750Y270550D02*
X122750D01*
X94750Y298550*
X91250*
X283750Y809550D02*
Y806550D01*
X289250Y801050*
X340250*
X430750Y710550*
X432750*
X288750Y316050D02*
X293750Y321050D01*
Y328050*
X326250Y360550*
Y489550*
X256250Y559550*
Y567550*
X288750Y326050D02*
Y327550D01*
X322250Y361050*
Y488050*
X250750Y559550*
X228750*
X290250Y712550D02*
Y717550D01*
X291750Y719050*
X293750*
X295250Y717550*
Y712550*
X291750Y455550D02*
X292250D01*
X306250Y441550*
Y387050*
X291750Y464550D02*
Y465050D01*
X314250Y487550*
X318250*
X291750Y464550D02*
Y464050D01*
X297250*
X300750Y460550*
Y454050*
X310250Y444550*
Y377050*
X263750Y330550*
Y314050*
X261250Y311550*
X253250*
X248750Y316050*
X293750Y250550D02*
X295250Y249050D01*
Y243550*
X292750Y241050*
X252250*
X250750Y242550*
X225250*
X294250Y259050D02*
X274750D01*
X266250Y267550*
X156250*
X155250Y268550*
X119250*
X117250Y270550*
X295250Y670050D02*
X281750Y656550D01*
X93750*
X74750Y637550*
X296750Y384050D02*
Y377050D01*
X248750Y329050*
Y326050*
X298750D02*
X302750D01*
X330250Y353550*
Y489550*
X261250Y558550*
X302750Y529050D02*
X338250Y493550D01*
Y343050*
X363750Y317550*
Y314550*
X305250Y687550D02*
Y692050D01*
X308750Y695550*
X325250*
X330250Y690550*
X349250*
X305250Y712550D02*
Y708050D01*
X313250Y700050*
X345750*
X306250Y153550D02*
Y157050D01*
X314250Y165050*
X332250*
X309250Y455550D02*
X314250Y450550D01*
Y438550*
X309250Y809550D02*
X326750D01*
X309250Y818550D02*
Y823945D01*
X309355Y824050*
X309250Y846550D02*
X313250D01*
X322250Y855550*
X326750*
X309250D02*
Y863550D01*
X342750Y897050*
X309355Y824050D02*
X352250D01*
X310250Y687550D02*
Y683050D01*
X302750Y675550*
X289750*
X286250Y679050*
X310250Y712550D02*
Y717050D01*
X308250Y719050*
X303750*
X302750Y718050*
Y703550*
X297250Y698050*
X277750*
X275250Y695550*
X312250Y526050D02*
X313250Y527050D01*
X318750*
X345750Y500050*
Y467550*
X378250Y435050*
Y347550*
X314250Y438550D02*
Y372050D01*
X268750Y326550*
Y326050*
X318250Y395050D02*
Y455550D01*
X309250Y464550*
X318250Y483550D02*
Y482050D01*
X303750Y467550*
Y458550*
X306750Y455550*
X309250*
X320250Y687550D02*
Y682050D01*
X311250Y673050*
X286750*
X326250Y690050D02*
X328750Y687550D01*
X338250*
X349250Y676550*
Y634550*
X351250Y632550*
X381750*
X382750Y633550*
X326250Y704550D02*
X318750D01*
X315250Y708050*
Y712550*
X329250Y162050D02*
Y158550D01*
X316750Y146050*
X288750*
X276250Y158550*
X205250*
X201250Y154550*
Y153550*
X332750Y838550D02*
X421250D01*
X443750Y816050*
X666750*
X718750Y764050*
Y682050*
X336750Y93550D02*
X333750Y90550D01*
Y57050*
X327750Y51050*
X311250*
X306250Y46050*
X337750Y128550D02*
Y194550D01*
X304250Y228050*
Y259050*
X286750Y276550*
X139250*
X133250Y282550*
X340250Y139550D02*
Y195050D01*
X306750Y228550*
Y261050*
X288250Y279550*
X146250*
X143750Y282050*
Y282550*
X341750Y387050D02*
X346250D01*
X360750Y401550*
X372750*
X341750Y391050D02*
X346250D01*
X360750Y405550*
X372750*
X342750Y880050D02*
Y871550D01*
X326750Y855550*
X343750Y228550D02*
Y221550D01*
X344750Y220550*
X343750Y253550D02*
Y261050D01*
Y253550D02*
X332250D01*
X329750Y256050*
X322250*
X319250Y259050*
Y266550*
X294250Y291550*
X148750*
X343750Y261050D02*
X346750Y264050D01*
X344750Y220550D02*
X348750Y224550D01*
Y228550*
X345250Y384050D02*
X349750D01*
X364250Y398550*
X369250*
X346010Y675047D02*
Y674810D01*
X324750Y653550*
X174750*
X346250Y137550D02*
Y141550D01*
X347750Y143050*
X376250*
X394250Y125050*
X505750*
X521250Y109550*
X348750Y112550D02*
X354750D01*
X356250Y111050*
Y45550*
X363250Y38550*
X411250*
X416250Y43550*
Y84550*
X431750Y100050*
X481750*
X491250Y109550*
X348750Y253550D02*
Y258550D01*
X346250Y261050*
X343750*
X348750Y483550D02*
X350750D01*
X387750Y520550*
Y649050*
X364250Y670550*
Y670544*
X348750Y487550D02*
X385750Y524550D01*
Y635050*
X370256Y650544*
X364250*
X350750Y158550D02*
Y221050D01*
X353750Y224050*
Y228550*
X351750Y350050D02*
Y341550D01*
Y359050D02*
Y374550D01*
X372750Y395550*
X351750Y846550D02*
X355750D01*
X364750Y855550*
X369250*
X352250Y809550D02*
X369250D01*
X352250Y818550D02*
Y824050D01*
X388750*
X394250Y818550*
X353270Y637550D02*
Y657550D01*
Y681550*
X353750Y162050D02*
Y212050D01*
X363750Y222050*
Y228550*
X356750Y165050D02*
Y203550D01*
X379750Y226550*
Y231550*
X357010Y689544D02*
Y675047D01*
X360750Y637550D02*
Y657550D01*
Y681550*
X361250Y702550D02*
Y690550D01*
X363750Y131050D02*
Y125050D01*
X357250Y118550*
X341750*
X336750Y113550*
X366750Y81050D02*
Y87050D01*
X395750Y116050*
X465250*
X366750Y350050D02*
X364250D01*
X355750Y341550*
X366750Y359050D02*
X369250D01*
X372250Y356050*
Y351550*
X367250Y44050D02*
X363750Y47550D01*
Y106050*
X369250Y809550D02*
Y801550D01*
X459250Y711550*
X480750*
X483250Y714050*
Y718050*
X369250Y855550D02*
X393750Y880050D01*
X402750*
X372750Y409550D02*
X361250D01*
X346750Y395050*
X341750*
X373750Y106050D02*
X377750D01*
X390750Y119050*
X491750*
X501250Y109550*
X373750Y131050D02*
X380750D01*
X389750Y122050*
X498750*
X511250Y109550*
X378250Y341550D02*
X375750Y344050D01*
Y433550*
X342250Y467050*
Y497050*
X315750Y523550*
X378750Y81050D02*
Y94550D01*
X397250Y113050*
X462250*
X381250Y480050D02*
Y321050D01*
X371750Y311550*
X283250*
X278750Y316050*
X382250Y530550D02*
X341250D01*
X306750Y565050*
X283750*
X281250Y567550*
X382750Y625550D02*
X311250D01*
X289250Y647550*
X127750*
X382750Y629550D02*
X311750D01*
X290750Y650550*
X124750*
X384250Y309550D02*
Y310050D01*
X386750Y312550*
Y472050*
X385750Y473050*
Y477550*
X389750Y481550*
Y682550*
X370250Y702050*
X386750Y259550D02*
X384750Y261550D01*
X356750*
X353750Y258550*
Y253550*
X386750Y264050D02*
X346750D01*
X388750Y476050D02*
X389250Y475550D01*
Y311050*
X392250Y308050*
Y299550*
X367750Y275050*
X321250*
X390250Y256550D02*
X376750D01*
X373750Y253550*
X394250Y809550D02*
X411750D01*
X394250Y846550D02*
X398250D01*
X407250Y855550*
X411750*
X397750Y253550D02*
X384250Y240050D01*
X329750*
X319750Y250050*
Y250550*
X405750Y846550D02*
X421750D01*
X446250Y822050*
X672750*
X751750Y743050*
Y667550*
X409250Y537550D02*
Y538050D01*
X409750Y538550*
Y616550*
X408250Y618050*
Y628050*
X409750Y629550*
X411250Y46050D02*
X406250Y41050D01*
X365250*
X361250Y45050*
Y117050*
X411250Y331550D02*
X412750Y330050D01*
Y173550*
X429750Y156550*
Y147550*
X413750Y131550*
X411250Y533550D02*
Y534050D01*
X412250Y535050*
Y624050*
X411250Y625050*
Y625550*
Y740550D02*
X344750Y807050D01*
Y814050*
X349250Y818550*
X352250*
X411750Y809550D02*
Y767550D01*
X452250Y727050*
X467250*
X414750Y460050D02*
Y347050D01*
X413750Y346050*
Y337550*
X414750Y336550*
Y221050*
X438250Y197550*
Y156550*
X461250Y133550*
X509750*
X526250Y117050*
Y104550*
X455250Y33550*
X290750*
X273750Y50550*
Y81050*
X416750Y616550D02*
Y558050D01*
X414750Y556050*
Y473550*
X408250Y467050*
Y327550*
X410250Y325550*
Y172550*
X426750Y156050*
Y149550*
X420750Y143550*
X413750*
X421250Y153550D02*
X415750Y148050D01*
X356250*
X347750Y156550*
Y215550*
X421750Y619550D02*
Y557050D01*
X417250Y552550*
Y471550*
X411250Y465550*
Y331550*
X422750Y335550D02*
Y233550D01*
X449250Y207050*
Y164550*
X470750Y143050*
Y140050*
X422750Y335550D02*
Y543550D01*
X425250Y266550D02*
Y237550D01*
X453250Y209550*
Y165550*
X478250Y140550*
X524250*
X548750Y116050*
Y99550*
X491250Y42050*
Y37550*
X428750Y254050D02*
Y242050D01*
X457250Y213550*
Y166550*
X479750Y144050*
X527250*
X552750Y118550*
Y66050*
X541250Y54550*
X518250*
X501250Y37550*
X432250Y800050D02*
Y808050D01*
X413250Y827050*
X255750*
X226250Y856550*
Y880550*
X214750Y892050*
Y900050*
X209750Y905050*
X435250Y796050D02*
Y815050D01*
X417750Y832550*
X261250*
X249750Y844050*
Y846050*
X436750Y710550D02*
X337750Y809550D01*
X326750*
X439250Y255050D02*
Y252550D01*
X465250Y226550*
Y167050*
X482250Y150050*
X532750*
X560250Y122550*
Y34550*
X441750Y532550D02*
Y532050D01*
X444250Y529550*
X445750*
X465250Y510050*
X663250*
X441750Y532550D02*
Y499550D01*
X451250Y490050*
X468750*
X473750Y485050*
X442750Y743550D02*
Y801550D01*
X448750Y807550*
X658010*
X702510Y763050*
Y748053*
X443250Y280550D02*
Y292550D01*
X478750Y328050*
X505250*
X515750Y317550*
Y309050*
X526750Y298050*
X545747*
X550747Y293050*
Y290790*
X443250Y331550D02*
X505750D01*
X517750Y319550*
Y310550*
X527750Y300550*
X627250*
X634750Y308050*
Y318550*
X636250Y320050*
X672750*
X678750Y326050*
X443250Y343550D02*
X506250D01*
X523750Y326050*
Y314550*
X526750Y311550*
X534250*
X538750Y316050*
X443250Y395550D02*
X474250D01*
X443250Y405550D02*
X464250Y426550D01*
X477250*
X479250Y424550*
Y420550*
X443250Y409550D02*
X462250Y428550D01*
X480250*
X484250Y424550*
Y420550*
X443250Y476050D02*
X447750D01*
X450250Y478550*
X460250*
X443250Y480050D02*
X451250Y488050D01*
X466250*
X469250Y485050*
Y472550*
X471750Y470050*
X477250*
X478750Y471550*
Y476050*
X443750Y828550D02*
X447250Y825050D01*
X490750*
X444750Y261550D02*
X474250Y232050D01*
Y167050*
X483750Y157550*
X539250*
X578250Y118550*
X444750Y533550D02*
X464250Y514050D01*
X663250*
X444750Y537550D02*
X464250Y518050D01*
X663250*
X445750Y796050D02*
X451750Y802050D01*
X493250*
X495750Y799550*
Y795050*
X448750Y698550D02*
X449250D01*
X450250Y699550*
X480750*
X483250Y697050*
Y693050*
X451250Y287050D02*
X465250D01*
X478250Y274050*
X512250*
X522500Y284300*
X453750Y659550D02*
X450750D01*
X448250Y662050*
Y681550*
X459750Y693050*
X473250*
X453750Y668550D02*
X471250D01*
X453750Y739550D02*
X471250D01*
X453750Y748550D02*
X459250Y754050D01*
X510250*
X514250Y750050*
Y719050*
X520250Y713050*
X528250*
X531750Y716550*
Y751050*
X573750Y793050*
X584250*
X589750Y798550*
Y799550*
X453750Y748550D02*
X450250D01*
X448250Y746550*
Y737050*
X455250Y730050*
X468250*
X473250Y725050*
Y718050*
X462750Y880050D02*
X457250Y885550D01*
X427250*
X411750Y870050*
Y855550*
X465750Y795050D02*
Y790550D01*
X475750Y780550*
X510750*
X527250Y797050*
X465750Y835050D02*
Y844050D01*
X488750Y867050*
X509750*
X466250Y140050D02*
X445250Y161050D01*
Y204550*
X420250Y229550*
Y333050*
X419250Y334050*
Y338550*
X419750Y339050*
Y546050*
X421250Y547550*
X422750*
X470750Y835050D02*
Y843550D01*
X488750Y861550*
X492250*
X471250Y748550D02*
X479750D01*
X478250Y693050D02*
Y689050D01*
X471250Y682050*
Y668550*
X478250Y718050D02*
Y732550D01*
X471250Y739550*
X478750Y451050D02*
Y446550D01*
X482750Y442550*
X498750*
X527750Y413550*
Y386050*
X522750Y381050*
Y370550*
X532750Y360550*
Y320050*
X528750Y316050*
X479250Y395550D02*
Y400050D01*
X476250Y403050*
X450750*
X446250Y398550*
X481250Y255050D02*
X501750Y234550D01*
Y229050*
X506250Y224550*
X516250*
X518750Y227050*
Y231050*
X481250Y307050D02*
X475750Y301550D01*
Y296550*
X489750Y282550*
X495750*
X481250Y315050D02*
X501490D01*
X525750Y290790*
X530747*
X481250Y323050D02*
X498250D01*
X525750Y295550*
X536753*
X542753Y289550*
Y287050*
X481750Y372550D02*
Y383550D01*
X474250Y391050*
Y395550*
X483750Y476050D02*
Y485050D01*
Y568550D02*
Y560050D01*
X471250Y547550*
X446750*
X484250Y395550D02*
Y401050D01*
X480250Y405050*
X446750*
X443250Y401550*
X486750Y372550D02*
Y403550D01*
X474250Y416050*
Y420550*
X488250Y739550D02*
X493750D01*
X498250Y735050*
X488250Y748550D02*
X479750D01*
X491250Y488050D02*
X482750D01*
X470750Y500050*
X452750*
X444750Y508050*
Y526050*
X491750Y372550D02*
Y376550D01*
X496750Y381550*
Y400550*
X498250Y402050*
X507750*
X509250Y400550*
Y395550*
X493250Y693050D02*
Y688050D01*
X486250Y681050*
X474250*
X493250Y718050D02*
Y722550D01*
X488750Y727050*
X482250*
X493750Y476050D02*
Y503550D01*
X495500Y842300D02*
X492250Y845550D01*
Y852550*
X495750Y291550D02*
X488750D01*
X481250Y299050*
X498250Y674550D02*
X492250Y668550D01*
X488750*
X498250Y693050D02*
Y674550D01*
Y718050D02*
Y735050D01*
X502750Y739550*
X506250*
X498750Y476050D02*
Y471550D01*
X500250Y470050*
X512250*
X513750Y471550*
X529250*
X530750Y470050*
X498750Y568550D02*
Y559550D01*
X495750Y556550*
X486750*
X483750Y559550*
Y568550*
X498750D02*
Y573550D01*
X500250Y575050*
X516250*
X523250Y568050*
Y547750*
X498750Y593550D02*
Y588050D01*
X500250Y586550*
X515750*
X518250Y589050*
Y604050*
X512250Y610050*
Y620250*
X518250Y626250*
X523750*
X500750Y795050D02*
Y799550D01*
X495250Y805050*
X450750*
X445750Y800050*
X500750Y835050D02*
Y843550D01*
X509750Y852550*
X503250Y693050D02*
X516250D01*
X522250Y699050*
X503250Y718050D02*
X511750Y726550D01*
Y746050*
X509250Y748550*
X506250*
X503750Y442050D02*
X507250D01*
X537250Y412050*
X548250*
X550750Y409550*
X503750Y476050D02*
Y485050D01*
X507250Y488550*
X548250*
X561250Y475550*
Y470550*
X503750Y568550D02*
Y555050D01*
X517750Y541050*
X529750*
X539750Y531050*
X588250*
X593750Y536550*
X505750Y835050D02*
Y840050D01*
X522750Y857050*
X535250*
X559750Y832550*
X599250*
X619250Y852550*
X506250Y659550D02*
X509750D01*
X511750Y661550*
Y684550*
X503250Y693050*
X506250Y668550D02*
X504250D01*
X498250Y674550*
X507250Y547050D02*
X503750Y543550D01*
X451250*
X508750Y568550D02*
Y561050D01*
X507250Y559550*
X508750Y568550D02*
X512250D01*
X514750Y571050*
X509250Y291550D02*
X505750D01*
X502750Y288550*
Y286050*
X499250Y282550*
X495750*
X510750Y835050D02*
X518250Y827550D01*
X629250*
X654250Y852550*
X511250Y37550D02*
X521250Y27550D01*
X544250*
X556250Y39550*
Y121050*
X529750Y147550*
X480750*
X461750Y166550*
Y220550*
X433250Y249050*
X514750Y589550D02*
X512750D01*
X508750Y593550*
X515750Y359050D02*
Y364050D01*
X499250Y380550*
Y395550*
X516250Y120050D02*
X507750Y128550D01*
X395250*
X378750Y145050*
X354250*
X344750Y154550*
Y220550*
X520750Y362050D02*
X515750Y367050D01*
Y378050*
X504250Y389550*
Y395550*
X522250Y716050D02*
Y752550D01*
X569250Y799550*
X581750*
X523250Y534350D02*
X455950D01*
X446750Y543550*
X523250Y547750D02*
X528750D01*
X539850Y536650*
X523750Y388050D02*
Y406050D01*
X509250Y420550*
X523750Y612850D02*
X521950D01*
X515250Y619550*
X523750Y626250D02*
X549050D01*
X549750Y625550*
X525250Y353050D02*
Y362550D01*
X518250Y369550*
Y396550*
X499250Y415550*
Y420550*
X526250Y699050D02*
Y669550D01*
X509750Y653050*
X457250*
X453750Y656550*
Y659550*
X526250Y716050D02*
Y751050D01*
X571250Y796050*
X583750*
X585750Y798050*
Y799550*
X526750Y478550D02*
Y474050D01*
X530750Y470050*
X527250Y852550D02*
X530250D01*
X552750Y830050*
X614250*
X636750Y852550*
X528250Y349550D02*
Y362050D01*
X520250Y370050*
Y399550*
X504250Y415550*
Y420550*
X528750Y231050D02*
Y235550D01*
X530750Y237550*
X542250*
X548250Y231550*
Y226550*
X552750Y222050*
X566250*
X570750Y226550*
Y250050*
X581750Y261050*
X528750Y326050D02*
X507250Y347550D01*
X443250*
X533250Y644550D02*
X461250D01*
X450250Y633550*
X443250*
X533750Y231050D02*
Y227050D01*
X534250*
Y222550*
X504250*
X497250Y229550*
Y235050*
X470750Y261550*
X536250Y418350D02*
X510050Y444550D01*
X498750*
X538750Y231050D02*
Y226550D01*
X534750Y222550*
X534250*
X539850Y536650D02*
X539950Y536550D01*
X548750*
X539850Y536650D02*
X540750D01*
Y542550*
X541250Y569550D02*
X561750Y549050D01*
X569668*
X569750Y548968*
Y548132*
X541750Y621550D02*
X542250D01*
X546250Y625550*
X549750*
X543750Y390550D02*
Y394050D01*
X553750Y404050*
Y418050*
X543750Y404850D02*
X544250D01*
Y399050*
X525250Y380050*
Y371050*
X534750Y361550*
Y321050*
X538750Y317050*
Y316050*
X543750Y418250D02*
X553550D01*
X553750Y418050*
X543750Y418250D02*
X536350D01*
X536250Y418350*
X543750Y435850D02*
X539750Y436550D01*
X512250Y464050*
X449750*
X448750Y463050*
X543750Y449250D02*
Y461550D01*
X539250*
X530750Y470050*
X543750Y470550D02*
Y475550D01*
X546750Y478550*
X543750Y470550D02*
X554250D01*
X548750Y316050D02*
X553750Y321050D01*
X560750*
X563750Y324050*
Y330550*
X568250Y335050*
Y396550*
X557750Y407050*
Y421050*
X548750Y326050D02*
X543750Y331050D01*
Y381550*
X549750Y616550D02*
X565250D01*
X569750Y621050*
X583250*
X587750Y616550*
X593750*
X549750Y625550D02*
Y626050D01*
X575250*
X575750Y625550*
X576250*
X550250Y659550D02*
X567750D01*
X550250Y739550D02*
X544750Y745050D01*
Y753550*
X549750Y758550*
X607750*
X615250Y751050*
Y720050*
X550250Y748550D02*
X567750D01*
X554250Y400550D02*
Y392050D01*
X543750Y381550*
X557750Y432550D02*
Y457550D01*
X561250Y461050*
Y461550*
X558750Y316050D02*
X559750D01*
X564750Y321050*
X570750*
X573750Y324050*
Y330550*
X570750Y333550*
Y397550*
X560250Y408050*
Y418550*
X562750Y421050*
X560250Y17050D02*
X748250D01*
X760250Y29050*
Y37050*
X765250Y42050*
X782750*
X801750Y61050*
Y70050*
X560750Y542550D02*
X551750D01*
X548750Y545550*
X561250Y381550D02*
Y377550D01*
X553750Y370050*
Y324050*
X550750Y321050*
X543750*
X538750Y326050*
X561250Y390550D02*
Y399550D01*
X556750Y404050*
X561750Y621550D02*
X556250D01*
X551250Y616550*
X549750*
X562750Y447550D02*
X576750Y461550D01*
X578750*
X563250Y282550D02*
X559750Y279050D01*
X527750*
X522500Y284300*
X563750Y413550D02*
Y407550D01*
X573750Y397550*
Y386550*
X578750Y381550*
X563750Y438550D02*
Y446550D01*
X562750Y447550*
X563750Y593550D02*
X562250D01*
X533250Y622550*
X563750Y593550D02*
Y589050D01*
X566250Y586550*
X575250*
X564250Y20050D02*
X746750D01*
X757250Y30550*
Y38550*
X763750Y45050*
X776750*
X791750Y60050*
X565750Y880550D02*
X557750Y888550D01*
X516750*
X508250Y880050*
X462750*
X567750Y693050D02*
Y686050D01*
X550250Y668550*
X567750Y718050D02*
Y722050D01*
X550250Y739550*
X568750Y413550D02*
Y405050D01*
X572250Y401550*
X587750*
X591250Y398050*
Y386550*
X596250Y381550*
X568750Y438550D02*
Y443550D01*
X576250Y451050*
X582750*
X593250Y461550*
X596250*
X568750Y562050D02*
Y553550D01*
X566750Y551550*
X569750Y548132D02*
Y544050D01*
Y883550D02*
X562750Y890550D01*
X510750*
X508250Y888050*
X410750*
X402750Y880050*
X572750Y693050D02*
Y673550D01*
X567750Y668550*
X572750Y718050D02*
Y734550D01*
X567750Y739550*
X573250Y886550D02*
X559750Y900050D01*
X533750*
X529750Y904050*
X516250*
X503250Y891050*
X353750*
X342750Y880050*
X573750Y568550D02*
Y553050D01*
X569750Y549050*
Y548132*
X573750Y593550D02*
Y598550D01*
X577750Y602550*
X583750*
X576250Y229050D02*
Y226050D01*
X585250Y217050*
Y113550*
X564250Y92550*
Y33550*
X576250Y238050D02*
Y251050D01*
X587250Y262050*
X600250*
X602750Y264550*
X622750*
X634250Y253050*
Y250050*
X576250Y536550D02*
X548750D01*
X576250Y616550D02*
Y615550D01*
X579250*
X588750Y606050*
Y593550*
X576750Y895050D02*
X566250Y905550D01*
X533750*
X531750Y907550*
X513750*
X509750Y903550*
X311750*
X288250Y880050*
X282750*
X577250Y291550D02*
X563250D01*
X577253Y684050D02*
X577750D01*
Y693050*
Y718050D02*
Y723050D01*
X579250Y724550*
X586250*
X587750Y723050*
Y718050*
X578750Y350550D02*
Y334550D01*
X582750Y330550*
Y312050*
X585250Y309550*
X612250*
X618750Y316050*
X578750Y381550D02*
X585750Y388550D01*
Y392550*
X578750Y381550D02*
X583750Y376550D01*
X600250*
X603250Y379550*
X578750Y461550D02*
X585750D01*
X590250Y466050*
X600250*
X632750Y498550*
X663250*
X578750Y470550D02*
X561250D01*
X578750Y877550D02*
X524250D01*
X522750Y879050*
Y880050*
X581250Y116050D02*
Y156050D01*
X568250Y169050*
X563250*
X581750Y275050D02*
Y278050D01*
X583250Y279550*
Y288550*
X580250Y291550*
X577250*
X581750Y835550D02*
Y900050D01*
X576750Y905050*
X583750Y593550D02*
Y602550D01*
Y606550D02*
X577250D01*
X568750Y598050*
Y593550*
X585250Y748550D02*
X602750D01*
X585750Y835550D02*
Y877050D01*
X591750Y883050*
Y900050*
X586750Y905050*
Y895050D02*
Y886550D01*
X587250Y294550D02*
X588250D01*
X595750Y287050*
X606250*
X608250Y285050*
Y280550*
X611250Y277550*
X625250*
X640250Y292550*
X652750*
X656250Y289050*
Y281050*
X587750Y693050D02*
Y688050D01*
X583750Y684050*
X577253*
X587750Y693050D02*
Y718050D01*
X588750Y438550D02*
Y443550D01*
X598750Y453550*
X609250*
X613750Y458050*
Y461550*
X588750Y568550D02*
Y560550D01*
X576250Y548050*
Y545550*
X589250Y259050D02*
Y111550D01*
X568250Y90550*
Y37550*
X589750Y835550D02*
Y871050D01*
X601750Y883050*
Y900050*
X596750Y905050*
X592750Y162550D02*
X591750Y161550D01*
Y60550*
X606250Y46050*
X592750Y693050D02*
Y676050D01*
X585250Y668550*
X592750Y718050D02*
Y732050D01*
X585250Y739550*
X593750Y536550D02*
X611250D01*
X593750Y545550D02*
X587250D01*
X582750Y541050*
X562250*
X560750Y542550*
X593750Y545550D02*
Y568550D01*
Y593550D02*
X606250Y606050D01*
X657750*
X687250Y576550*
X593750Y593550D02*
Y616550D01*
Y625550D02*
X591750D01*
X582750Y634550*
X515750*
X503750Y622550*
Y593550*
X593750Y625550D02*
X611250D01*
X593750Y799550D02*
Y798550D01*
X585250Y790050*
X576250*
X536750Y750550*
Y716550*
X531250Y711050*
X510250*
X503250Y718050*
X593750Y835550D02*
Y867550D01*
X611750Y885550*
Y900050*
X606750Y905050*
X596250Y46050D02*
X602250Y40050D01*
X611250*
X623250Y52050*
Y96050*
X629750Y102550*
X658750*
X681750Y125550*
Y161050*
X596250Y350550D02*
Y342050D01*
X584750Y330550*
Y313050*
X586250Y311550*
X601250*
X603750Y314050*
Y321050*
X608750Y326050*
X596250Y390550D02*
Y397550D01*
X589250Y404550*
X596250Y470550D02*
X590250D01*
X585750Y466050*
X556750*
X552250Y461550*
X543750*
X596750Y895050D02*
Y886050D01*
X597750Y693050D02*
Y673550D01*
X602750Y668550*
X598750Y229050D02*
X608250Y219550D01*
X598750Y229050D02*
Y208050D01*
Y258050D02*
X602750D01*
X610250Y250550*
X615750*
X598750Y316050D02*
X593750Y321050D01*
Y327550*
X601250Y335050*
Y372550*
X606250Y377550*
Y396050*
X598750Y326050D02*
X604750Y332050D01*
Y367050*
X599250Y152050D02*
Y157550D01*
X605750Y164050*
X629250*
X600750Y586550D02*
X624250D01*
X629250Y591550*
X602750Y739550D02*
X597750Y734550D01*
Y718050*
X603250Y383550D02*
Y394550D01*
X588750Y409050*
Y413550*
X604750Y187550D02*
X605750D01*
X608750Y184550*
Y172550*
X594250Y158050*
Y112550*
X598250Y108550*
X660250*
X678750Y127050*
Y139550*
X604750Y208050D02*
X598750D01*
X604750Y367050D02*
Y371550D01*
X608250Y375050*
Y388550*
X610250Y390550*
X613750*
X606250Y396050D02*
X593750Y408550D01*
Y413550*
X606750Y895050D02*
Y886050D01*
X607750Y240550D02*
X606250D01*
X598750Y248050*
X611250Y545550D02*
X662250D01*
X679750Y528050*
Y445050*
X676250Y441550*
Y341550*
X611250Y616550D02*
Y616050D01*
X652250*
X696250Y572050*
Y341550*
X613750Y349550D02*
Y321550D01*
X608750Y316550*
Y316050*
X613750Y470550D02*
X617750D01*
X650750Y437550*
Y369050*
X631250Y349550*
X615750Y259550D02*
X619250D01*
X621750Y257050*
Y240050*
X619750Y238050*
X616250Y229050D02*
X613750D01*
X607750Y235050*
X616250Y238050D02*
X598750D01*
X616750Y877550D02*
X653250D01*
X659250Y871550*
X746250*
X618750Y326050D02*
Y360050D01*
X638750Y380050*
Y418550*
X618750Y699550D02*
X677750D01*
X699250Y721050*
X619250Y861550D02*
Y865550D01*
X612750Y872050*
Y880550*
X621750Y889550*
Y907050*
X624750Y910050*
X633750*
X636750Y907050*
Y905050*
X619750Y148550D02*
Y143550D01*
X632250Y131050*
Y117550*
X629750Y115050*
X619750Y238050D02*
X624250Y233550D01*
Y228550*
X628750Y224050*
X643750*
X645250Y225550*
X624750Y130050D02*
Y132050D01*
X612250Y144550*
Y158050*
X624750Y219550D02*
X654750D01*
X661250Y226050*
Y231050*
X625250Y415550D02*
Y411550D01*
X609750Y396050*
X606250*
X628250Y23050D02*
X745750D01*
X754250Y31550*
Y40050*
X761750Y47550*
X774250*
X781750Y55050*
Y61550*
X797750Y77550*
Y90050*
X792250Y95550*
Y226550*
X628250Y32050D02*
Y93550D01*
X629750Y95050*
X628750Y316050D02*
Y314050D01*
X622250Y307550*
X527750*
X521750Y313550*
Y325050*
X507250Y339550*
X443250*
X629750Y123550D02*
Y130550D01*
X616250Y144050*
Y158050*
X629750Y148550D02*
Y140050D01*
X637250Y132550*
X653750*
X655750Y130550*
X631250Y406550D02*
Y380050D01*
X614250Y363050*
X631250Y436550D02*
X628750D01*
X614250Y451050*
X601250*
X593750Y443550*
Y438550*
X631250Y445550D02*
X634250D01*
X644750Y435050*
Y375050*
X622750Y353050*
X621750*
X636750Y861550D02*
Y865050D01*
X646250Y874550*
X647750*
X637250Y247050D02*
Y254550D01*
X624750Y267050*
X601250*
X598750Y264550*
X482250*
X480250Y262550*
X479750*
X638750Y49550D02*
Y45550D01*
X633250*
X638750Y49550D02*
Y40550D01*
X646750Y32550*
X661250*
X663750Y35050*
Y35550*
X674250*
X638750Y164050D02*
X639750Y163050D01*
Y148550*
X638750Y418550D02*
Y428050D01*
X631250Y435550*
Y436550*
X639750Y175050D02*
Y179550D01*
X636250Y183050*
X633750*
X642750Y171550D02*
Y189550D01*
X651250Y198050*
Y206050*
X644750Y148550D02*
Y144050D01*
X641250Y140550*
X644750Y148550D02*
Y144050D01*
X648750Y140050*
X662750*
X646750Y561550D02*
X650250D01*
X658250Y569550*
Y600550*
X646750Y570550D02*
X629250D01*
X646750Y591550D02*
X642750D01*
X634750Y583550*
X596250*
X594750Y585050*
Y585550*
X646750Y600550D02*
X650250D01*
X653250Y597550*
Y573550*
X650250Y570550*
X646750*
Y895050D02*
X641750Y900050D01*
Y907550*
X628750Y920550*
X322750*
X291250Y889050*
X279750*
X275250Y884550*
Y856550*
X647750Y804550D02*
X619750D01*
X619250Y805050*
X506250*
X500750Y799550*
Y795050*
X647750Y827550D02*
X649250Y829050D01*
X773250*
X648750Y316050D02*
X653250Y311550D01*
X748250*
X751250Y308550*
X649250Y337050D02*
Y345050D01*
X655750Y351550*
Y446050*
X666750Y457050*
Y505550*
X665250Y507050*
X463750*
X444750Y526050*
X649750Y123550D02*
Y128050D01*
X647750Y130050*
X639750*
X650750Y801550D02*
X618750D01*
X617750Y802550*
X508750*
X505750Y799550*
Y795050*
X650750Y832050D02*
X653750D01*
X690250Y868550*
X711750*
X650750Y928550D02*
X208750D01*
X189750Y909550*
Y905050*
X651250Y174050D02*
Y171550D01*
X642750*
X651250Y231050D02*
X650750D01*
X645250Y225550*
X651750Y886050D02*
Y900050D01*
X646750Y905050*
X652250Y35550D02*
X659250D01*
X652250Y40550D02*
X647750D01*
X641250Y47050*
Y63050*
X672750Y94550*
X688750*
X703750Y109550*
X652250Y50550D02*
X647750D01*
X646250Y52050*
Y60050*
X675250Y89050*
X677250*
X653750Y341550D02*
X661250Y349050D01*
Y445550*
X669750Y454050*
Y516550*
X665250Y521050*
X566750*
X654250Y861550D02*
Y873050D01*
X652750Y874550*
X651750*
X654750Y105550D02*
X594750D01*
X656250Y206050D02*
Y191550D01*
X651250Y186550*
Y183050*
X656250Y231050D02*
Y226550D01*
X651750Y222050*
X622750*
X616250Y228550*
Y229050*
X656750Y922050D02*
X655250Y923550D01*
X218250*
X199750Y905050*
X656750Y926050D02*
X210750D01*
X194750Y910050*
Y900050*
X658750Y326050D02*
X657750D01*
X653750Y322050*
X635750*
X632750Y319050*
Y312050*
X624750Y304050*
X527750*
X519750Y312050*
Y321550*
X505750Y335550*
X443250*
X659250Y163550D02*
X655250D01*
X649750Y158050*
Y148550*
X659250Y171550D02*
Y186550D01*
X673750Y201050*
Y212050*
X681750Y220050*
X705750*
X707750Y222050*
Y236550*
X710750Y239550*
X660250Y341550D02*
X666250Y347550D01*
Y444050*
X672750Y450550*
Y518050*
X666250Y524550*
X569750*
X662250Y123550D02*
X654750D01*
X662750Y145050D02*
X658250D01*
X654750Y148550*
X666250Y40550D02*
X676750D01*
X666250Y45550D02*
X695750D01*
X703750Y37550*
X666250Y55550D02*
X662250D01*
X659250Y52550*
Y35550*
X670750Y171850D02*
X671750Y174050D01*
X681250Y183550*
Y206050*
X670750Y185250D02*
X667750Y183050D01*
X666250*
X662750Y179550*
Y170550*
X660750Y168550*
X636250*
X633750Y171050*
Y174050*
X670750Y185250D02*
X676250Y190550D01*
Y206050*
X670750Y341550D02*
X670250D01*
Y442050*
X675750Y447550*
Y519050*
X666750Y528050*
X458250*
X443750Y542550*
Y548550*
X446250Y551050*
X470750*
X478750Y559050*
Y568550*
X671250Y231050D02*
Y218050D01*
Y281050D02*
Y288550D01*
X660250Y299550*
X630250*
X627750Y297050*
X583250*
X674250Y35550D02*
X683750Y26050D01*
X744750*
X751250Y32550*
Y54550*
X788250Y91550*
Y106050*
X784250Y110050*
X759750*
X757750Y108050*
X752750*
X751250Y109550*
Y114550*
X743750Y122050*
Y133050*
X748750Y138050*
Y154050*
X746250Y156550*
Y168550*
X674250Y50550D02*
X700750D01*
X713750Y37550*
X674250Y552550D02*
X609750D01*
X593750Y568550*
X674250Y552550D02*
X675250D01*
X683250Y544550*
Y443050*
X681750Y441550*
Y341550*
X675750Y922050D02*
X699750D01*
X716750Y905050*
X675750Y926050D02*
X705750D01*
X721750Y910050*
Y900050*
X716750Y895050*
X676250Y206050D02*
Y212050D01*
X682250Y218050*
X706750*
X709750Y221050*
Y234050*
X713750Y238050*
Y243550*
X705250Y252050*
Y262550*
X676250Y256050D02*
Y251550D01*
X671750Y247050*
X651250*
X676250Y290050D02*
Y281050D01*
X676750Y40550D02*
X690750D01*
X693750Y37550*
X677250Y89050D02*
X703250D01*
X723750Y109550*
X680250Y291550D02*
X682750D01*
X696750Y305550*
X752750*
X754250Y307050*
Y310550*
X748750Y316050*
X681250Y231050D02*
X683250D01*
X691750Y222550*
X681250Y247050D02*
X678750Y244550D01*
X648750*
X646250Y247050*
X684750Y179050D02*
Y174050D01*
X677250Y166550*
X655250*
X639750Y151050*
Y148550*
X686750Y341550D02*
Y544550D01*
X674750Y556550*
X642750*
X633250Y566050*
X625250*
X611250Y580050*
X550750*
X550250Y580550*
X478750*
X687250Y284550D02*
Y286550D01*
X697750Y297050*
X764750*
X781750Y314050*
Y491050*
X778750Y494050*
Y518050*
X687250Y576550D02*
X692250Y571550D01*
Y341550*
X691250*
X687750Y167550D02*
Y203050D01*
X689250Y153550D02*
X688750D01*
X684250Y149050*
Y119550*
X686750Y117050*
X706250*
X713750Y109550*
X689250Y153550D02*
Y158550D01*
X684250Y163550*
X659250*
X691750Y203050D02*
Y150050D01*
X690250Y148550*
X687750*
X686250Y147050*
Y135050*
X689250Y132050*
X693750Y37550D02*
X701750Y29550D01*
X744750*
X748750Y33550*
Y57050*
X756750Y65050*
Y85550*
X748750Y93550*
Y114050*
X741250Y121550*
Y143550*
X693750Y109550D02*
X681250Y97050D01*
X666750*
X638750Y69050*
Y49550*
X694250Y146550D02*
Y169050D01*
Y161050*
X721250*
X695750Y139550D02*
X697750D01*
X700250Y137050*
X723750*
X726750Y134050*
Y121550*
X725750Y120550*
X697250Y179050D02*
X701250Y183050D01*
X704250*
X698750Y295050D02*
X766250D01*
X784250Y313050*
Y493050*
X782250Y495050*
Y881550*
X770750Y893050*
X770250*
X699250Y741050D02*
X690250D01*
X669250Y720050*
X615250*
X699250Y761050D02*
X596750D01*
X702510Y377053D02*
Y402053D01*
Y427053*
Y452053*
Y557053*
Y582053*
Y691053D02*
Y708053D01*
Y691053D02*
Y685290D01*
X705750Y682050*
X706250*
X702510Y708053D02*
Y728053D01*
Y748053*
X704250Y123050D02*
X689250D01*
X704250Y154050D02*
X718750D01*
X724250Y159550*
Y162550*
X721250Y165550*
Y168550*
X704750Y223050D02*
X703250D01*
X683750Y242550*
X646250*
X643250Y245550*
Y253050*
X646250Y256050*
X704750Y227050D02*
X684750Y247050D01*
X681250*
X704750Y231050D02*
X681250Y254550D01*
Y256050*
X706250Y372050D02*
Y385047D01*
Y435047D02*
Y420050D01*
Y498550D02*
Y460047D01*
Y565047D02*
Y572550D01*
Y590047D02*
Y576550D01*
Y656550D02*
X702250Y652550D01*
Y582053*
X702510*
X706250Y699047D02*
Y686050D01*
X706750Y905050D02*
X701750Y900050D01*
X693750*
X675750Y918050*
X709990Y377053D02*
Y402053D01*
Y427053*
Y452053*
Y557053*
Y582053*
Y691053D02*
Y708053D01*
Y728053*
Y748053*
X709750*
Y762550*
X661750Y810550*
X446750*
X438250Y802050*
Y746550*
X710250Y258550D02*
X713750D01*
X716250Y256050*
X710250Y656550D02*
Y582053D01*
X709990*
X710250Y682050D02*
Y687550D01*
X709990*
Y691053*
X711750Y891050D02*
Y900722D01*
X716750Y905050*
X713750Y109550D02*
X696250Y92050D01*
X674750*
X643750Y61050*
Y49550*
X647750Y45550*
X652250*
X713750Y109550D02*
X714250D01*
X722250Y117550*
X714250Y656550D02*
Y341550D01*
Y682050D02*
Y763550D01*
X664250Y813550*
X441250*
X419250Y835550*
X289750*
X718750Y656550D02*
Y341550D01*
X721250Y143550D02*
Y149550D01*
X724750Y153050*
X731250*
X736250Y148050*
X721250Y143550D02*
X705750D01*
X704250Y145050*
X721250Y206050D02*
Y201550D01*
X732750Y190050*
X768750*
X721250Y300050D02*
X697250D01*
X684750Y287550*
Y276050*
X682250Y273550*
X676250*
X722250Y123550D02*
X704750D01*
X704250Y123050*
X722250Y127550D02*
X711750D01*
X707250Y132050*
X704250*
X722250Y668050D02*
X727250D01*
X738750Y656550*
Y341550*
X722250Y668050D02*
X602750D01*
Y668550*
X723750Y37550D02*
X701750Y59550D01*
X656250*
X652250Y55550*
X723750Y237550D02*
X719250D01*
X713750Y232050*
Y203050*
X694250Y183550*
Y169050*
X723750Y341550D02*
Y657050D01*
X720750Y660050*
X696750*
X687750Y651050*
X549750*
X545250Y655550*
Y666550*
X547250Y668550*
X550250*
X726250Y143550D02*
Y139050D01*
X728750Y136550*
Y35050*
X725750Y32050*
X708750*
X703750Y37050*
Y37550*
X726250Y168550D02*
Y172050D01*
X735250Y181050*
X777750*
X779750Y183050*
Y186050*
X777750Y188050*
X773750*
X772750Y187050*
X765250*
X764250Y188050*
X730250*
X718750Y199550*
Y211550*
X721250Y214050*
X726750*
X731750Y219050*
X726250Y206050D02*
Y210550D01*
X732250Y216550*
X762250*
X764250Y218550*
X773750*
X779250Y224050*
Y275550*
X726250Y221550D02*
Y231050D01*
Y256050D02*
Y250550D01*
X729750Y247050*
X745750*
X728750Y341550D02*
Y656050D01*
X722250Y662550*
X694250*
X685250Y653550*
X571750*
X567750Y657550*
Y659550*
X731250Y143550D02*
Y148050D01*
X729250Y150050*
X726250*
X731250Y168550D02*
Y163550D01*
X717250Y149550*
X700250*
X697250Y152550*
Y153550*
X731250Y206050D02*
Y197550D01*
X736750Y192050*
X763250*
X765250Y194050*
X770750*
X771750Y193050*
X731250Y231050D02*
Y222550D01*
X727250Y218550*
X722750*
X731250Y231050D02*
Y225050D01*
X737750Y218550*
X760750*
X762750Y220550*
X771750*
X776750Y225550*
Y226550*
X733750Y198050D02*
X737750Y194050D01*
X761750*
X764250Y196550*
X775250*
X781750Y190050*
Y181550*
X779250Y179050*
X742250*
X736250Y173050*
Y168550*
X733750Y341550D02*
Y655550D01*
X724250Y665050*
X692250*
X686750Y659550*
X602750*
X736250Y206050D02*
Y201550D01*
X738250Y199550*
X759250*
X762250Y202550*
Y206050*
X764750Y208550*
X772750*
X782250Y218050*
Y276550*
X779250Y279550*
X736250Y256050D02*
Y262550D01*
X738750Y197050D02*
X761750D01*
X768750Y204050*
X741250Y168550D02*
Y173550D01*
X744750Y177050*
X780250*
X784250Y181050*
Y230050*
X785250Y231050*
Y275550*
X787750Y278050*
Y309050*
X786750Y310050*
Y495550*
X785250Y497050*
Y825050*
X741250Y168550D02*
Y153050D01*
X736250Y148050*
X741250Y231050D02*
Y239050D01*
X737750Y242550*
X725250*
X716250Y251550*
Y256050*
X741250D02*
Y252050D01*
X738750Y249550*
X730250*
X728750Y251050*
Y261050*
X727250Y262550*
X709750*
X707250Y260050*
Y255550*
X715750Y247050*
Y237050*
X711750Y233050*
Y220050*
X704750Y213050*
X703750*
X746250Y281050D02*
Y285550D01*
X748250Y287550*
X753250*
X754750Y286050*
Y226550*
X752750Y224550*
X747750*
X746250Y871550D02*
X749750D01*
X759250Y881050*
X763750*
X746250Y889550D02*
Y900050D01*
X739750*
X746250Y917050D02*
X733750Y929550D01*
X674750*
X672750Y927550*
Y921050*
X675750Y918050*
X746750Y308550D02*
X745750Y309550D01*
X645250*
X638750Y316050*
X748750Y648550D02*
X743750Y643550D01*
Y341550*
X748750Y671050D02*
X747250Y672550D01*
Y741550*
X669750Y819050*
X444750*
X422250Y841550*
X375250*
X751250Y168550D02*
X755250D01*
X758750Y165050*
X775750*
X782750Y172050*
X751250Y231050D02*
Y236050D01*
X742750Y244550*
X728750*
X721250Y252050*
Y256050*
X751250D02*
Y240050D01*
X751750Y645050D02*
X748750Y642050D01*
Y341550*
X754250Y122550D02*
X752250D01*
X750250Y120550*
X754250Y132550D02*
X749250Y127550D01*
X746750*
X754750Y510050D02*
Y342550D01*
X750250Y338050*
X668750*
X665250Y341550*
X754750Y664050D02*
X761750Y671050D01*
Y808550*
X776750Y823550*
Y878050*
X763750Y891050*
X758250Y117550D02*
X776750D01*
X781750Y122550*
X758750Y316050D02*
X760750D01*
X765250Y311550*
X772250*
X776250Y315550*
Y341050*
X771250Y346050*
Y643050*
X735250Y679050*
X634250*
X615250Y698050*
Y720050*
X758750Y326050D02*
X761250Y328550D01*
Y339050*
X758750Y341550*
Y644050*
X731750Y671050*
X627750*
X597750Y701050*
Y718050*
X760250Y247050D02*
X776250Y263050D01*
Y271550*
X763750Y871050D02*
X773250Y861550D01*
Y829050*
X766750Y140050D02*
X770750D01*
X781750Y129050*
Y122550*
X768750Y316050D02*
X773750Y321050D01*
Y339050*
X767750Y345050*
Y642550*
X733750Y676550*
X631750*
X611750Y696550*
Y748050*
X605750Y754050*
X573250*
X567750Y748550*
X768750Y326050D02*
Y339050D01*
X763750Y344050*
Y642550*
X732750Y673550*
X629750*
X608750Y694550*
Y743050*
X603250Y748550*
X602750*
X769250Y25550D02*
X765750D01*
X763250Y28050*
X769250Y62050D02*
X773750D01*
X791750Y80050*
X772750Y876050D02*
X760750D01*
X750750Y866050*
X740250*
X737750Y868550*
X711750*
X773250Y825050D02*
X490750D01*
X774250Y514050D02*
Y493050D01*
X778750Y488550*
Y314550*
X767250Y303050*
X696750*
X681250Y287550*
Y281050*
X781750Y105050D02*
X779750Y107050D01*
X760750*
X756750Y103050*
X754250*
X789750Y275050D02*
X788250Y273550D01*
Y231050*
X786750Y229550*
Y180050*
X781250Y174550*
X774750*
X789750Y275050D02*
Y498050D01*
X788750Y499050*
Y869050*
X786250Y871550*
X785250*
X791750Y829050D02*
Y875550D01*
X767250Y900050*
X746250*
X792250Y271550D02*
Y232050D01*
X789250Y229050*
Y178550*
X782750Y172050*
X792250Y271550D02*
X793250Y272550D01*
Y276550*
X791750Y278050*
Y829050*
X794750Y874050D02*
Y279550D01*
X795250Y279050*
Y102050*
X807250Y90050*
Y60550*
X772250Y25550*
X769250*
D02*
D12*
X28750Y236550D02*
X27750D01*
Y237550*
X26250*
X34750Y873050D02*
X48750D01*
X37750Y719550D02*
X43750D01*
X40750Y672550D02*
Y676050D01*
X36750Y680050*
Y697050*
X40750Y687050D02*
Y701550D01*
X36750Y705550*
Y715550*
X32750Y719550*
X29750*
X43750Y710550D02*
Y705050D01*
X47250Y701550*
Y679550*
X40750Y672550*
X48750Y873050D02*
X63750D01*
X59250Y896050D02*
X57750D01*
X48750Y887050*
Y882050*
X59250Y900050D02*
X49750D01*
X34750Y885050*
Y882050*
X76250Y379050D02*
X82250D01*
X91250Y208550D02*
Y213550D01*
Y243550D02*
Y248550D01*
X63750Y276050*
Y309550*
X91250Y268550D02*
Y263550D01*
Y268550D02*
X93250Y270550D01*
X101750*
X91250Y303550D02*
Y298550D01*
X96250Y438550D02*
X90750D01*
X98750Y547050D02*
X97750Y548050D01*
Y578050*
X101250Y581550*
X98750Y923050D02*
Y916050D01*
X102750Y923050D02*
Y916050D01*
X109750Y882050D02*
X104250D01*
X111250Y592550D02*
Y597550D01*
X112750Y599050*
X114750*
X116250Y597550*
Y592550*
X115750Y869050D02*
X117750Y871050D01*
Y871550*
X116250Y592550D02*
Y597550D01*
X124750Y606050*
X127750*
X121250Y592550D02*
Y598050D01*
X124750Y601550*
X125010Y883550D02*
Y877550D01*
X124750Y878050*
X126250Y567550D02*
Y578050D01*
Y592550D02*
Y585050D01*
X128750Y871550D02*
X133750D01*
X131250Y131050D02*
X125250D01*
X131250Y238050D02*
Y228550D01*
Y253550D02*
Y247050D01*
Y592550D02*
Y588050D01*
X134250Y585050*
X137250*
X134750Y767550D02*
Y757550D01*
X136250Y131050D02*
Y126050D01*
X135250Y125050*
X121750*
X120250Y126550*
X136250Y253550D02*
Y247050D01*
X141250Y140050D02*
Y131050D01*
Y228550D02*
Y238050D01*
X143750Y123050D02*
Y136050D01*
X145250Y137550*
X149750*
X151250Y136050*
Y131050*
X143750Y123050D02*
X145750Y121050D01*
X250750*
X256250Y126550*
Y131050*
X143750Y241050D02*
X147250D01*
X206250*
X151250Y106050D02*
Y97050D01*
Y228550D02*
Y235050D01*
Y253550D02*
Y258550D01*
X149750Y260050*
X145250*
X143750Y258550*
Y241050*
X153250Y246550D02*
X161750D01*
X163750Y248550*
Y259050*
X167250Y262550*
X156250Y97050D02*
Y106050D01*
Y228550D02*
Y235050D01*
X161250Y106050D02*
Y97550D01*
X157750Y94050*
X149250*
X143750Y99550*
Y111550*
X147750Y115550*
X166250Y106050D02*
X168750D01*
X172250Y109550*
X166250Y228550D02*
Y224050D01*
X164250Y222050*
X140250*
X138750Y223550*
Y233550*
X134250Y238050*
X131250*
X166250Y538050D02*
X175250D01*
X166250Y622050D02*
X172250D01*
Y232050D02*
X169750D01*
X166250Y228550*
X181250Y438550D02*
X176250D01*
X183750Y537550D02*
X179750D01*
Y538050*
X175250*
X193750Y592550D02*
Y607050D01*
X196250Y413550D02*
X201750D01*
X201250Y622050D02*
X198250D01*
X193750Y617550*
Y607050*
X208750Y601550D02*
Y592550D01*
X213750Y379050D02*
X207750D01*
X218250Y537550D02*
X214750D01*
X225750Y556050D02*
Y561050D01*
X232250Y567550*
X246250*
X231250Y379050D02*
X237250D01*
X231750Y366050D02*
X231250Y365550D01*
X233750Y81050D02*
X238750D01*
X235750Y99550D02*
X239250D01*
X241250Y101550*
Y106050*
Y682550D02*
X244250D01*
X249250Y677550*
X241250Y727050D02*
X247250D01*
X246250Y308050D02*
Y306050D01*
X251250Y567550D02*
Y574050D01*
Y592550D02*
Y601550D01*
X256250Y106050D02*
Y112550D01*
Y228550D02*
Y235050D01*
Y253550D02*
Y247119D01*
X256181Y247050*
X256250Y586050D02*
Y592550D01*
X258250Y673550D02*
X253250D01*
X249250Y677550*
X258750Y413550D02*
Y404550D01*
Y438550D02*
Y442550D01*
X263750Y447550*
X264250*
X260750Y371050D02*
X266250D01*
Y379050*
X261250Y101550D02*
Y106050D01*
Y101550D02*
Y97550D01*
X264750Y94050*
X267250*
X268750Y95550*
Y136050*
X267250Y137550*
X261250*
Y101550D02*
Y99675D01*
X248625*
X246250Y102050*
Y106050*
X261250Y137550D02*
Y140550D01*
Y228550D02*
Y235050D01*
Y247050D02*
Y253550D01*
X266250Y106050D02*
Y97050D01*
Y131050D02*
Y126550D01*
Y567550D02*
Y558550D01*
Y846550D02*
X270250D01*
X279250Y855550*
X283750*
X268750Y81050D02*
X273750D01*
X268750Y413550D02*
Y404550D01*
Y438550D02*
Y443050D01*
X264250Y447550*
X271250Y228550D02*
Y224050D01*
X273750Y413550D02*
Y402050D01*
X266750Y395050*
Y388550*
X266250Y388050*
X274250Y455550D02*
Y446550D01*
X273750Y446050*
Y438550*
X275250Y682550D02*
Y695550D01*
Y682550*
Y704550D02*
Y718050D01*
X275750Y574550D02*
X274250D01*
X271250Y571550*
Y567550*
X276250Y592550D02*
Y585550D01*
X278750Y413550D02*
Y407050D01*
X290250Y395550*
Y375550*
X285750Y371050*
X260750*
X278750Y438550D02*
X291750D01*
X281250Y574550D02*
X279750D01*
X276250Y571050*
Y567550*
X283250Y704550D02*
X275250D01*
X283750Y379050D02*
X277750D01*
X283750Y388050D02*
X266250D01*
X283750Y818550D02*
X286750D01*
Y818050*
X289750*
X283750Y846550D02*
Y841550D01*
X289750Y835550*
X290250Y687550D02*
Y683550D01*
X295250Y678550*
Y687550D02*
Y678550D01*
Y705550D02*
Y712550D01*
X315250Y687550D02*
Y692050D01*
X317250Y694050*
X322250*
X326250Y690050*
X316750Y121550D02*
Y111050D01*
X321750Y106050*
X343750*
X326750Y818550D02*
X332750D01*
Y838550D02*
X326750Y844550D01*
Y846550*
X338750Y81050D02*
X343750D01*
Y131050D02*
Y135050D01*
X344000Y135300*
X346250Y137550*
X348750Y106050D02*
Y112550D01*
X345750*
X343750Y110550*
Y106050*
X348750Y131050D02*
Y135050D01*
X346250Y137550*
X351750Y855550D02*
X345750D01*
X353750Y131050D02*
Y124550D01*
X357010Y650544D02*
Y645544D01*
Y670544D02*
Y665544D01*
X357750Y700050D02*
X352750Y695050D01*
Y684287*
X353010Y679547*
Y681550*
X353270*
X361250Y690550D02*
Y681550D01*
X360750*
X363750Y253550D02*
Y246550D01*
X368750Y106050D02*
Y111050D01*
X366250Y113550*
Y136050*
X364750Y137550*
X352750*
X351250Y136050*
Y126050*
X349750Y124550*
X341750*
X337750Y128550*
X368750Y131050D02*
Y139550D01*
X348750*
X368750Y228550D02*
Y224050D01*
X367750Y223050*
X366750*
X366250Y223550*
Y233550*
X365250Y234550*
X362250*
X361250Y233550*
Y224050*
X356750Y219550*
X353250*
X368750Y228550D02*
Y232550D01*
X370750Y234550*
X373750*
X368750Y253550D02*
Y258550D01*
X370250Y260050*
X372250*
X373750Y258550*
Y253550*
X369250Y818550D02*
X375250D01*
X373750Y81050D02*
X378750D01*
X373750Y106050D02*
Y101050D01*
X372250Y99550*
X370250*
X368750Y101050*
Y106050*
X373750Y131050D02*
Y136550D01*
X370750Y139550*
X368750*
X373750Y228550D02*
Y234550D01*
X389750*
X404250Y249050*
X375250Y841550D02*
X370250Y846550D01*
X369250*
X394250Y855550D02*
X388250D01*
X411250Y153550D02*
Y164550D01*
X407250Y168550*
Y259550*
X411750Y818550D02*
X405750D01*
X411750Y846550D02*
X405750D01*
X413750Y103550D02*
Y108550D01*
Y138550D02*
Y143550D01*
X443250Y612050D02*
Y594050D01*
X449250Y588050*
X443250Y616550D02*
X449750Y610050D01*
X475750*
X483750Y602050*
X449250Y566050D02*
X460250D01*
X467750Y573550*
X449250Y566050D02*
Y562550D01*
X441750Y555050*
Y532550*
X449250Y572050D02*
Y566050D01*
X453750Y739550D02*
X471250D01*
X460250Y478550D02*
X470250Y468550D01*
X480750*
X483750Y471550*
Y476050*
X467750Y587550D02*
X473750Y593550D01*
X470750Y795050D02*
Y790550D01*
X475500Y785800*
X471250Y659550D02*
X479750D01*
X473750Y451050D02*
Y442050D01*
Y476050D02*
Y485050D01*
Y568550D02*
X472750D01*
X467750Y573550*
X475500Y785800D02*
X475750Y785550D01*
X480750*
X475750Y795050D02*
Y786050D01*
X475500Y785800*
X475750Y835050D02*
Y840050D01*
X477750Y842050*
X480750*
X476750Y372550D02*
X471750D01*
X478750Y593550D02*
Y602550D01*
X480750Y785550D02*
X485750D01*
X480750Y795050D02*
Y785550D01*
Y835050D02*
Y842050D01*
X485750*
X483750Y451050D02*
Y447550D01*
X486750Y444550*
X498750*
X483750Y451050D02*
Y455550D01*
X481250Y458050*
X464750*
X483750Y602050D02*
Y593550D01*
X485750Y785550D02*
X490750D01*
X485750Y795050D02*
Y785550D01*
Y835050D02*
Y842050D01*
X490750*
X486750Y372550D02*
Y368550D01*
X482250Y364050*
X474250*
X461750Y351550*
X443250*
X488750Y183050D02*
Y187050D01*
X497500Y195800*
X488750Y183050D02*
X485750D01*
X483250Y180550*
Y171050*
X487750Y166550*
X558250*
X559250Y167550*
X488750Y659550D02*
X479750D01*
X490750Y785550D02*
Y795050D01*
Y835050D02*
Y842050D01*
X495250*
X495500Y842300*
X491750Y372550D02*
Y369550D01*
X496250Y365050*
X502750*
X511750Y356050*
X492250Y861550D02*
X498250D01*
X493750Y451050D02*
Y457550D01*
Y470050D02*
Y476050D01*
Y568550D02*
Y559550D01*
X494250Y395550D02*
Y386550D01*
Y420550D02*
Y405550D01*
X491750Y403050*
Y381550*
X489250Y379050*
Y367550*
X492250Y364550*
X493750*
X496750Y361550*
Y358550*
X494250Y420550D02*
Y424050D01*
X498250Y428050*
Y439050*
X495750Y835050D02*
Y842050D01*
X495500Y842300*
X496750Y358550D02*
X501750D01*
X496750Y372550D02*
Y368550D01*
X498250Y367050*
X506750*
X498750Y444550D02*
Y451050D01*
Y485050D02*
Y476050D01*
Y593550D02*
Y602050D01*
X502250Y199050D02*
Y217550D01*
X505250*
X503750Y458050D02*
Y451050D01*
X506250Y174050D02*
X524750D01*
X525250Y173550*
X506250Y183050D02*
Y186050D01*
X510750Y190550*
X508750Y231050D02*
Y240050D01*
Y277050D02*
Y282550D01*
X509250*
X508750Y451050D02*
Y458050D01*
Y476050D02*
Y485550D01*
X509750Y861550D02*
Y867050D01*
X521750*
X527250Y861550*
X513750Y206050D02*
Y199550D01*
X488750Y174550*
Y174050*
X513750Y231050D02*
Y236550D01*
X510250Y240050*
X508750*
X518750Y206050D02*
Y180050D01*
X525250Y173550*
X522500Y284300D02*
X522753Y284553D01*
Y287050*
X527250Y830550D02*
Y852550D01*
X528750Y206050D02*
Y197050D01*
X529250Y373550D02*
Y376050D01*
X543750Y390550*
X530747Y290790D02*
Y283310D01*
X533250Y173550D02*
Y192550D01*
X528750Y197050*
X533750Y206050D02*
Y210550D01*
X535750Y212550*
X540750*
X546250Y207050*
Y204050*
X541250Y560550D02*
X535250D01*
X543750Y449250D02*
Y461550D01*
X549250Y373550D02*
Y376050D01*
X543750Y381550*
X550747Y290790D02*
Y283310D01*
X556250Y174050D02*
X550750Y168550D01*
X494250*
X488750Y174050*
X556250Y183050D02*
X542750D01*
X533250Y173550*
X563250Y204050D02*
X572750D01*
X576750Y208050*
X576250*
X563750Y568550D02*
Y563550D01*
X565250Y562050*
X568750*
X564250Y33550D02*
Y34550D01*
X567750Y693050D02*
Y699550D01*
X568750Y568550D02*
Y562050D01*
X571250Y282550D02*
X577250D01*
X573750Y413550D02*
Y404550D01*
Y438550D02*
Y432050D01*
X576250Y174050D02*
Y165050D01*
X580750Y160550*
X576250Y199050D02*
X563250Y186050D01*
X576250Y208050D02*
X581750Y202550D01*
Y188550*
X576250Y183050*
X577750Y684050D02*
X577253D01*
X578750Y359550D02*
Y370550D01*
Y390550D02*
Y397550D01*
X585750*
X583750Y413550D02*
Y404550D01*
Y438550D02*
Y432050D01*
Y568550D02*
Y559550D01*
X585250Y659550D02*
X602750D01*
X589250Y276050D02*
X642250D01*
X643750Y274550*
X655250*
X656250Y273550*
X596250Y359550D02*
X589750D01*
X596750Y739550D02*
X602750D01*
X598750Y174050D02*
Y168550D01*
X592750Y162550*
X598750Y183050D02*
X604750D01*
X598750Y199050D02*
X608250D01*
X613750*
X616250Y196550*
Y196850*
X611250Y570550D02*
X616750D01*
X625750Y561550*
X629250*
X613750Y381550D02*
Y383550D01*
X619750*
X616250Y173550D02*
X612750D01*
X616250Y183550D02*
Y186050D01*
X624250Y194050*
Y206050*
X620250Y210050*
X616250Y210250*
Y229050*
Y238050D02*
X619750D01*
Y130050D02*
Y123550D01*
X623750Y600550D02*
X629250D01*
X624750Y123550D02*
Y130050D01*
Y148550D02*
Y157550D01*
X631250Y415550D02*
X625250D01*
X633250Y54550D02*
Y60050D01*
X639750Y123550D02*
Y119550D01*
X640250Y119050*
Y114550*
X644750Y123550D02*
Y119050D01*
X649250Y114550*
X654750*
X645750Y183050D02*
X651250D01*
X646250Y281050D02*
X640250D01*
X646750Y600550D02*
X623750D01*
X651250Y256050D02*
Y247050D01*
Y281050D02*
Y290050D01*
X656250Y256050D02*
Y262550D01*
X658250Y626050D02*
Y624550D01*
X661250Y206050D02*
Y197050D01*
X666250Y50550D02*
X674250D01*
X666250Y256050D02*
Y262550D01*
X671250Y206050D02*
Y213550D01*
Y256050D02*
Y262550D01*
X674250Y35550D02*
X666250D01*
X675750Y142550D02*
X667250Y134050D01*
X638750*
X632250Y140550*
Y154550*
X625750Y161050*
X607250*
X604750Y158550*
Y146050*
X601750Y143050*
X599250*
X676250Y224050D02*
Y231050D01*
Y256050D02*
Y262550D01*
X681250Y206050D02*
X698750D01*
X700750Y204050*
X703750*
X681250Y213050D02*
Y206050D01*
Y240050D02*
X676250Y235050D01*
Y231050*
X684750Y153550D02*
X689250D01*
Y143550D02*
X702750D01*
X704250Y145050*
X691250Y273550D02*
X691750D01*
X693750Y275550*
Y279550*
X695250Y281050*
X703250*
X712750Y271550*
X722250*
X726250Y275550*
Y281050*
X691250Y277550D02*
Y287550D01*
X698750Y295050*
X705750Y721050D02*
Y718050D01*
X706250*
Y716047*
Y415550D02*
Y410047D01*
Y736047D02*
Y741050D01*
Y756047D02*
Y761050D01*
X716250Y281050D02*
Y274550D01*
X721250Y281050D02*
Y274550D01*
X726250Y231050D02*
Y237550D01*
X723750*
X726750Y905050D02*
X731750Y900050D01*
X739750*
X735750Y214050D02*
X733750Y212050D01*
Y198050*
X736250Y143550D02*
Y148050D01*
Y231050D02*
Y239550D01*
X741250Y206050D02*
Y211550D01*
X744750Y215050*
X758750*
X741250Y281050D02*
Y285550D01*
X745250Y289550*
X754750*
X761250Y283050*
X781250*
X784750Y279550*
X742750Y224550D02*
X741250Y226050D01*
Y231050*
X746250Y206050D02*
Y211050D01*
X747750Y212550*
X746250Y231050D02*
Y226050D01*
X747750Y224550*
X746250Y262550D02*
Y256050D01*
Y880550D02*
Y889550D01*
X751250Y281050D02*
Y276550D01*
X749250Y274550*
X735250*
X733750Y276050*
Y286050*
X732250Y287550*
X718250*
X716250Y285550*
Y281050*
X754250Y113050D02*
Y122550D01*
Y132550D02*
X761250Y139550D01*
Y154550*
X766750Y160050*
X754750Y641550D02*
Y510050D01*
X758750Y213550D02*
Y215050D01*
X766750*
X768750Y213050*
X763250Y53050D02*
X769250D01*
X766750Y150050D02*
X762750Y146050D01*
Y136050*
X751250Y124550*
X747750*
X746750Y123550*
X768750Y226550D02*
X764750D01*
X758750Y220550*
X738250*
X733750Y225050*
Y236050*
X732250Y237550*
X723750*
X768750Y235550D02*
X766250D01*
X752750Y222050*
X740750*
X738250Y224550*
X769250Y34550D02*
X763250D01*
X774750Y174550D02*
X744750D01*
X743750Y173550*
Y155050*
X746250Y152550*
Y143550*
D02*
D14*
X58750Y316050D03*
Y326050D03*
X68750Y316050D03*
Y326050D03*
X78750Y316050D03*
Y326050D03*
X88750Y316050D03*
Y326050D03*
X91250Y208550D03*
Y213550D03*
Y243550D03*
Y248550D03*
Y263550D03*
Y268550D03*
Y298550D03*
Y303550D03*
X96750Y619050D03*
X98750Y316050D03*
Y326050D03*
X108750Y316050D03*
Y326050D03*
X116750Y619050D03*
X118750Y316050D03*
Y326050D03*
X128750Y316050D03*
Y326050D03*
X138750Y316050D03*
Y326050D03*
X148750Y316050D03*
Y326050D03*
X158750Y316050D03*
Y326050D03*
X168750Y316050D03*
Y326050D03*
X178750Y316050D03*
Y326050D03*
X188750Y316050D03*
Y326050D03*
X198750Y316050D03*
Y326050D03*
X208750Y316050D03*
Y326050D03*
X218750Y316050D03*
Y326050D03*
X228750Y316050D03*
Y326050D03*
X233750Y81050D03*
X238750D03*
Y316050D03*
Y326050D03*
X248750Y316050D03*
Y326050D03*
X258750Y316050D03*
Y326050D03*
X268750Y81050D03*
Y316050D03*
Y326050D03*
X273750Y81050D03*
X278750Y316050D03*
Y326050D03*
X288750Y316050D03*
Y326050D03*
X298750Y316050D03*
Y326050D03*
X338750Y81050D03*
X343750D03*
X373750D03*
X378750D03*
X413750Y103550D03*
Y108550D03*
Y138550D03*
Y143550D03*
X526750Y478550D03*
X528750Y316050D03*
Y326050D03*
X529250Y373550D03*
X538750Y316050D03*
Y326050D03*
X540750Y542550D03*
X541750Y621550D03*
X546750Y478550D03*
X548750Y316050D03*
Y326050D03*
X549250Y373550D03*
X558750Y316050D03*
Y326050D03*
X560750Y542550D03*
X561750Y621550D03*
X568750Y316050D03*
Y326050D03*
X578750Y316050D03*
Y326050D03*
X588750Y316050D03*
Y326050D03*
X598750Y316050D03*
Y326050D03*
X608750Y316050D03*
Y326050D03*
X618750Y316050D03*
Y326050D03*
X628750Y316050D03*
Y326050D03*
X638750Y316050D03*
Y326050D03*
X648750Y316050D03*
Y326050D03*
X658750Y316050D03*
Y326050D03*
X668750Y316050D03*
Y326050D03*
X678750Y316050D03*
Y326050D03*
X688750Y316050D03*
Y326050D03*
X698750Y316050D03*
Y326050D03*
X708750Y316050D03*
Y326050D03*
X718750Y316050D03*
Y326050D03*
X728750Y316050D03*
Y326050D03*
X738750Y316050D03*
Y326050D03*
X748750Y316050D03*
Y326050D03*
X758750Y316050D03*
Y326050D03*
X763750Y871050D03*
Y881050D03*
Y891050D03*
X766750Y140050D03*
Y150050D03*
Y160050D03*
Y170050D03*
X768750Y316050D03*
Y326050D03*
D02*
D24*
X26250Y237550D02*
Y160050D01*
Y581550D02*
Y237550D01*
X27250Y645050D02*
X26250Y644050D01*
Y581550*
X36750Y654550D02*
X27250Y645050D01*
X49250Y808050D02*
X54250Y813050D01*
Y829050*
X63250Y838050*
X76250Y857550D02*
X53750D01*
X41750Y845550*
Y825050*
X85750Y795550D02*
X82750Y798550D01*
Y820550*
X154750Y931050D02*
X157750Y934050D01*
X433250*
Y934550*
X195750Y873550D02*
X191750Y869550D01*
X169750*
X433250Y934550D02*
X655750D01*
X661750Y928550*
X744250Y905050D02*
X771750D01*
X802250Y874550*
Y624550*
Y184550D02*
Y304550D01*
Y333550D02*
Y304550D01*
Y503550D02*
Y333550D01*
Y624550D02*
Y503550D01*
D02*
D27*
X26250Y160050D02*
X28750D01*
X26250Y581550D02*
X28750D01*
X26250*
X32750Y672550D02*
Y687050D01*
Y692050*
X29750Y695050*
Y710550*
X36750Y662550D02*
Y654550D01*
X41750Y808050D02*
X49250D01*
X58750Y160050D02*
X95750Y123050D01*
X113750*
X63250Y838050D02*
Y848050D01*
X63750Y873050D02*
X77750D01*
X63750Y882050D02*
X77750D01*
Y873050D02*
X79750D01*
X86750Y880050*
X77750Y882050D02*
X63750D01*
Y898050*
X75250Y909550*
X82750Y820550D02*
X92750D01*
X97250Y816050*
X106750*
X83750Y590550D02*
Y581819D01*
X84019Y581550*
X83750Y599550D02*
X90750D01*
X83750Y923550D02*
Y918050D01*
X75250Y909550*
X83750Y938550D02*
Y923550D01*
Y938550D02*
X117750D01*
X84019Y581550D02*
X101250D01*
X84019D02*
X74250D01*
X86750Y880050D02*
Y899050D01*
X89750Y923050D02*
Y917550D01*
X86750Y914550*
X94750Y923050D02*
Y914050D01*
X98750Y316050D02*
X114750Y300050D01*
X98750Y326050D02*
Y316050D01*
X101250Y592550D02*
X95250D01*
X93250Y590550*
X83750*
X104250Y865050D02*
X101750D01*
X86750Y880050*
X104250Y873050D02*
Y865050D01*
X106250Y413550D02*
Y418550D01*
X111750Y424050*
X143547*
X106250Y438550D02*
Y434050D01*
X112250Y428050*
X143750*
X106750Y923050D02*
Y912050D01*
X108750Y316050D02*
X118750Y306050D01*
X108750Y326050D02*
Y316050D01*
X111750Y923050D02*
Y928050D01*
X109250Y930550*
X92250*
X89750Y928050*
Y923050*
X113750Y129050D02*
Y123050D01*
Y138050D02*
X121250D01*
X113750Y255550D02*
X120250D01*
X117750Y871550D02*
X121250D01*
X117750Y938550D02*
Y923550D01*
X124990Y871550D02*
Y867290D01*
X122750Y865050*
X104250*
X130750Y817550D02*
X136750D01*
X131250Y567550D02*
X138250D01*
X143547Y424050D02*
X191104D01*
X143750Y123050D02*
X113750D01*
X143750Y406550D02*
X136750D01*
X143750Y415550D02*
Y423847D01*
X143547Y424050*
X143750Y428050D02*
X191544D01*
X143750Y436550D02*
Y428050D01*
Y445550D02*
X136750D01*
X146250Y106050D02*
Y109550D01*
X149750Y113050*
X211750*
X146250Y228550D02*
Y235550D01*
X149250Y238550*
X198750*
X206250Y231050*
Y230550*
X146250Y253550D02*
Y248050D01*
X151250Y243050*
X201250*
X206250Y248050*
X150250Y859050D02*
X151750Y860550D01*
X152750*
X166250Y560550D02*
X173250D01*
X166250Y599550D02*
X173250D01*
X191250Y413550D02*
Y423904D01*
X191104Y424050*
X191250Y438550D02*
Y428344D01*
X191544Y428050*
X198750Y567550D02*
Y574550D01*
X226250*
X233750Y582050*
X261250*
X198750Y574550D02*
X171250D01*
X166250Y569550*
X198750Y585550D02*
X171250D01*
X166250Y590550*
X198750Y585550D02*
Y592550D01*
X202250Y422050D02*
Y424050D01*
X191104*
X203750Y864550D02*
X198750D01*
X192250Y858050*
X181250*
X206250Y221550D02*
X213250D01*
X206250Y230550D02*
X217750D01*
X233750Y214550*
Y162050*
X206250Y230550D02*
X206750D01*
X211750Y235550*
X249250*
X249750Y235050*
X251250Y233550*
X206250Y257050D02*
X213250D01*
X208250Y420050D02*
X208750Y420550D01*
X227250*
X232250Y415550*
X208250Y428050D02*
X191544D01*
X208250Y430050D02*
Y428050D01*
X211750Y112050D02*
Y113050D01*
X216250*
X218750Y110550*
X211750Y127550D02*
Y140550D01*
X224250Y153050*
X233750*
X214250Y581550D02*
X101250D01*
X218250Y245550D02*
X252250D01*
X218250D02*
X228750D01*
Y247550*
X218250Y245550D02*
X209250D01*
X206750Y248050*
X206250*
X218750Y101550D02*
X225250D01*
X218750Y123550D02*
X148750D01*
X146250Y126050*
Y131050*
X218750Y129050D02*
Y123550D01*
Y138050D02*
X225750D01*
X224750Y582050D02*
X220750D01*
X217250Y585550*
X198750*
X225750Y589050D02*
Y591550D01*
X239750Y605550*
X258750*
X266250Y598050*
Y592550*
X228750Y230550D02*
Y225550D01*
X239250Y215050*
Y162050*
X232250Y406550D02*
X238750D01*
X232250Y436550D02*
X230250Y434550D01*
X204250*
X202250Y432550*
X232250Y445550D02*
X238250D01*
X234250Y782550D02*
Y786550D01*
X151750*
Y790050*
X239250Y153050D02*
Y150050D01*
X230750Y141550*
Y136050*
X223750Y129050*
X218750*
X241250Y718050D02*
X237750D01*
X234250Y721550*
Y751550*
X251250Y106050D02*
Y110550D01*
X248750Y113050*
X221750*
X219250Y110550*
X218750*
X251250Y131050D02*
Y136050D01*
X259250Y144050*
X273750*
X292750Y125050*
X318250*
X326750Y116550*
Y110550*
X326250*
X251250Y131050D02*
Y126050D01*
X248750Y123550*
X218750*
X251250Y228550D02*
Y233550D01*
Y253550D02*
Y246550D01*
X252250Y245550*
X254250Y243550*
X289750*
X291250Y245050*
X261250Y567550D02*
Y578050D01*
X236250*
X234250Y576050*
X261250Y578050D02*
X299030D01*
X261250Y582050D02*
X298750D01*
X261250Y592550D02*
Y582050D01*
X263750Y413550D02*
Y418550D01*
X261750Y420550*
X237250*
X232250Y415550*
X263750Y438550D02*
Y433550D01*
X261750Y431550*
X237750*
X232750Y436550*
X232250*
X275250Y727050D02*
Y767050D01*
X291750Y422050D02*
X289750Y424050D01*
X202250*
X291750Y428050D02*
X208250D01*
X297750Y255050D02*
Y242050D01*
X294250Y238550*
X254750*
X251250Y235050*
Y233550*
X298750Y560550D02*
X305750D01*
X298750Y569550D02*
Y577770D01*
X299030Y578050*
X298750Y582050D02*
X380250D01*
X382250Y584050*
X298750Y590550D02*
Y582050D01*
Y599550D02*
X305750D01*
X299030Y578050D02*
X382250D01*
X300250Y687550D02*
Y693050D01*
X299750*
X297750Y695050*
X287750*
X282750Y690050*
Y666050*
X280750Y664050*
X255250*
X245750Y673550*
X241250*
X300250Y712550D02*
Y720050D01*
X307250Y727050*
X334250*
X319750Y245050D02*
Y239550D01*
X326250Y233050*
Y101550D02*
X333250D01*
X326250Y129050D02*
X294250D01*
X274250Y149050*
X250250*
X326250Y138050D02*
X328750D01*
X333250Y142550*
X326250Y224050D02*
X333250D01*
X326250Y260550D02*
X331250D01*
X333250Y258550*
X334250Y695550D02*
X346750D01*
X370250Y719050*
X334250Y704550D02*
X341250D01*
X334250Y718050D02*
X341250D01*
X334250Y727050D02*
X341250D01*
Y771050D02*
X344000Y773800D01*
X349250*
X358750Y106050D02*
Y112050D01*
X355250Y115550*
X343750*
X338250Y110050*
X326250*
Y110550*
X358750Y131050D02*
Y124550D01*
X355250Y121050*
X331250*
X326250Y126050*
Y129050*
X358750Y228550D02*
Y237550D01*
X386750*
X401250Y252050*
Y270550*
X358750Y237550D02*
X330750D01*
X326250Y233050*
X358750Y242550D02*
X382250D01*
X393750Y254050*
Y263050*
X358750Y242550D02*
X335250D01*
X326250Y251550*
X358750Y253550D02*
Y242550D01*
X379250Y300050D02*
X387750D01*
Y306050D02*
X379250D01*
X393750Y263050D02*
X396750D01*
X393750D02*
Y267050D01*
X389750Y271050*
X326250*
X397250Y702550D02*
X394750D01*
X390750Y698550*
X398750Y428550D02*
X402750D01*
Y471050*
X406750*
X398750Y585050D02*
X402750D01*
Y584050*
X406250*
X401250Y270550D02*
X405250D01*
X428010Y848553D02*
Y848790D01*
X425250Y851550*
Y874050*
X433250Y882050*
X432750Y260550D02*
X440250D01*
X469250Y231550*
Y167550*
X483250Y153550*
X536250*
X577250Y112550*
X432750Y260550D02*
X431250D01*
Y263050*
X429250*
X432750Y266050D02*
X474250D01*
X435490Y848553D02*
X440747D01*
X442750Y846550*
X448750*
X440250Y466550D02*
X432750D01*
X440250D02*
X436750D01*
Y383050*
X432750*
X440250Y578050D02*
X436750D01*
Y579050*
X432750*
X441250Y270550D02*
X442250Y271550D01*
X477750*
X443750Y471050D02*
X445750D01*
X450250Y466550*
X456278*
X448750Y855550D02*
X455250D01*
X453750Y261550D02*
Y260550D01*
X479750Y234550*
Y170550*
X486750Y163550*
X560250*
X563250Y166550*
Y169050*
X456211Y577050D02*
X441250D01*
X440250Y578050*
X456250Y444050D02*
X449250D01*
X456250Y453050D02*
Y459376D01*
X456424Y459550*
X456250Y474050D02*
Y466578D01*
X456278Y466550*
X456250Y483050D02*
X463750D01*
X456250Y495550D02*
X462750D01*
X456250Y561550D02*
X463750D01*
X456250Y570550D02*
Y577011D01*
X456211Y577050*
X456250Y591550D02*
Y584161D01*
X456361Y584050*
X456250Y600550D02*
X463750D01*
X456250Y616550D02*
X480750D01*
X493750Y603550*
X456250Y625550D02*
X463750D01*
X456278Y466550D02*
X488750D01*
X456361Y584050D02*
X443750D01*
X456424Y459550D02*
X439750D01*
X432750Y466550*
X465750Y261550D02*
Y261050D01*
X488250Y238550*
Y231550*
X502250Y217550*
X505250*
X465750Y271550D02*
X477750D01*
X465750Y835050D02*
X460250D01*
X448750Y846550*
X477750Y271550D02*
X585750D01*
X488250Y693050D02*
Y702493D01*
X488307Y702550*
X488250Y718050D02*
Y707438D01*
X488638Y707050*
X488307Y702550D02*
X434250D01*
X488638Y707050D02*
X543250D01*
X549750Y713550*
X550250*
X488638Y707050D02*
X418832D01*
X417416Y705634*
X488750Y431050D02*
X478250D01*
X456250Y453050*
X488750Y451050D02*
Y461550D01*
X458250*
X456250Y459550*
X456424*
X488750Y461550D02*
X510750D01*
X514250Y458050*
Y452050*
X537250Y429050*
X578750*
X488750Y476050D02*
Y466550D01*
Y568550D02*
Y577050D01*
X456211*
X488750D02*
X489750D01*
X490750Y578050*
X539250*
X540250Y577050*
X541250*
X488750Y584050D02*
X456361D01*
X488750Y593550D02*
Y584050D01*
X489250Y395550D02*
Y412050D01*
X488750Y412550*
X493750Y503550D02*
X456250D01*
Y504550*
X493750Y593550D02*
Y603550D01*
X494250Y431050D02*
Y429550D01*
X489250Y424550*
Y420550*
X497500Y195800D02*
X497750Y195550D01*
X504250*
X508750Y200050*
Y206050*
X497500Y195800D02*
X497000D01*
X483750Y209050*
Y237050*
X459750Y261050*
Y261550*
X510750Y795050D02*
X517750D01*
X518250Y794550*
X515750Y444550D02*
X535750Y424550D01*
X575250*
X578750Y421050*
X515750Y466550D02*
X488750D01*
X523750Y206050D02*
Y217550D01*
X505250*
X523750D02*
X546750D01*
X556250Y208050*
X523750Y231050D02*
Y236550D01*
X516250Y244050*
X498250*
X483250Y259050*
X478250*
X474250Y263050*
Y266050*
X523750Y231050D02*
Y236550D01*
X527250Y240050*
X545250*
X556250Y229050*
X541250Y584050D02*
X557750D01*
X558750Y583050*
X578750*
X547250Y590050D02*
X539750D01*
X533750Y584050*
X488750*
X550250Y688550D02*
X557250D01*
X550250Y697550D02*
X545250Y702550D01*
X488307*
X550250Y722550D02*
X557250D01*
X556250Y199050D02*
X563250D01*
X556250Y238050D02*
X563250D01*
Y169050D02*
Y186050D01*
X559250Y190050*
X554750*
X538750Y206050*
X578750Y413550D02*
Y421050D01*
X605250*
X610750Y415550*
X611250*
X578750Y429050D02*
X603750D01*
X611250Y436550*
X578750Y438550D02*
Y429050D01*
Y568550D02*
Y577050D01*
X547250*
X578750D02*
X604750D01*
X611250Y570550*
X578750Y583050D02*
X592250D01*
X594750Y585550*
X578750Y593550D02*
Y583050D01*
X582750Y693050D02*
Y698550D01*
X578250Y703050*
X555250*
X550250Y698050*
Y697550*
X582750Y718050D02*
Y712550D01*
X577250Y707050*
X555750*
X550250Y712550*
Y713550*
X593250Y256050D02*
Y194550D01*
X596750Y191050*
X607750*
X611750Y187050*
Y181050*
X614250Y178550*
X622750*
X627250Y183050*
Y185550*
X593750Y271550D02*
X595750Y273550D01*
X639750*
X641750Y271550*
X651250*
X653250Y269550*
X661644*
X593750Y271550D02*
X593250D01*
X593750D02*
X585750D01*
X594750Y585550D02*
X600750Y591550D01*
X611250*
X599250Y112550D02*
Y119050D01*
Y128050D02*
X606250D01*
X602750Y281550D02*
X589250D01*
X585750Y278050*
Y271550*
X602750Y291550D02*
X616250D01*
X611250Y406550D02*
X604250D01*
X611250Y445550D02*
X604250D01*
X611250Y561550D02*
X618250D01*
X611250Y600550D02*
X618250D01*
X616250Y282550D02*
X623750D01*
X616250Y291550D02*
Y293550D01*
X623750*
X629750*
X631750Y295550*
X657250*
X666250Y286550*
Y281050*
X627250Y185550D02*
Y205050D01*
X630250Y208050*
X633750*
Y199050D02*
X640750D01*
X633750Y229050D02*
X638250D01*
X645750Y236550*
Y240050*
X633750Y238050D02*
X640250D01*
X634750Y123550D02*
Y114550D01*
X631750Y111550*
X610250*
X602750Y119050*
X599250*
X634750Y148550D02*
Y163550D01*
X627250Y171050*
Y185550*
X634750Y148550D02*
Y141050D01*
X639250Y136550*
X666250*
X668750Y139050*
Y145050*
X640750Y267550D02*
X650250D01*
X651750Y266050*
X661250*
X640750Y267550D02*
X637750Y270550D01*
X599250*
X596250Y267550*
X475750*
X474250Y266050*
X645750Y240050D02*
X644750D01*
X640750Y244050*
Y267550*
X658250Y624550D02*
X629750D01*
X616250Y638050*
X512250*
X493750Y619550*
Y603550*
X661250Y256050D02*
Y266050D01*
Y281050D02*
Y269944D01*
X661644Y269550*
X662750Y503550D02*
X493750D01*
X666250Y206050D02*
Y211550D01*
X663750Y214050*
X639750*
X633750Y208050*
X666250Y231050D02*
Y236050D01*
X662250Y240050*
X645750*
X668750Y154050D02*
X675750D01*
X698250Y624550D02*
X658250D01*
X698750Y251550D02*
X692250D01*
X698750Y260550D02*
Y266050D01*
X661250*
X698750D02*
X727250D01*
X731250Y262050*
Y256050*
X698750Y269550D02*
X661644D01*
X698750Y276550D02*
Y269550D01*
Y285550D02*
X706250D01*
X704250Y174050D02*
X711250D01*
X716250Y183050D02*
X704250D01*
X721250Y168550D02*
Y184550D01*
X718750*
Y183050*
X716250*
X721250Y231050D02*
X716250Y226050D01*
Y183050*
X731250Y281050D02*
Y275550D01*
X725250Y269550*
X698750*
X736250Y281050D02*
Y286550D01*
X741750Y292050*
X770750*
X776750Y298050*
X781750*
X736750Y888550D02*
Y895050D01*
Y905050D02*
X744250D01*
X751250Y143550D02*
X757750D01*
X751250Y206050D02*
X758250D01*
X757750Y333550D02*
X636750D01*
X629250Y326050*
X628750*
X775750Y184550D02*
X721250D01*
X781750Y289050D02*
X775250D01*
X784250Y304550D02*
X781750Y302050D01*
Y298050*
X799750Y304550D02*
X802250D01*
X799750Y333550D02*
X802250D01*
X799750Y624550D02*
X802250D01*
Y503550D02*
X799750D01*
D02*
D28*
X29750Y719550D02*
Y847050D01*
X48250Y865550*
X93250*
X99750Y859050*
X150250*
X41750Y778050D02*
X49250D01*
X41750Y825050D02*
Y818050D01*
X48250Y735050D02*
X51750D01*
X61750Y745050*
X65750*
X49250Y778050D02*
X57250Y770050D01*
X62750*
X63250Y795550D02*
Y792050D01*
X49250Y778050*
X65750Y745050D02*
X54750D01*
X41750Y758050*
Y768050*
X65750Y820550D02*
Y815550D01*
X41750Y791550*
Y788050*
X85750Y848050D02*
X86250D01*
X76250Y857550*
X85750Y848050D02*
X87250D01*
X91750Y852550*
X106750*
X86750Y914550D02*
Y899050D01*
X94750Y914050D02*
X96750Y912050D01*
X106750*
Y767550D02*
Y751836D01*
Y751550*
Y776550D02*
X103750Y779550D01*
X77750*
X74250Y776050*
Y761550*
X65750Y753050*
Y745050*
X106750Y801550D02*
X111750D01*
X114750Y804550*
Y819550*
X122750Y827550*
X126750*
X106750Y825050D02*
Y843550D01*
Y825050D02*
X96750D01*
X90250Y831550*
X72250*
X65750Y825050*
Y820550*
X106750Y912050D02*
X110750D01*
X113000Y909800*
X114750Y908050*
Y899050*
Y874550*
X117750Y871550*
X115750Y912550D02*
X113000Y909800D01*
X117250Y851050D02*
X115750Y852550D01*
X106750*
X118250Y732550D02*
X122750D01*
X123250Y891050D02*
X131250D01*
X127750Y924550D02*
X115750Y912550D01*
X135250Y722550D02*
X126750D01*
X179750Y895050D02*
Y882050D01*
X181250Y880550*
X203750Y873550D02*
X208250D01*
X213250Y868550*
X203750Y873550D02*
X195750D01*
X626750Y895050D02*
Y905050D01*
X669250Y879850D02*
Y879550D01*
X668250Y880550*
X639250*
X626750Y893050*
Y895050*
X669250Y893250D02*
Y933550D01*
D02*
D29*
X28750Y160050D03*
Y236550D03*
Y581550D03*
X58750Y160050D03*
Y236550D03*
X74250Y581550D03*
X90750Y599550D03*
X120250Y255550D03*
X121250Y138050D03*
X136750Y406550D03*
Y445550D03*
X138250Y567550D03*
X173250Y560550D03*
Y599550D03*
X202250Y422050D03*
Y432550D03*
X208250Y420050D03*
Y430050D03*
X211750Y112050D03*
Y127550D03*
X213250Y221550D03*
Y257050D03*
X214250Y581550D03*
X224750Y582050D03*
X225250Y101550D03*
X225750Y138050D03*
Y589050D03*
X228750Y230550D03*
Y247550D03*
X233750Y153050D03*
Y162050D03*
X234250Y576050D03*
Y751550D03*
Y782550D03*
X238250Y445550D03*
X238750Y406550D03*
X239250Y153050D03*
Y162050D03*
X250250Y149050D03*
X291250Y245050D03*
X291750Y422050D03*
Y428050D03*
X297750Y255050D03*
X305750Y560550D03*
Y599550D03*
X319750Y245050D03*
X326250Y271050D03*
X333250Y101550D03*
Y142550D03*
Y224050D03*
Y258550D03*
X341250Y704550D03*
Y718050D03*
Y727050D03*
Y771050D03*
X382250Y578050D03*
Y584050D03*
X387750Y300050D03*
Y306050D03*
X396750Y263050D03*
X397250Y702550D03*
X405250Y270550D03*
X406250Y584050D03*
X406750Y471050D03*
X429250Y263050D03*
X433250Y882050D03*
Y932050D03*
X434250Y702550D03*
X440250Y466550D03*
Y578050D03*
X441250Y270550D03*
X443750Y471050D03*
Y584050D03*
X449250Y444050D03*
X453750Y261550D03*
X455250Y855550D03*
X459750Y261550D03*
X462750Y495550D03*
X463750Y483050D03*
Y561550D03*
Y600550D03*
Y625550D03*
X465750Y261550D03*
Y271550D03*
X471750Y372550D03*
X488750Y412550D03*
Y431050D03*
X494250D03*
X515750Y444550D03*
Y466550D03*
X518250Y794550D03*
X541250Y577050D03*
Y584050D03*
X547250Y577050D03*
Y590050D03*
X557250Y688550D03*
Y722550D03*
X563250Y199050D03*
Y238050D03*
X577250Y112550D03*
X593250Y256050D03*
Y271550D03*
X599250Y112550D03*
X604250Y406550D03*
Y445550D03*
X606250Y128050D03*
X618250Y561550D03*
Y600550D03*
X623750Y282550D03*
Y293550D03*
X640250Y238050D03*
X640750Y199050D03*
X662750Y503550D03*
X675750Y154050D03*
X692250Y251550D03*
X698250Y624550D03*
X706250Y285550D03*
X711250Y174050D03*
X757750Y143550D03*
Y333550D03*
X758250Y206050D03*
X775250Y289050D03*
X775750Y184550D03*
X784250Y304550D03*
X799750D03*
Y333550D03*
Y503550D03*
Y624550D03*
X802250Y184550D03*
D02*
D72*
X37750Y719550D03*
X40750Y577050D03*
X44250Y231550D03*
X48750Y612550D03*
X54250Y625050D03*
X55750Y593050D03*
X58250Y231550D03*
Y630050D03*
X59250Y896050D03*
Y900050D03*
X60750Y612550D03*
X63750Y309550D03*
Y334550D03*
X64250Y603550D03*
X65250Y625050D03*
Y630050D03*
X68250Y600550D03*
X71250Y597550D03*
Y634050D03*
X74750Y637550D03*
X82250Y379050D03*
X90750Y438550D03*
X91750Y530550D03*
Y548550D03*
X92750Y858050D03*
X98750Y346550D03*
Y916050D03*
X101250Y577050D03*
X101750Y270550D03*
X102750Y916050D03*
X109750Y882050D03*
X115750Y842550D03*
Y869050D03*
X117250Y270550D03*
X118750Y295550D03*
X120250Y126550D03*
X123750Y292550D03*
X124750Y601550D03*
Y650550D03*
Y878050D03*
X125250Y102050D03*
Y106050D03*
Y110050D03*
Y114050D03*
Y131050D03*
X126250Y578050D03*
Y585050D03*
X127750Y606050D03*
Y647550D03*
Y772050D03*
X128750Y292550D03*
X131250Y238050D03*
Y247050D03*
X133250Y282550D03*
X133750Y871550D03*
X136250Y215050D03*
Y247050D03*
X136750Y842550D03*
Y863050D03*
X137250Y575550D03*
Y585050D03*
X138750Y294550D03*
X141250Y140050D03*
Y238050D03*
Y264050D03*
X143750Y282550D03*
X145750Y892550D03*
X148750Y291550D03*
X151250Y97050D03*
Y235050D03*
X152750Y756550D03*
Y800050D03*
X153250Y246550D03*
X153750Y282550D03*
X156250Y97050D03*
Y140050D03*
Y235050D03*
Y262550D03*
X156750Y118550D03*
Y750550D03*
Y800050D03*
X161250Y118550D03*
Y140050D03*
Y211550D03*
Y262550D03*
X166250Y140050D03*
Y150050D03*
X169250Y87550D03*
X172250Y109550D03*
Y127050D03*
Y232050D03*
Y249050D03*
Y622050D03*
Y634050D03*
X174750Y618550D03*
Y653550D03*
X175250Y538050D03*
X176250Y419550D03*
Y432550D03*
Y438550D03*
X180750Y558550D03*
X188750D03*
X193750Y607050D03*
X201750Y413550D03*
X207750Y379050D03*
X208250Y141550D03*
X208750Y553550D03*
Y601550D03*
X212250Y523050D03*
Y535050D03*
X219750Y570550D03*
X223250Y871050D03*
X225250Y242550D03*
Y251050D03*
X225750Y556050D03*
X226750Y215550D03*
X228750Y559550D03*
X229250Y553550D03*
Y871050D03*
X229750Y93550D03*
Y106050D03*
X230250Y20050D03*
Y34550D03*
Y127050D03*
Y213050D03*
Y253550D03*
X232750Y96550D03*
X237250Y379050D03*
X238750Y96550D03*
X241250Y140050D03*
X242250Y435550D03*
Y440050D03*
X242750Y216050D03*
X246250Y262050D03*
Y308050D03*
X247250Y727050D03*
X247750Y162050D03*
Y213050D03*
X248250Y551050D03*
X248750Y239550D03*
X249250Y677550D03*
X249750Y140550D03*
X251250Y574050D03*
Y601550D03*
X251750Y154050D03*
Y162050D03*
X252750Y219050D03*
X255750Y162050D03*
X256181Y247050D03*
X256250Y112550D03*
Y235050D03*
Y586050D03*
X257250Y216050D03*
X258750Y404550D03*
X261250Y140550D03*
Y235050D03*
Y247050D03*
Y558550D03*
X264250Y447550D03*
X266250Y87550D03*
Y97050D03*
Y558550D03*
X268750Y404550D03*
X269750Y529050D03*
X271250Y140050D03*
Y165050D03*
Y601550D03*
Y608050D03*
X272750Y526050D03*
X274750Y551050D03*
X275250Y824050D03*
Y856550D03*
X275750Y574550D03*
X276250Y585550D03*
X277250Y233550D03*
Y247050D03*
X277750Y379050D03*
Y526050D03*
X278750Y667550D03*
X281250Y574550D03*
Y585550D03*
X283250Y704550D03*
X283750Y270550D03*
X286250Y679050D03*
X286750Y673050D03*
X289750Y818050D03*
Y835550D03*
X291750Y438550D03*
X293750Y250550D03*
X294250Y259050D03*
X295250Y670050D03*
Y678550D03*
Y705550D03*
X296750Y384050D03*
X301750Y391050D03*
X302750Y529050D03*
X306250Y387050D03*
X308750Y215550D03*
X312250Y526050D03*
X314250Y438550D03*
X315750Y523550D03*
X316750Y121550D03*
Y132550D03*
X318250Y395050D03*
Y483550D03*
Y487550D03*
X319750Y250550D03*
X321250Y275050D03*
X326250Y690050D03*
Y704550D03*
X329250Y162050D03*
X332250Y158550D03*
Y165050D03*
X332750Y818550D03*
Y838550D03*
X336750Y93550D03*
Y113550D03*
X340250Y139550D03*
X341750Y219550D03*
Y387050D03*
Y391050D03*
Y395050D03*
X345250Y384050D03*
X345750Y700050D03*
Y855550D03*
X346010Y675047D03*
X347750Y215550D03*
X348750Y139550D03*
Y483550D03*
Y487550D03*
X349250Y690550D03*
X350750Y158550D03*
X351750Y341550D03*
X353250Y219550D03*
X353750Y124550D03*
Y162050D03*
X355750Y341550D03*
X356750Y165050D03*
X357010Y650544D03*
Y670544D03*
Y675047D03*
X357750Y700050D03*
X361250Y117050D03*
Y690550D03*
Y702550D03*
X363750Y246550D03*
Y314550D03*
X364250Y650544D03*
Y670544D03*
X366750Y81050D03*
X367250Y28050D03*
Y44050D03*
X369250Y398550D03*
X370250Y702050D03*
X372250Y351550D03*
X372750Y395550D03*
Y401550D03*
Y405550D03*
Y409550D03*
X375250Y818550D03*
Y841550D03*
X378250Y341550D03*
Y347550D03*
X379750Y231550D03*
X381250Y480050D03*
X382250Y530550D03*
X382750Y617550D03*
Y625550D03*
Y629550D03*
Y633550D03*
X384250Y309550D03*
Y463050D03*
X386750Y259550D03*
Y264050D03*
X388250Y855550D03*
X388750Y476050D03*
X390250Y256550D03*
X397750Y253550D03*
X404250Y249050D03*
X405750Y818550D03*
Y846550D03*
X407250Y259550D03*
X409250Y537550D03*
X409750Y629550D03*
X411250Y331550D03*
Y533550D03*
Y625550D03*
Y740550D03*
X413750Y131550D03*
X414750Y460050D03*
X416750Y616550D03*
X417250Y343550D03*
X421750Y619550D03*
X422750Y335550D03*
Y543550D03*
Y547550D03*
X425250Y266550D03*
X428750Y254050D03*
X430750Y815550D03*
X432250Y800050D03*
X432750Y710550D03*
X433250Y249050D03*
X435250Y796050D03*
X436750Y710550D03*
X438250Y746550D03*
X439250Y255050D03*
X442750Y743550D03*
X443250Y280550D03*
Y331550D03*
Y335550D03*
Y339550D03*
Y343550D03*
Y347550D03*
Y351550D03*
Y395550D03*
Y401550D03*
Y405550D03*
Y409550D03*
Y476050D03*
Y480050D03*
Y612050D03*
Y616550D03*
Y633550D03*
X443750Y828550D03*
X444750Y261550D03*
Y526050D03*
Y533550D03*
Y537550D03*
X445750Y796050D03*
Y800050D03*
X446250Y398550D03*
X446750Y543550D03*
Y547550D03*
X448750Y463050D03*
Y698550D03*
X449250Y572050D03*
Y588050D03*
X451250Y287050D03*
Y543550D03*
X462250Y113050D03*
X464750Y458050D03*
X465250Y116050D03*
X466250Y140050D03*
X467250Y727050D03*
X467750Y573550D03*
Y587550D03*
X470750Y140050D03*
Y261550D03*
X473750Y442050D03*
Y485050D03*
X474250Y681050D03*
X478750Y580550D03*
Y602550D03*
X479750Y262550D03*
Y659550D03*
Y748550D03*
X481250Y255050D03*
X482250Y727050D03*
X483750Y485050D03*
Y602050D03*
X490750Y785550D03*
Y825050D03*
X491250Y488050D03*
X493750Y457550D03*
Y470050D03*
Y559550D03*
X494250Y386550D03*
X498250Y439050D03*
Y861550D03*
X498750Y485050D03*
Y602050D03*
X501750Y358550D03*
X502250Y199050D03*
X503750Y442050D03*
Y458050D03*
X506750Y367050D03*
X507250Y547050D03*
Y559550D03*
X508750Y240050D03*
Y277050D03*
Y458050D03*
Y485550D03*
X510750Y190550D03*
X511750Y356050D03*
X514750Y571050D03*
Y589550D03*
X515250Y619550D03*
X515750Y359050D03*
X516250Y120050D03*
X520750Y362050D03*
X522250Y699050D03*
Y716050D03*
X523750Y388050D03*
X525250Y353050D03*
X526250Y699050D03*
Y716050D03*
X527250Y797050D03*
Y830550D03*
X528250Y349550D03*
X528750Y197050D03*
X533250Y622550D03*
Y644550D03*
X535250Y560550D03*
X546250Y204050D03*
X550750Y409550D03*
X553750Y418050D03*
X554250Y400550D03*
Y470550D03*
X556750Y404050D03*
X557750Y421050D03*
Y432550D03*
X559250Y167550D03*
X560250Y17050D03*
Y34550D03*
X562750Y421050D03*
Y447550D03*
X563250Y204050D03*
X564250Y20050D03*
Y34550D03*
X565750Y880550D03*
X566750Y521050D03*
Y551550D03*
X567750Y699550D03*
X568250Y37550D03*
X569750Y524550D03*
Y544050D03*
Y883550D03*
X571250Y282550D03*
X573250Y886550D03*
X573750Y404550D03*
Y432050D03*
X575250Y586550D03*
X577750Y684050D03*
X578250Y118550D03*
X578750Y370550D03*
Y877550D03*
X580750Y160550D03*
X581250Y116050D03*
X581750Y261050D03*
Y275050D03*
Y799550D03*
Y835550D03*
X583250Y297050D03*
X583750Y404550D03*
Y432050D03*
Y559550D03*
Y602550D03*
Y606550D03*
X585750Y392550D03*
Y397550D03*
Y799550D03*
Y835550D03*
X586750Y886550D03*
X587250Y294550D03*
X589250Y259050D03*
Y276050D03*
Y404550D03*
X589750Y359550D03*
Y799550D03*
Y835550D03*
X592750Y162550D03*
X593750Y799550D03*
Y835550D03*
X594750Y105550D03*
X596750Y739550D03*
Y761050D03*
Y886050D03*
X600750Y586550D03*
X603250Y379550D03*
Y383550D03*
X604750Y183050D03*
Y187550D03*
Y208050D03*
Y367050D03*
X606750Y886050D03*
X607750Y235050D03*
Y240550D03*
X608250Y199050D03*
Y219550D03*
X612250Y158050D03*
X612750Y173550D03*
X613750Y349550D03*
X614250Y363050D03*
X616250Y158050D03*
X616750Y877550D03*
X618750Y699550D03*
X619750Y130050D03*
Y383550D03*
X621750Y353050D03*
X623750Y600550D03*
X624750Y130050D03*
Y157550D03*
Y219550D03*
X625250Y415550D03*
X628250Y23050D03*
Y32050D03*
X629250Y164050D03*
X629750Y95050D03*
Y115050D03*
X631250Y349550D03*
X633250Y60050D03*
X634250Y250050D03*
X637250Y247050D03*
X638750Y164050D03*
Y418550D03*
X639750Y130050D03*
Y175050D03*
X640250Y114550D03*
Y281050D03*
X641250Y140550D03*
X642750Y171550D03*
X645250Y225550D03*
X645750Y183050D03*
X646250Y247050D03*
X647750Y804550D03*
Y827550D03*
Y874550D03*
X649250Y337050D03*
X650750Y801550D03*
Y832050D03*
Y928550D03*
X651250Y247050D03*
Y290050D03*
X651750Y874550D03*
Y886050D03*
X653750Y341550D03*
X654750Y105550D03*
Y114550D03*
X655750Y130550D03*
X656250Y262550D03*
Y273550D03*
X656750Y922050D03*
Y926050D03*
X658250Y600550D03*
Y626050D03*
X659250Y29550D03*
Y35550D03*
Y163550D03*
Y171550D03*
X660250Y341550D03*
X661250Y197050D03*
X662250Y102050D03*
Y123550D03*
X662750Y140050D03*
Y145050D03*
X663250Y498550D03*
Y510050D03*
Y514050D03*
Y518050D03*
X665250Y341550D03*
X666250Y262550D03*
X670750Y341550D03*
X671250Y213550D03*
Y218050D03*
Y262550D03*
X674250Y29550D03*
Y50550D03*
Y552550D03*
X675750Y142550D03*
Y918050D03*
Y922050D03*
Y926050D03*
X676250Y224050D03*
Y262550D03*
Y273550D03*
Y290050D03*
Y341550D03*
X676750Y40550D03*
X677250Y89050D03*
X678750Y139550D03*
X680250Y291550D03*
X681250Y213050D03*
Y240050D03*
Y247050D03*
X681750Y161050D03*
Y341550D03*
X684750Y153550D03*
Y179050D03*
X686750Y341550D03*
X687250Y284550D03*
Y576550D03*
X687750Y167550D03*
Y203050D03*
X691250Y273550D03*
Y277550D03*
Y341550D03*
X691750Y203050D03*
Y222550D03*
X694250Y146550D03*
X695750Y139550D03*
X696250Y341550D03*
X697250Y153550D03*
Y179050D03*
X699250Y721050D03*
Y741050D03*
Y761050D03*
X704750Y223050D03*
Y227050D03*
Y231050D03*
X705250Y262550D03*
X705750Y721050D03*
X706250Y372050D03*
Y415550D03*
Y420050D03*
Y498550D03*
Y572550D03*
Y576550D03*
Y656550D03*
Y682050D03*
Y686050D03*
Y741050D03*
Y761050D03*
X710250Y258550D03*
Y656550D03*
Y682050D03*
X710750Y239550D03*
X711750Y868550D03*
Y891050D03*
X714250Y341550D03*
Y656550D03*
Y682050D03*
X716250Y274550D03*
X718750Y341550D03*
Y656550D03*
Y682050D03*
X721250Y161050D03*
Y274550D03*
Y300050D03*
X722250Y117550D03*
Y123550D03*
Y127550D03*
Y668050D03*
X722750Y218550D03*
X723750Y341550D03*
X725750Y120550D03*
X726250Y150050D03*
Y221550D03*
X728750Y341550D03*
X731750Y219050D03*
X733750Y341550D03*
X735750Y214050D03*
X736250Y239550D03*
Y262550D03*
X738250Y224550D03*
X738750Y197050D03*
Y341550D03*
X742750Y224550D03*
X743750Y341550D03*
X745750Y247050D03*
X746250Y262550D03*
Y917050D03*
X746750Y123550D03*
Y127550D03*
Y308550D03*
X747750Y212550D03*
Y224550D03*
X748750Y341550D03*
Y648550D03*
Y671050D03*
X750250Y120550D03*
X751250Y240050D03*
Y308550D03*
X751750Y645050D03*
Y667550D03*
X754750Y510050D03*
Y641550D03*
Y664050D03*
X758250Y117550D03*
X758750Y213550D03*
X760250Y247050D03*
X763250Y28050D03*
Y34550D03*
Y53050D03*
X768750Y190050D03*
X770250Y893050D03*
X771750Y193050D03*
X772750Y876050D03*
X773250Y825050D03*
Y829050D03*
X774250Y514050D03*
X774750Y174550D03*
X776250Y271550D03*
X776750Y226550D03*
X778750Y518050D03*
X779250Y275550D03*
Y279550D03*
X782750Y172050D03*
X784750Y279550D03*
X785250Y825050D03*
Y871550D03*
X789750Y275050D03*
X791750Y829050D03*
X792250Y226550D03*
Y271550D03*
X794750Y874050D03*
D02*
D73*
X61750Y931050D02*
X23250Y892550D01*
Y647550*
X25750Y645050*
X27250*
X82750Y745050D02*
X92750D01*
X99250Y751550*
X106750*
X85250Y770050D02*
Y756050D01*
X82750Y753550*
Y745050*
X85750Y795550D02*
X96250D01*
X99250Y792550*
X106750*
Y742550D02*
Y738550D01*
X112750Y732550*
X118250*
X114750Y300050D02*
X379250D01*
X118750Y306050D02*
X246250D01*
X131250Y891050D02*
X141250Y881050D01*
Y865050*
X145750Y860550*
X152750*
X148250Y931050D02*
X154750D01*
X152750Y860550D02*
X178750D01*
X181250Y858050*
X169750Y869550D02*
X161750Y877550D01*
X152750*
X379250Y306050D02*
X246250D01*
X661750Y928550D02*
Y889050D01*
X664250Y886550*
X734750*
X736750Y888550*
D02*
D74*
X39250Y735050D02*
Y753550D01*
X35750Y757050*
Y812050*
X41750Y818050*
X48750Y612550D02*
X47750Y611550D01*
Y350550*
X63750Y334550*
X54250Y625050D02*
X44250Y615050D01*
Y231550*
X55750Y593050D02*
Y375550D01*
X87750Y343550*
X158250*
X168750Y333050*
Y326050*
X58250Y630050D02*
Y621550D01*
X52250Y615550*
Y373550*
X86750Y339050*
X157250*
X163750Y332550*
Y321050*
X158750Y316050*
X58750Y236550D02*
X110250D01*
X113750Y240050*
Y241050*
X82750Y612850D02*
X82450Y612550D01*
X60750*
X113750Y246550D02*
Y241050D01*
X120750Y624050D02*
X111750D01*
X94750Y607050*
X62250*
X59750Y604550*
Y598550*
X62250Y596050*
Y379550*
X80750Y361050*
X153750*
X173750Y341050*
Y321050*
X168750Y316050*
X121270Y883550D02*
Y889070D01*
X123250Y891050*
X143750Y241050D02*
X113750D01*
X158750Y326050D02*
Y329050D01*
X153250Y334550*
X63750*
X258250Y727050D02*
Y736050D01*
X238250Y756050*
X157250*
X153250Y752050*
Y726550*
X61750Y635050*
Y619050*
X56750Y614050*
Y597050*
X59250Y594550*
Y377550*
X90250Y346550*
X98750*
X300250Y693050D02*
X305250Y698050D01*
X331750*
X334250Y695550*
X433250Y932050D02*
Y934550D01*
X659250Y29550D02*
X657750D01*
X656750Y28550*
X553750*
X547250Y22050*
X239250*
X235250Y26050*
X88750*
X37250Y77550*
Y615050*
X150250Y728050*
Y754550*
X152250Y756550*
X152750*
D02*
D75*
X136750Y817550D02*
X144750Y809550D01*
Y797050*
X151750Y790050*
X153250Y767050D02*
X142250Y756050D01*
Y729550*
X135250Y722550*
X213250Y868550D02*
Y858050D01*
X200750Y845550*
X145750*
X140250Y851050*
X117250*
X401250Y304550D02*
Y270550D01*
X669250Y933550D02*
X657250Y945550D01*
X148750*
X127750Y924550*
D02*
D76*
X151750Y790050D02*
X333750D01*
X349250Y774550*
Y773800*
X263750Y767050D02*
X153250D01*
X263750D02*
X275250D01*
X331750Y321050D03*
X349250Y773800D02*
X417416Y705634D01*
X370250Y719050D02*
X322250Y767050D01*
X275250*
X370250Y719050D02*
X390750Y698550D01*
X398750Y428550D02*
Y585050D01*
Y428550D02*
Y314550D01*
Y585050D02*
Y690550D01*
X390750Y698550*
X432750Y383050D02*
Y278550D01*
Y466550D02*
Y383050D01*
Y579050D02*
Y686050D01*
X433000*
X417416Y705634*
X432750Y579050D02*
Y466550D01*
D02*
D77*
X398750Y314550D02*
X401250Y312050D01*
Y304550*
X432750Y266050D02*
Y260550D01*
Y278550D02*
Y266050D01*
D02*
D78*
X61750Y931050D03*
X86750Y899050D03*
X96750D03*
X104750D03*
X114750D03*
X148250Y931050D03*
X179750Y895050D03*
Y905050D03*
X189750Y895050D03*
Y905050D03*
X199750Y895050D03*
Y905050D03*
X209750Y895050D03*
Y905050D03*
X219750Y895050D03*
Y905050D03*
X576750Y895050D03*
Y905050D03*
X586750Y895050D03*
Y905050D03*
X596750Y895050D03*
Y905050D03*
X606750Y895050D03*
Y905050D03*
X616750Y895050D03*
Y905050D03*
X626750Y895050D03*
Y905050D03*
X636750Y895050D03*
Y905050D03*
X646750Y895050D03*
Y905050D03*
X696750Y895050D03*
Y905050D03*
X706750Y895050D03*
Y905050D03*
X716750Y895050D03*
Y905050D03*
X726750Y895050D03*
Y905050D03*
X736750Y895050D03*
Y905050D03*
X781750Y105050D03*
Y122550D03*
D02*
D79*
X75250Y909550D03*
X126750D03*
D02*
D80*
X29750Y710550D03*
Y719550D03*
X34750Y873050D03*
Y882050D03*
X43750Y710550D03*
Y719550D03*
X48750Y873050D03*
Y882050D03*
X63750Y873050D03*
Y882050D03*
X76250Y379050D03*
Y388050D03*
X77750Y873050D03*
Y882050D03*
X83750Y590550D03*
Y599550D03*
X93750Y379050D03*
Y388050D03*
X98750Y538050D03*
Y547050D03*
X104250Y873050D03*
Y882050D03*
X106750Y742550D03*
Y751550D03*
Y767550D03*
Y776550D03*
Y792550D03*
Y801550D03*
Y816050D03*
Y825050D03*
Y843550D03*
Y852550D03*
X111250Y379050D03*
Y388050D03*
X113750Y129050D03*
Y138050D03*
Y246550D03*
Y255550D03*
X116250Y538050D03*
Y547050D03*
X120750Y767550D03*
Y776550D03*
X128750Y379050D03*
Y388050D03*
X131250Y538050D03*
Y547050D03*
Y613050D03*
Y622050D03*
X134750Y767550D03*
Y776550D03*
X143750Y406550D03*
Y415550D03*
Y436550D03*
Y445550D03*
X148750Y538050D03*
Y547050D03*
Y613050D03*
Y622050D03*
X161250Y379050D03*
Y388050D03*
X166250Y538050D03*
Y547050D03*
Y560550D03*
Y569550D03*
Y590550D03*
Y599550D03*
Y613050D03*
Y622050D03*
X178750Y379050D03*
Y388050D03*
X183750Y537550D03*
Y546550D03*
Y613050D03*
Y622050D03*
X196250Y379050D03*
Y388050D03*
X201250Y537550D03*
Y546550D03*
Y613050D03*
Y622050D03*
X203750Y864550D03*
Y873550D03*
X206250Y221550D03*
Y230550D03*
Y248050D03*
Y257050D03*
X213750Y379050D03*
Y388050D03*
X218250Y537550D03*
Y546550D03*
X218750Y101550D03*
Y110550D03*
Y129050D03*
Y138050D03*
X231250Y379050D03*
Y388050D03*
X232250Y406550D03*
Y415550D03*
Y436550D03*
Y445550D03*
X241250Y673550D03*
Y682550D03*
Y695550D03*
Y704550D03*
Y718050D03*
Y727050D03*
X248750Y379050D03*
Y388050D03*
X254250Y455550D03*
Y464550D03*
X258250Y673550D03*
Y682550D03*
Y718050D03*
Y727050D03*
X266250Y379050D03*
Y388050D03*
Y809550D03*
Y818550D03*
Y846550D03*
Y855550D03*
X274250Y455550D03*
Y464550D03*
X275250Y673550D03*
Y682550D03*
Y695550D03*
Y704550D03*
Y718050D03*
Y727050D03*
X283750Y379050D03*
Y388050D03*
Y809550D03*
Y818550D03*
Y846550D03*
Y855550D03*
X291750Y455550D03*
Y464550D03*
X298750Y560550D03*
Y569550D03*
Y590550D03*
Y599550D03*
X309250Y455550D03*
Y464550D03*
Y809550D03*
Y818550D03*
Y846550D03*
Y855550D03*
X326250Y101550D03*
Y110550D03*
Y129050D03*
Y138050D03*
Y224050D03*
Y233050D03*
Y251550D03*
Y260550D03*
X326750Y809550D03*
Y818550D03*
Y846550D03*
Y855550D03*
X334250Y695550D03*
Y704550D03*
Y718050D03*
Y727050D03*
X351750Y350050D03*
Y359050D03*
Y846550D03*
Y855550D03*
X352250Y809550D03*
Y818550D03*
X366750Y350050D03*
Y359050D03*
X369250Y809550D03*
Y818550D03*
Y846550D03*
Y855550D03*
X394250Y809550D03*
Y818550D03*
Y846550D03*
Y855550D03*
X411750Y809550D03*
Y818550D03*
Y846550D03*
Y855550D03*
X448750Y846550D03*
Y855550D03*
X453750Y659550D03*
Y668550D03*
Y739550D03*
Y748550D03*
X456250Y444050D03*
Y453050D03*
Y474050D03*
Y483050D03*
Y495550D03*
Y504550D03*
Y561550D03*
Y570550D03*
Y591550D03*
Y600550D03*
Y616550D03*
Y625550D03*
X471250Y659550D03*
Y668550D03*
Y739550D03*
Y748550D03*
X488250Y739550D03*
Y748550D03*
X488750Y174050D03*
Y183050D03*
Y659550D03*
Y668550D03*
X492250Y852550D03*
Y861550D03*
X495750Y282550D03*
Y291550D03*
X506250Y174050D03*
Y183050D03*
Y659550D03*
Y668550D03*
Y739550D03*
Y748550D03*
X509250Y282550D03*
Y291550D03*
X509750Y852550D03*
Y861550D03*
X527250Y852550D03*
Y861550D03*
X541250Y560550D03*
Y569550D03*
X543750Y381550D03*
Y390550D03*
Y461550D03*
Y470550D03*
X548750Y536550D03*
Y545550D03*
X549750Y616550D03*
Y625550D03*
X550250Y659550D03*
Y668550D03*
Y688550D03*
Y697550D03*
Y713550D03*
Y722550D03*
Y739550D03*
Y748550D03*
X556250Y174050D03*
Y183050D03*
Y199050D03*
Y208050D03*
Y229050D03*
Y238050D03*
X561250Y381550D03*
Y390550D03*
Y461550D03*
Y470550D03*
X563250Y282550D03*
Y291550D03*
X567750Y659550D03*
Y668550D03*
Y739550D03*
Y748550D03*
X576250Y174050D03*
Y183050D03*
Y199050D03*
Y208050D03*
Y229050D03*
Y238050D03*
Y536550D03*
Y545550D03*
Y616550D03*
Y625550D03*
X577250Y282550D03*
Y291550D03*
X578750Y350550D03*
Y359550D03*
Y381550D03*
Y390550D03*
Y461550D03*
Y470550D03*
X585250Y659550D03*
Y668550D03*
Y739550D03*
Y748550D03*
X593750Y536550D03*
Y545550D03*
Y616550D03*
Y625550D03*
X596250Y350550D03*
Y359550D03*
Y381550D03*
Y390550D03*
Y461550D03*
Y470550D03*
X598750Y174050D03*
Y183050D03*
Y199050D03*
Y208050D03*
Y229050D03*
Y238050D03*
X599250Y119050D03*
Y128050D03*
Y143050D03*
Y152050D03*
X602750Y659550D03*
Y668550D03*
Y739550D03*
Y748550D03*
X611250Y406550D03*
Y415550D03*
Y436550D03*
Y445550D03*
Y536550D03*
Y545550D03*
Y561550D03*
Y570550D03*
Y591550D03*
Y600550D03*
Y616550D03*
Y625550D03*
X613750Y381550D03*
Y390550D03*
Y461550D03*
Y470550D03*
X615750Y250550D03*
Y259550D03*
X616250Y229050D03*
Y238050D03*
Y282550D03*
Y291550D03*
X619250Y852550D03*
Y861550D03*
X629250Y561550D03*
Y570550D03*
Y591550D03*
Y600550D03*
X631250Y406550D03*
Y415550D03*
Y436550D03*
Y445550D03*
X633250Y45550D03*
Y54550D03*
X633750Y174050D03*
Y183050D03*
Y199050D03*
Y208050D03*
Y229050D03*
Y238050D03*
X636750Y852550D03*
Y861550D03*
X646750Y561550D03*
Y570550D03*
Y591550D03*
Y600550D03*
X651250Y174050D03*
Y183050D03*
X654250Y852550D03*
Y861550D03*
X668750Y145050D03*
Y154050D03*
X689250Y123050D03*
Y132050D03*
X698750Y251550D03*
Y260550D03*
Y276550D03*
Y285550D03*
X703750Y204050D03*
Y213050D03*
X704250Y123050D03*
Y132050D03*
Y145050D03*
Y154050D03*
Y174050D03*
Y183050D03*
X746250Y871550D03*
Y880550D03*
X768750Y204050D03*
Y213050D03*
Y226550D03*
Y235550D03*
X769250Y25550D03*
Y34550D03*
Y53050D03*
Y62050D03*
X781750Y289050D03*
Y298050D03*
D02*
D81*
X62750Y770050D03*
X63250Y795550D03*
Y848050D03*
X85250Y770050D03*
X85750Y795550D03*
Y848050D03*
D02*
D82*
X41750Y768050D03*
Y778050D03*
Y788050D03*
Y808050D03*
Y818050D03*
X86250Y46050D03*
Y153550D03*
X96250Y46050D03*
Y153550D03*
X106250Y46050D03*
Y153550D03*
X191250Y46050D03*
Y153550D03*
X201250Y46050D03*
Y153550D03*
X211250Y46050D03*
Y153550D03*
X296250Y46050D03*
Y153550D03*
X306250Y46050D03*
Y153550D03*
X316250Y46050D03*
Y153550D03*
X401250Y46050D03*
Y153550D03*
X411250Y46050D03*
Y153550D03*
X421250Y46050D03*
Y153550D03*
X491250Y37550D03*
Y109550D03*
X501250Y37550D03*
Y109550D03*
X511250Y37550D03*
Y109550D03*
X521250Y37550D03*
Y109550D03*
X531250Y37550D03*
Y109550D03*
X586250Y46050D03*
X596250D03*
X606250D03*
X693750Y37550D03*
Y109550D03*
X703750Y37550D03*
Y109550D03*
X713750Y37550D03*
Y109550D03*
X723750Y37550D03*
Y109550D03*
X733750Y37550D03*
Y109550D03*
X791750Y60050D03*
Y80050D03*
X801750Y70050D03*
D02*
D83*
X152750Y860550D03*
Y877550D03*
D02*
D84*
X181250Y858050D03*
Y880550D03*
D02*
D85*
X65750Y745050D03*
Y820550D03*
X82750Y745050D03*
Y820550D03*
D02*
D86*
X282750Y897050D03*
X342750D03*
X402750D03*
X462750D03*
X522750D03*
D02*
D87*
X282750Y880050D03*
X342750D03*
X402750D03*
X462750D03*
X522750D03*
D02*
D88*
X32750Y672550D03*
Y687050D03*
X36750Y662550D03*
Y697050D03*
X40750Y672550D03*
Y687050D03*
X122750Y732550D03*
Y747550D03*
Y802550D03*
Y817550D03*
X126750Y722550D03*
Y757550D03*
Y792550D03*
Y827550D03*
X130750Y732550D03*
Y747550D03*
Y802550D03*
Y817550D03*
X525250Y173550D03*
X529250Y183550D03*
X533250Y173550D03*
D02*
D89*
X96250Y413550D03*
Y438550D03*
X101250Y413550D03*
Y438550D03*
Y567550D03*
Y592550D03*
X106250Y413550D03*
Y438550D03*
Y567550D03*
Y592550D03*
X111250Y413550D03*
Y438550D03*
Y567550D03*
Y592550D03*
X116250Y567550D03*
Y592550D03*
X121250Y567550D03*
Y592550D03*
X126250Y567550D03*
Y592550D03*
X131250Y106050D03*
Y131050D03*
Y228550D03*
Y253550D03*
Y567550D03*
Y592550D03*
X136250Y106050D03*
Y131050D03*
Y228550D03*
Y253550D03*
X141250Y106050D03*
Y131050D03*
Y228550D03*
Y253550D03*
X146250Y106050D03*
Y131050D03*
Y228550D03*
Y253550D03*
X151250Y106050D03*
Y131050D03*
Y228550D03*
Y253550D03*
X156250Y106050D03*
Y131050D03*
Y228550D03*
Y253550D03*
X161250Y106050D03*
Y131050D03*
Y228550D03*
Y253550D03*
X166250Y106050D03*
Y131050D03*
Y228550D03*
Y253550D03*
X181250Y413550D03*
Y438550D03*
X183750Y567550D03*
Y592550D03*
X186250Y413550D03*
Y438550D03*
X188750Y567550D03*
Y592550D03*
X191250Y413550D03*
Y438550D03*
X193750Y567550D03*
Y592550D03*
X196250Y413550D03*
Y438550D03*
X198750Y567550D03*
Y592550D03*
X203750Y567550D03*
Y592550D03*
X208750Y567550D03*
Y592550D03*
X213750Y567550D03*
Y592550D03*
X236250Y106050D03*
Y131050D03*
Y228550D03*
Y253550D03*
X241250Y106050D03*
Y131050D03*
Y228550D03*
Y253550D03*
X246250Y106050D03*
Y131050D03*
Y228550D03*
Y253550D03*
Y567550D03*
Y592550D03*
X248750Y413550D03*
Y438550D03*
X251250Y106050D03*
Y131050D03*
Y228550D03*
Y253550D03*
Y567550D03*
Y592550D03*
X253750Y413550D03*
Y438550D03*
X256250Y106050D03*
Y131050D03*
Y228550D03*
Y253550D03*
Y567550D03*
Y592550D03*
X258750Y413550D03*
Y438550D03*
X261250Y106050D03*
Y131050D03*
Y228550D03*
Y253550D03*
Y567550D03*
Y592550D03*
X263750Y413550D03*
Y438550D03*
X266250Y106050D03*
Y131050D03*
Y228550D03*
Y253550D03*
Y567550D03*
Y592550D03*
X268750Y413550D03*
Y438550D03*
X271250Y106050D03*
Y131050D03*
Y228550D03*
Y253550D03*
Y567550D03*
Y592550D03*
X273750Y413550D03*
Y438550D03*
X276250Y567550D03*
Y592550D03*
X278750Y413550D03*
Y438550D03*
X281250Y567550D03*
Y592550D03*
X290250Y687550D03*
Y712550D03*
X295250Y687550D03*
Y712550D03*
X300250Y687550D03*
Y712550D03*
X305250Y687550D03*
Y712550D03*
X310250Y687550D03*
Y712550D03*
X315250Y687550D03*
Y712550D03*
X320250Y687550D03*
Y712550D03*
X343750Y106050D03*
Y131050D03*
Y228550D03*
Y253550D03*
X348750Y106050D03*
Y131050D03*
Y228550D03*
Y253550D03*
X353750Y106050D03*
Y131050D03*
Y228550D03*
Y253550D03*
X358750Y106050D03*
Y131050D03*
Y228550D03*
Y253550D03*
X363750Y106050D03*
Y131050D03*
Y228550D03*
Y253550D03*
X368750Y106050D03*
Y131050D03*
Y228550D03*
Y253550D03*
X373750Y106050D03*
Y131050D03*
Y228550D03*
Y253550D03*
X465750Y795050D03*
Y835050D03*
X470750Y795050D03*
Y835050D03*
X473250Y693050D03*
Y718050D03*
X473750Y451050D03*
Y476050D03*
Y568550D03*
Y593550D03*
X474250Y395550D03*
Y420550D03*
X475750Y795050D03*
Y835050D03*
X478250Y693050D03*
Y718050D03*
X478750Y451050D03*
Y476050D03*
Y568550D03*
Y593550D03*
X479250Y395550D03*
Y420550D03*
X480750Y795050D03*
Y835050D03*
X483250Y693050D03*
Y718050D03*
X483750Y451050D03*
Y476050D03*
Y568550D03*
Y593550D03*
X484250Y395550D03*
Y420550D03*
X485750Y795050D03*
Y835050D03*
X488250Y693050D03*
Y718050D03*
X488750Y451050D03*
Y476050D03*
Y568550D03*
Y593550D03*
X489250Y395550D03*
Y420550D03*
X490750Y795050D03*
Y835050D03*
X493250Y693050D03*
Y718050D03*
X493750Y451050D03*
Y476050D03*
Y568550D03*
Y593550D03*
X494250Y395550D03*
Y420550D03*
X495750Y795050D03*
Y835050D03*
X498250Y693050D03*
Y718050D03*
X498750Y451050D03*
Y476050D03*
Y568550D03*
Y593550D03*
X499250Y395550D03*
Y420550D03*
X500750Y795050D03*
Y835050D03*
X503250Y693050D03*
Y718050D03*
X503750Y451050D03*
Y476050D03*
Y568550D03*
Y593550D03*
X504250Y395550D03*
Y420550D03*
X505750Y795050D03*
Y835050D03*
X508750Y206050D03*
Y231050D03*
Y451050D03*
Y476050D03*
Y568550D03*
Y593550D03*
X509250Y395550D03*
Y420550D03*
X510750Y795050D03*
Y835050D03*
X513750Y206050D03*
Y231050D03*
X518750Y206050D03*
Y231050D03*
X523750Y206050D03*
Y231050D03*
X528750Y206050D03*
Y231050D03*
X533750Y206050D03*
Y231050D03*
X538750Y206050D03*
Y231050D03*
X563750Y413550D03*
Y438550D03*
Y568550D03*
Y593550D03*
X567750Y693050D03*
Y718050D03*
X568750Y413550D03*
Y438550D03*
Y568550D03*
Y593550D03*
X572750Y693050D03*
Y718050D03*
X573750Y413550D03*
Y438550D03*
Y568550D03*
Y593550D03*
X577750Y693050D03*
Y718050D03*
X578750Y413550D03*
Y438550D03*
Y568550D03*
Y593550D03*
X582750Y693050D03*
Y718050D03*
X583750Y413550D03*
Y438550D03*
Y568550D03*
Y593550D03*
X587750Y693050D03*
Y718050D03*
X588750Y413550D03*
Y438550D03*
Y568550D03*
Y593550D03*
X592750Y693050D03*
Y718050D03*
X593750Y413550D03*
Y438550D03*
Y568550D03*
Y593550D03*
X597750Y693050D03*
Y718050D03*
X619750Y123550D03*
Y148550D03*
X624750Y123550D03*
Y148550D03*
X629750Y123550D03*
Y148550D03*
X634750Y123550D03*
Y148550D03*
X639750Y123550D03*
Y148550D03*
X644750Y123550D03*
Y148550D03*
X646250Y256050D03*
Y281050D03*
X649750Y123550D03*
Y148550D03*
X651250Y206050D03*
Y231050D03*
Y256050D03*
Y281050D03*
X654750Y123550D03*
Y148550D03*
X656250Y206050D03*
Y231050D03*
Y256050D03*
Y281050D03*
X661250Y206050D03*
Y231050D03*
Y256050D03*
Y281050D03*
X666250Y206050D03*
Y231050D03*
Y256050D03*
Y281050D03*
X671250Y206050D03*
Y231050D03*
Y256050D03*
Y281050D03*
X676250Y206050D03*
Y231050D03*
Y256050D03*
Y281050D03*
X681250Y206050D03*
Y231050D03*
Y256050D03*
Y281050D03*
X716250Y256050D03*
Y281050D03*
X721250Y143550D03*
Y168550D03*
Y206050D03*
Y231050D03*
Y256050D03*
Y281050D03*
X726250Y143550D03*
Y168550D03*
Y206050D03*
Y231050D03*
Y256050D03*
Y281050D03*
X731250Y143550D03*
Y168550D03*
Y206050D03*
Y231050D03*
Y256050D03*
Y281050D03*
X736250Y143550D03*
Y168550D03*
Y206050D03*
Y231050D03*
Y256050D03*
Y281050D03*
X741250Y143550D03*
Y168550D03*
Y206050D03*
Y231050D03*
Y256050D03*
Y281050D03*
X746250Y143550D03*
Y168550D03*
Y206050D03*
Y231050D03*
Y256050D03*
Y281050D03*
X751250Y143550D03*
Y168550D03*
Y206050D03*
Y231050D03*
Y256050D03*
Y281050D03*
D02*
D90*
X479750Y78050D03*
X542750D03*
X682250D03*
X745250D03*
D02*
D91*
X82750Y612850D03*
Y626250D03*
X523250Y534350D03*
Y547750D03*
X523750Y612850D03*
Y626250D03*
X543750Y404850D03*
Y418250D03*
Y435850D03*
Y449250D03*
X616250Y196850D03*
Y210250D03*
X670750Y171850D03*
Y185250D03*
D02*
D92*
X78750Y73550D03*
Y181050D03*
X113750Y73550D03*
Y181050D03*
X183750Y73550D03*
Y181050D03*
X218750Y73550D03*
Y181050D03*
X288750Y73550D03*
Y181050D03*
X323750Y73550D03*
Y181050D03*
X393750Y73550D03*
Y181050D03*
X428750Y73550D03*
Y181050D03*
X578750Y73550D03*
X613750D03*
D02*
D93*
X249750Y846050D03*
Y856050D03*
X598750Y248050D03*
Y258050D03*
X602750Y281550D03*
Y291550D03*
X616250Y173550D03*
Y183550D03*
X689250Y143550D03*
Y153550D03*
X754250Y103050D03*
Y113050D03*
Y122550D03*
Y132550D03*
D02*
D94*
X652250Y35550D03*
Y40550D03*
Y45550D03*
Y50550D03*
Y55550D03*
X666250Y35550D03*
Y40550D03*
Y45550D03*
Y50550D03*
Y55550D03*
D02*
D95*
X481250Y299050D03*
Y307050D03*
Y315050D03*
Y323050D03*
D02*
D96*
X353270Y637550D03*
Y657550D03*
Y681550D03*
X357010Y645544D03*
Y665544D03*
Y689544D03*
X360750Y637550D03*
Y657550D03*
Y681550D03*
X428010Y848553D03*
X431750Y856547D03*
X435490Y848553D03*
X702510Y377053D03*
Y402053D03*
Y427053D03*
Y452053D03*
Y557053D03*
Y582053D03*
Y691053D03*
Y708053D03*
Y728053D03*
Y748053D03*
X706250Y385047D03*
Y410047D03*
Y435047D03*
Y460047D03*
Y565047D03*
Y590047D03*
Y699047D03*
Y716047D03*
Y736047D03*
Y756047D03*
X709990Y377053D03*
Y402053D03*
Y427053D03*
Y452053D03*
Y557053D03*
Y582053D03*
Y691053D03*
Y708053D03*
Y728053D03*
Y748053D03*
D02*
D97*
X39250Y735050D03*
X48250D03*
D02*
D98*
X771750Y100050D03*
Y127550D03*
D02*
D99*
X522753Y287050D03*
X530747Y283310D03*
Y290790D03*
X542753Y287050D03*
X550747Y283310D03*
Y290790D03*
D02*
D100*
X476750Y358550D03*
Y372550D03*
X481750Y358550D03*
Y372550D03*
X486750Y358550D03*
Y372550D03*
X491750Y358550D03*
Y372550D03*
X496750Y358550D03*
Y372550D03*
D02*
D101*
X121250Y871550D03*
X121270Y883550D03*
X124990Y871550D03*
X125010Y883550D03*
X128750Y871550D03*
Y883550D03*
D02*
D102*
X98750Y923050D03*
X102750D03*
D02*
D103*
X94750D03*
X106750D03*
D02*
D104*
X89750D03*
X111750D03*
D02*
D105*
X83750Y923550D03*
Y938550D03*
X117750Y923550D03*
Y938550D03*
D02*
D106*
X669250Y879850D03*
Y893250D03*
X0Y0D02*
M02*
