G05
M48
INCH,TZ
FMAT,2
T1C000.01200
T2C000.02400
T3C000.03200
T4C000.03600
T5C000.04000
T6C000.05000
T7C000.05200
T8C000.08000
T9C000.08300
T10C000.09500
T11C000.10000
%
T001
X37750Y719550
X40750Y577050
X44250Y231550
X48750Y612550
X54250Y625050
X55750Y593050
X58250Y231550
X58250Y630050
X59250Y896050
X59250Y900050
X60750Y612550
X63750Y309550
X63750Y334550
X64250Y603550
X65250Y625050
X65250Y630050
X68250Y600550
X71250Y597550
X71250Y634050
X74750Y637550
X82250Y379050
X90750Y438550
X91750Y530550
X91750Y548550
X92750Y858050
X98750Y346550
X98750Y916050
X101250Y577050
X101750Y270550
X102750Y916050
X109750Y882050
X115750Y842550
X115750Y869050
X117250Y270550
X118750Y295550
X120250Y126550
X123750Y292550
X124750Y601550
X124750Y650550
X124750Y878050
X125250Y102050
X125250Y106050
X125250Y110050
X125250Y114050
X125250Y131050
X126250Y578050
X126250Y585050
X127750Y606050
X127750Y647550
X127750Y772050
X128750Y292550
X131250Y238050
X131250Y247050
X133250Y282550
X133750Y871550
X136250Y215050
X136250Y247050
X136750Y842550
X136750Y863050
X137250Y575550
X137250Y585050
X138750Y294550
X141250Y140050
X141250Y238050
X141250Y264050
X143750Y282550
X145750Y892550
X148750Y291550
X151250Y97050
X151250Y235050
X152750Y756550
X152750Y800050
X153250Y246550
X153750Y282550
X156250Y97050
X156250Y140050
X156250Y235050
X156250Y262550
X156750Y118550
X156750Y750550
X156750Y800050
X161250Y118550
X161250Y140050
X161250Y211550
X161250Y262550
X166250Y140050
X166250Y150050
X169250Y87550
X172250Y109550
X172250Y127050
X172250Y232050
X172250Y249050
X172250Y622050
X172250Y634050
X174750Y618550
X174750Y653550
X175250Y538050
X176250Y419550
X176250Y432550
X176250Y438550
X180750Y558550
X188750Y558550
X193750Y607050
X201750Y413550
X207750Y379050
X208250Y141550
X208750Y553550
X208750Y601550
X212250Y523050
X212250Y535050
X219750Y570550
X223250Y871050
X225250Y242550
X225250Y251050
X225750Y556050
X226750Y215550
X228750Y559550
X229250Y553550
X229250Y871050
X229750Y93550
X229750Y106050
X230250Y20050
X230250Y34550
X230250Y127050
X230250Y213050
X230250Y253550
X232750Y96550
X237250Y379050
X238750Y96550
X241250Y140050
X242250Y435550
X242250Y440050
X242750Y216050
X246250Y262050
X246250Y308050
X247250Y727050
X247750Y162050
X247750Y213050
X248250Y551050
X248750Y239550
X249250Y677550
X249750Y140550
X251250Y574050
X251250Y601550
X251750Y154050
X251750Y162050
X252750Y219050
X255750Y162050
X256181Y247050
X256250Y112550
X256250Y235050
X256250Y586050
X257250Y216050
X258750Y404550
X261250Y140550
X261250Y235050
X261250Y247050
X261250Y558550
X264250Y447550
X266250Y87550
X266250Y97050
X266250Y558550
X268750Y404550
X269750Y529050
X271250Y140050
X271250Y165050
X271250Y601550
X271250Y608050
X272750Y526050
X274750Y551050
X275250Y824050
X275250Y856550
X275750Y574550
X276250Y585550
X277250Y233550
X277250Y247050
X277750Y379050
X277750Y526050
X278750Y667550
X281250Y574550
X281250Y585550
X283250Y704550
X283750Y270550
X286250Y679050
X286750Y673050
X289750Y818050
X289750Y835550
X291750Y438550
X293750Y250550
X294250Y259050
X295250Y670050
X295250Y678550
X295250Y705550
X296750Y384050
X301750Y391050
X302750Y529050
X306250Y387050
X308750Y215550
X312250Y526050
X314250Y438550
X315750Y523550
X316750Y121550
X316750Y132550
X318250Y395050
X318250Y483550
X318250Y487550
X319750Y250550
X321250Y275050
X326250Y690050
X326250Y704550
X329250Y162050
X332250Y158550
X332250Y165050
X332750Y818550
X332750Y838550
X336750Y93550
X336750Y113550
X340250Y139550
X341750Y219550
X341750Y387050
X341750Y391050
X341750Y395050
X345250Y384050
X345750Y700050
X345750Y855550
X346010Y675047
X347750Y215550
X348750Y139550
X348750Y483550
X348750Y487550
X349250Y690550
X350750Y158550
X351750Y341550
X353250Y219550
X353750Y124550
X353750Y162050
X355750Y341550
X356750Y165050
X357010Y650544
X357010Y670544
X357010Y675047
X357750Y700050
X361250Y117050
X361250Y690550
X361250Y702550
X363750Y246550
X363750Y314550
X364250Y650544
X364250Y670544
X366750Y81050
X367250Y28050
X367250Y44050
X369250Y398550
X370250Y702050
X372250Y351550
X372750Y395550
X372750Y401550
X372750Y405550
X372750Y409550
X375250Y818550
X375250Y841550
X378250Y341550
X378250Y347550
X379750Y231550
X381250Y480050
X382250Y530550
X382750Y617550
X382750Y625550
X382750Y629550
X382750Y633550
X384250Y309550
X384250Y463050
X386750Y259550
X386750Y264050
X388250Y855550
X388750Y476050
X390250Y256550
X397750Y253550
X404250Y249050
X405750Y818550
X405750Y846550
X407250Y259550
X409250Y537550
X409750Y629550
X411250Y331550
X411250Y533550
X411250Y625550
X411250Y740550
X413750Y131550
X414750Y460050
X416750Y616550
X417250Y343550
X421750Y619550
X422750Y335550
X422750Y543550
X422750Y547550
X425250Y266550
X428750Y254050
X430750Y815550
X432250Y800050
X432750Y710550
X433250Y249050
X435250Y796050
X436750Y710550
X438250Y746550
X439250Y255050
X442750Y743550
X443250Y280550
X443250Y331550
X443250Y335550
X443250Y339550
X443250Y343550
X443250Y347550
X443250Y351550
X443250Y395550
X443250Y401550
X443250Y405550
X443250Y409550
X443250Y476050
X443250Y480050
X443250Y612050
X443250Y616550
X443250Y633550
X443750Y828550
X444750Y261550
X444750Y526050
X444750Y533550
X444750Y537550
X445750Y796050
X445750Y800050
X446250Y398550
X446750Y543550
X446750Y547550
X448750Y463050
X448750Y698550
X449250Y572050
X449250Y588050
X451250Y287050
X451250Y543550
X462250Y113050
X464750Y458050
X465250Y116050
X466250Y140050
X467250Y727050
X467750Y573550
X467750Y587550
X470750Y140050
X470750Y261550
X473750Y442050
X473750Y485050
X474250Y681050
X478750Y580550
X478750Y602550
X479750Y262550
X479750Y659550
X479750Y748550
X481250Y255050
X482250Y727050
X483750Y485050
X483750Y602050
X490750Y785550
X490750Y825050
X491250Y488050
X493750Y457550
X493750Y470050
X493750Y559550
X494250Y386550
X498250Y439050
X498250Y861550
X498750Y485050
X498750Y602050
X501750Y358550
X502250Y199050
X503750Y442050
X503750Y458050
X506750Y367050
X507250Y547050
X507250Y559550
X508750Y240050
X508750Y277050
X508750Y458050
X508750Y485550
X510750Y190550
X511750Y356050
X514750Y571050
X514750Y589550
X515250Y619550
X515750Y359050
X516250Y120050
X520750Y362050
X522250Y699050
X522250Y716050
X523750Y388050
X525250Y353050
X526250Y699050
X526250Y716050
X527250Y797050
X527250Y830550
X528250Y349550
X528750Y197050
X533250Y622550
X533250Y644550
X535250Y560550
X546250Y204050
X550750Y409550
X553750Y418050
X554250Y400550
X554250Y470550
X556750Y404050
X557750Y421050
X557750Y432550
X559250Y167550
X560250Y17050
X560250Y34550
X562750Y421050
X562750Y447550
X563250Y204050
X564250Y20050
X564250Y34550
X565750Y880550
X566750Y521050
X566750Y551550
X567750Y699550
X568250Y37550
X569750Y524550
X569750Y544050
X569750Y883550
X571250Y282550
X573250Y886550
X573750Y404550
X573750Y432050
X575250Y586550
X577750Y684050
X578250Y118550
X578750Y370550
X578750Y877550
X580750Y160550
X581250Y116050
X581750Y261050
X581750Y275050
X581750Y799550
X581750Y835550
X583250Y297050
X583750Y404550
X583750Y432050
X583750Y559550
X583750Y602550
X583750Y606550
X585750Y392550
X585750Y397550
X585750Y799550
X585750Y835550
X586750Y886550
X587250Y294550
X589250Y259050
X589250Y276050
X589250Y404550
X589750Y359550
X589750Y799550
X589750Y835550
X592750Y162550
X593750Y799550
X593750Y835550
X594750Y105550
X596750Y739550
X596750Y761050
X596750Y886050
X600750Y586550
X603250Y379550
X603250Y383550
X604750Y183050
X604750Y187550
X604750Y208050
X604750Y367050
X606750Y886050
X607750Y235050
X607750Y240550
X608250Y199050
X608250Y219550
X612250Y158050
X612750Y173550
X613750Y349550
X614250Y363050
X616250Y158050
X616750Y877550
X618750Y699550
X619750Y130050
X619750Y383550
X621750Y353050
X623750Y600550
X624750Y130050
X624750Y157550
X624750Y219550
X625250Y415550
X628250Y23050
X628250Y32050
X629250Y164050
X629750Y95050
X629750Y115050
X631250Y349550
X633250Y60050
X634250Y250050
X637250Y247050
X638750Y164050
X638750Y418550
X639750Y130050
X639750Y175050
X640250Y114550
X640250Y281050
X641250Y140550
X642750Y171550
X645250Y225550
X645750Y183050
X646250Y247050
X647750Y804550
X647750Y827550
X647750Y874550
X649250Y337050
X650750Y801550
X650750Y832050
X650750Y928550
X651250Y247050
X651250Y290050
X651750Y874550
X651750Y886050
X653750Y341550
X654750Y105550
X654750Y114550
X655750Y130550
X656250Y262550
X656250Y273550
X656750Y922050
X656750Y926050
X658250Y600550
X658250Y626050
X659250Y29550
X659250Y35550
X659250Y163550
X659250Y171550
X660250Y341550
X661250Y197050
X662250Y102050
X662250Y123550
X662750Y140050
X662750Y145050
X663250Y498550
X663250Y510050
X663250Y514050
X663250Y518050
X665250Y341550
X666250Y262550
X670750Y341550
X671250Y213550
X671250Y218050
X671250Y262550
X674250Y29550
X674250Y50550
X674250Y552550
X675750Y142550
X675750Y918050
X675750Y922050
X675750Y926050
X676250Y224050
X676250Y262550
X676250Y273550
X676250Y290050
X676250Y341550
X676750Y40550
X677250Y89050
X678750Y139550
X680250Y291550
X681250Y213050
X681250Y240050
X681250Y247050
X681750Y161050
X681750Y341550
X684750Y153550
X684750Y179050
X686750Y341550
X687250Y284550
X687250Y576550
X687750Y167550
X687750Y203050
X691250Y273550
X691250Y277550
X691250Y341550
X691750Y203050
X691750Y222550
X694250Y146550
X695750Y139550
X696250Y341550
X697250Y153550
X697250Y179050
X699250Y721050
X699250Y741050
X699250Y761050
X704750Y223050
X704750Y227050
X704750Y231050
X705250Y262550
X705750Y721050
X706250Y372050
X706250Y415550
X706250Y420050
X706250Y498550
X706250Y572550
X706250Y576550
X706250Y656550
X706250Y682050
X706250Y686050
X706250Y741050
X706250Y761050
X710250Y258550
X710250Y656550
X710250Y682050
X710750Y239550
X711750Y868550
X711750Y891050
X714250Y341550
X714250Y656550
X714250Y682050
X716250Y274550
X718750Y341550
X718750Y656550
X718750Y682050
X721250Y161050
X721250Y274550
X721250Y300050
X722250Y117550
X722250Y123550
X722250Y127550
X722250Y668050
X722750Y218550
X723750Y341550
X725750Y120550
X726250Y150050
X726250Y221550
X728750Y341550
X731750Y219050
X733750Y341550
X735750Y214050
X736250Y239550
X736250Y262550
X738250Y224550
X738750Y197050
X738750Y341550
X742750Y224550
X743750Y341550
X745750Y247050
X746250Y262550
X746250Y917050
X746750Y123550
X746750Y127550
X746750Y308550
X747750Y212550
X747750Y224550
X748750Y341550
X748750Y648550
X748750Y671050
X750250Y120550
X751250Y240050
X751250Y308550
X751750Y645050
X751750Y667550
X754750Y510050
X754750Y641550
X754750Y664050
X758250Y117550
X758750Y213550
X760250Y247050
X763250Y28050
X763250Y34550
X763250Y53050
X768750Y190050
X770250Y893050
X771750Y193050
X772750Y876050
X773250Y825050
X773250Y829050
X774250Y514050
X774750Y174550
X776250Y271550
X776750Y226550
X778750Y518050
X779250Y275550
X779250Y279550
X782750Y172050
X784750Y279550
X785250Y825050
X785250Y871550
X789750Y275050
X791750Y829050
X792250Y226550
X792250Y271550
X794750Y874050
T002
X28750Y160050
X28750Y236550
X28750Y581550
X58750Y160050
X58750Y236550
X74250Y581550
X90750Y599550
X120250Y255550
X121250Y138050
X136750Y406550
X136750Y445550
X138250Y567550
X173250Y560550
X173250Y599550
X202250Y422050
X202250Y432550
X208250Y420050
X208250Y430050
X211750Y112050
X211750Y127550
X213250Y221550
X213250Y257050
X214250Y581550
X224750Y582050
X225250Y101550
X225750Y138050
X225750Y589050
X228750Y230550
X228750Y247550
X233750Y153050
X233750Y162050
X234250Y576050
X234250Y751550
X234250Y782550
X238250Y445550
X238750Y406550
X239250Y153050
X239250Y162050
X250250Y149050
X291250Y245050
X291750Y422050
X291750Y428050
X297750Y255050
X305750Y560550
X305750Y599550
X319750Y245050
X326250Y271050
X333250Y101550
X333250Y142550
X333250Y224050
X333250Y258550
X341250Y704550
X341250Y718050
X341250Y727050
X341250Y771050
X382250Y578050
X382250Y584050
X387750Y300050
X387750Y306050
X396750Y263050
X397250Y702550
X405250Y270550
X406250Y584050
X406750Y471050
X429250Y263050
X433250Y882050
X433250Y932050
X434250Y702550
X440250Y466550
X440250Y578050
X441250Y270550
X443750Y471050
X443750Y584050
X449250Y444050
X453750Y261550
X455250Y855550
X459750Y261550
X462750Y495550
X463750Y483050
X463750Y561550
X463750Y600550
X463750Y625550
X465750Y261550
X465750Y271550
X471750Y372550
X488750Y412550
X488750Y431050
X494250Y431050
X515750Y444550
X515750Y466550
X518250Y794550
X541250Y577050
X541250Y584050
X547250Y577050
X547250Y590050
X557250Y688550
X557250Y722550
X563250Y199050
X563250Y238050
X577250Y112550
X593250Y256050
X593250Y271550
X599250Y112550
X604250Y406550
X604250Y445550
X606250Y128050
X618250Y561550
X618250Y600550
X623750Y282550
X623750Y293550
X640250Y238050
X640750Y199050
X662750Y503550
X675750Y154050
X692250Y251550
X698250Y624550
X706250Y285550
X711250Y174050
X757750Y143550
X757750Y333550
X758250Y206050
X775250Y289050
X775750Y184550
X784250Y304550
X799750Y304550
X799750Y333550
X799750Y503550
X799750Y624550
X802250Y184550
T003
X96750Y619050
X116750Y619050
X526750Y478550
X529250Y373550
X540750Y542550
X541750Y621550
X546750Y478550
X549250Y373550
X560750Y542550
X561750Y621550
X566750Y489550
T004
X58750Y316050
X58750Y326050
X68750Y316050
X68750Y326050
X78750Y316050
X78750Y326050
X88750Y316050
X88750Y326050
X91250Y208550
X91250Y213550
X91250Y243550
X91250Y248550
X91250Y263550
X91250Y268550
X91250Y298550
X91250Y303550
X98750Y316050
X98750Y326050
X108750Y316050
X108750Y326050
X118750Y316050
X118750Y326050
X128750Y316050
X128750Y326050
X138750Y316050
X138750Y326050
X148750Y316050
X148750Y326050
X158750Y316050
X158750Y326050
X168750Y316050
X168750Y326050
X178750Y316050
X178750Y326050
X188750Y316050
X188750Y326050
X198750Y316050
X198750Y326050
X208750Y316050
X208750Y326050
X218750Y316050
X218750Y326050
X228750Y316050
X228750Y326050
X233750Y81050
X238750Y81050
X238750Y316050
X238750Y326050
X248750Y316050
X248750Y326050
X258750Y316050
X258750Y326050
X268750Y81050
X268750Y316050
X268750Y326050
X273750Y81050
X278750Y316050
X278750Y326050
X288750Y316050
X288750Y326050
X298750Y316050
X298750Y326050
X338750Y81050
X343750Y81050
X373750Y81050
X378750Y81050
X413750Y103550
X413750Y108550
X413750Y138550
X413750Y143550
X481250Y299050
X481250Y307050
X481250Y315050
X481250Y323050
X528750Y316050
X528750Y326050
X538750Y316050
X538750Y326050
X548750Y316050
X548750Y326050
X558750Y316050
X558750Y326050
X568750Y316050
X568750Y326050
X578750Y316050
X578750Y326050
X588750Y316050
X588750Y326050
X598750Y316050
X598750Y326050
X608750Y316050
X608750Y326050
X618750Y316050
X618750Y326050
X628750Y316050
X628750Y326050
X638750Y316050
X638750Y326050
X648750Y316050
X648750Y326050
X658750Y316050
X658750Y326050
X668750Y316050
X668750Y326050
X678750Y316050
X678750Y326050
X688750Y316050
X688750Y326050
X698750Y316050
X698750Y326050
X708750Y316050
X708750Y326050
X718750Y316050
X718750Y326050
X728750Y316050
X728750Y326050
X738750Y316050
X738750Y326050
X748750Y316050
X748750Y326050
X758750Y316050
X758750Y326050
X763750Y871050
X763750Y881050
X763750Y891050
X766750Y140050
X766750Y150050
X766750Y160050
X766750Y170050
X768750Y316050
X768750Y326050
T005
X41750Y768050
X41750Y778050
X41750Y788050
X41750Y808050
X41750Y818050
X61750Y931050
X86250Y46050
X86250Y153550
X86750Y899050
X96250Y46050
X96250Y153550
X96750Y899050
X104750Y899050
X106250Y46050
X106250Y153550
X114750Y899050
X148250Y931050
X179750Y895050
X179750Y905050
X189750Y895050
X189750Y905050
X191250Y46050
X191250Y153550
X199750Y895050
X199750Y905050
X201250Y46050
X201250Y153550
X209750Y895050
X209750Y905050
X211250Y46050
X211250Y153550
X219750Y895050
X219750Y905050
X296250Y46050
X296250Y153550
X306250Y46050
X306250Y153550
X316250Y46050
X316250Y153550
X401250Y46050
X401250Y153550
X411250Y46050
X411250Y153550
X421250Y46050
X421250Y153550
X491250Y37550
X491250Y109550
X501250Y37550
X501250Y109550
X511250Y37550
X511250Y109550
X521250Y37550
X521250Y109550
X531250Y37550
X531250Y109550
X576750Y895050
X576750Y905050
X586250Y46050
X586750Y895050
X586750Y905050
X596250Y46050
X596750Y895050
X596750Y905050
X606250Y46050
X606750Y895050
X606750Y905050
X616750Y895050
X616750Y905050
X626750Y895050
X626750Y905050
X636750Y895050
X636750Y905050
X646750Y895050
X646750Y905050
X693750Y37550
X693750Y109550
X696750Y895050
X696750Y905050
X703750Y37550
X703750Y109550
X706750Y895050
X706750Y905050
X713750Y37550
X713750Y109550
X716750Y895050
X716750Y905050
X723750Y37550
X723750Y109550
X726750Y895050
X726750Y905050
X733750Y37550
X733750Y109550
X736750Y895050
X736750Y905050
X781750Y105050
X781750Y122550
X791750Y60050
X791750Y80050
X801750Y70050
T006
X83750Y923550
X83750Y938550
X117750Y923550
X117750Y938550
T007
X771750Y100050
X771750Y127550
T008
X479750Y78050
X542750Y78050
X682250Y78050
X745250Y78050
T009
X331750Y321050
T010
X75250Y909550
X126750Y909550
T011
X78750Y73550
X78750Y181050
X113750Y73550
X113750Y181050
X183750Y73550
X183750Y181050
X218750Y73550
X218750Y181050
X288750Y73550
X288750Y181050
X323750Y73550
X323750Y181050
X393750Y73550
X393750Y181050
X428750Y73550
X428750Y181050
X578750Y73550
X613750Y73550
T006
G00X282750Y877550
M15
G01X282750Y882550
M17
G00X280250Y897050
M15
G01X285250Y897050
M17
G00X342750Y877550
M15
G01X342750Y882550
M17
G00X340250Y897050
M15
G01X345250Y897050
M17
G00X402750Y877550
M15
G01X402750Y882550
M17
G00X400250Y897050
M15
G01X405250Y897050
M17
G00X462750Y877550
M15
G01X462750Y882550
M17
G00X460250Y897050
M15
G01X465250Y897050
M17
G00X522750Y877550
M15
G01X522750Y882550
M17
G00X520250Y897050
M15
G01X525250Y897050
M17
M30
