G04 DesignSpark PCB PRO Gerber Version 9.0 Build 5138 *
G04 #@! TF.Part,Single*
G04 #@! TF.FileFunction,Paste,Top *
G04 #@! TF.FilePolarity,Positive *
%FSLAX35Y35*%
%MOIN*%
G04 #@! TA.AperFunction,SMDPad,CuDef*
%ADD115R,0.01800X0.03600*%
%ADD113R,0.01960X0.08260*%
%ADD121R,0.02100X0.06600*%
%ADD122R,0.02400X0.06600*%
%ADD112R,0.02600X0.05600*%
%ADD123R,0.02600X0.06600*%
%ADD120R,0.02600X0.07600*%
%ADD124R,0.02800X0.06600*%
%ADD117R,0.03500X0.04800*%
%ADD107R,0.05100X0.05600*%
%ADD110R,0.09600X0.12100*%
%ADD111R,0.09600X0.12200*%
%ADD125R,0.05900X0.05900*%
G04 #@! TD.AperFunction*
%ADD10C,0.00500*%
G04 #@! TA.AperFunction,SMDPad,CuDef*
%ADD116R,0.07600X0.02600*%
%ADD119R,0.04800X0.03500*%
%ADD118R,0.05600X0.05100*%
%ADD114R,0.09800X0.05900*%
%ADD108R,0.12100X0.09600*%
%ADD109R,0.12200X0.09600*%
X0Y0D02*
D02*
D10*
X34750Y34350D02*
G75*
G03Y21750J-6300D01*
G01*
G75*
G03Y34350J6300*
G01*
Y943350D02*
G75*
G03Y930750J-6300D01*
G01*
G75*
G03Y943350J6300*
G01*
X793750Y34350D02*
G75*
G03Y21750J-6300D01*
G01*
G75*
G03Y34350J6300*
G01*
Y943350D02*
G75*
G03Y930750J-6300D01*
G01*
G75*
G03Y943350J6300*
G01*
X811750Y25050D02*
G75*
G02X796750Y10050I-15000D01*
G01*
X31750*
G75*
G02X16750Y25050J15000*
G01*
Y940050*
G75*
G02X31750Y955050I15000*
G01*
X69250*
Y953050*
G75*
G03X74250Y948050I5000*
G01*
X126750*
G75*
G03X131750Y953050J5000*
G01*
Y955050*
X796750*
G75*
G02X811750Y940050J-15000*
G01*
Y25050*
D02*
D107*
X29750Y710550D03*
Y719550D03*
X34750Y873050D03*
Y882050D03*
X43750Y710550D03*
Y719550D03*
X48750Y873050D03*
Y882050D03*
X63750Y873050D03*
Y882050D03*
X76250Y379050D03*
Y388050D03*
X77750Y873050D03*
Y882050D03*
X83750Y590550D03*
Y599550D03*
X93750Y379050D03*
Y388050D03*
X98750Y538050D03*
Y547050D03*
X104250Y873050D03*
Y882050D03*
X106750Y742550D03*
Y751550D03*
Y767550D03*
Y776550D03*
Y792550D03*
Y801550D03*
Y816050D03*
Y825050D03*
Y843550D03*
Y852550D03*
X111250Y379050D03*
Y388050D03*
X113750Y129050D03*
Y138050D03*
Y246550D03*
Y255550D03*
X116250Y538050D03*
Y547050D03*
X120750Y767550D03*
Y776550D03*
X128750Y379050D03*
Y388050D03*
X131250Y538050D03*
Y547050D03*
Y613050D03*
Y622050D03*
X134750Y767550D03*
Y776550D03*
X143750Y406550D03*
Y415550D03*
Y436550D03*
Y445550D03*
X148750Y538050D03*
Y547050D03*
Y613050D03*
Y622050D03*
X161250Y379050D03*
Y388050D03*
X166250Y538050D03*
Y547050D03*
Y560550D03*
Y569550D03*
Y590550D03*
Y599550D03*
Y613050D03*
Y622050D03*
X178750Y379050D03*
Y388050D03*
X183750Y537550D03*
Y546550D03*
Y613050D03*
Y622050D03*
X196250Y379050D03*
Y388050D03*
X201250Y537550D03*
Y546550D03*
Y613050D03*
Y622050D03*
X203750Y864550D03*
Y873550D03*
X206250Y221550D03*
Y230550D03*
Y248050D03*
Y257050D03*
X213750Y379050D03*
Y388050D03*
X218250Y537550D03*
Y546550D03*
X218750Y101550D03*
Y110550D03*
Y129050D03*
Y138050D03*
X231250Y379050D03*
Y388050D03*
X232250Y406550D03*
Y415550D03*
Y436550D03*
Y445550D03*
X241250Y673550D03*
Y682550D03*
Y695550D03*
Y704550D03*
Y718050D03*
Y727050D03*
X248750Y379050D03*
Y388050D03*
X254250Y455550D03*
Y464550D03*
X258250Y673550D03*
Y682550D03*
Y718050D03*
Y727050D03*
X266250Y379050D03*
Y388050D03*
Y809550D03*
Y818550D03*
Y846550D03*
Y855550D03*
X274250Y455550D03*
Y464550D03*
X275250Y673550D03*
Y682550D03*
Y695550D03*
Y704550D03*
Y718050D03*
Y727050D03*
X283750Y379050D03*
Y388050D03*
Y809550D03*
Y818550D03*
Y846550D03*
Y855550D03*
X291750Y455550D03*
Y464550D03*
X298750Y560550D03*
Y569550D03*
Y590550D03*
Y599550D03*
X309250Y455550D03*
Y464550D03*
Y809550D03*
Y818550D03*
Y846550D03*
Y855550D03*
X326250Y101550D03*
Y110550D03*
Y129050D03*
Y138050D03*
Y224050D03*
Y233050D03*
Y251550D03*
Y260550D03*
X326750Y809550D03*
Y818550D03*
Y846550D03*
Y855550D03*
X334250Y695550D03*
Y704550D03*
Y718050D03*
Y727050D03*
X351750Y350050D03*
Y359050D03*
Y846550D03*
Y855550D03*
X352250Y809550D03*
Y818550D03*
X366750Y350050D03*
Y359050D03*
X369250Y809550D03*
Y818550D03*
Y846550D03*
Y855550D03*
X394250Y809550D03*
Y818550D03*
Y846550D03*
Y855550D03*
X411750Y809550D03*
Y818550D03*
Y846550D03*
Y855550D03*
X448750Y846550D03*
Y855550D03*
X453750Y659550D03*
Y668550D03*
Y739550D03*
Y748550D03*
X456250Y444050D03*
Y453050D03*
Y474050D03*
Y483050D03*
Y495550D03*
Y504550D03*
Y561550D03*
Y570550D03*
Y591550D03*
Y600550D03*
Y616550D03*
Y625550D03*
X471250Y659550D03*
Y668550D03*
Y739550D03*
Y748550D03*
X488250Y739550D03*
Y748550D03*
X488750Y174050D03*
Y183050D03*
Y659550D03*
Y668550D03*
X492250Y852550D03*
Y861550D03*
X495750Y282550D03*
Y291550D03*
X506250Y174050D03*
Y183050D03*
Y659550D03*
Y668550D03*
Y739550D03*
Y748550D03*
X509250Y282550D03*
Y291550D03*
X509750Y852550D03*
Y861550D03*
X527250Y852550D03*
Y861550D03*
X541250Y560550D03*
Y569550D03*
X543750Y381550D03*
Y390550D03*
Y461550D03*
Y470550D03*
X548750Y536550D03*
Y545550D03*
X549750Y616550D03*
Y625550D03*
X550250Y659550D03*
Y668550D03*
Y688550D03*
Y697550D03*
Y713550D03*
Y722550D03*
Y739550D03*
Y748550D03*
X556250Y174050D03*
Y183050D03*
Y199050D03*
Y208050D03*
Y229050D03*
Y238050D03*
X561250Y381550D03*
Y390550D03*
Y461550D03*
Y470550D03*
X563250Y282550D03*
Y291550D03*
X567750Y659550D03*
Y668550D03*
Y739550D03*
Y748550D03*
X576250Y174050D03*
Y183050D03*
Y199050D03*
Y208050D03*
Y229050D03*
Y238050D03*
Y536550D03*
Y545550D03*
Y616550D03*
Y625550D03*
X577250Y282550D03*
Y291550D03*
X578750Y350550D03*
Y359550D03*
Y381550D03*
Y390550D03*
Y461550D03*
Y470550D03*
X585250Y659550D03*
Y668550D03*
Y739550D03*
Y748550D03*
X593750Y536550D03*
Y545550D03*
Y616550D03*
Y625550D03*
X596250Y350550D03*
Y359550D03*
Y381550D03*
Y390550D03*
Y461550D03*
Y470550D03*
X598750Y174050D03*
Y183050D03*
Y199050D03*
Y208050D03*
Y229050D03*
Y238050D03*
X599250Y119050D03*
Y128050D03*
Y143050D03*
Y152050D03*
X602750Y659550D03*
Y668550D03*
Y739550D03*
Y748550D03*
X611250Y406550D03*
Y415550D03*
Y436550D03*
Y445550D03*
Y536550D03*
Y545550D03*
Y561550D03*
Y570550D03*
Y591550D03*
Y600550D03*
Y616550D03*
Y625550D03*
X613750Y381550D03*
Y390550D03*
Y461550D03*
Y470550D03*
X615750Y250550D03*
Y259550D03*
X616250Y229050D03*
Y238050D03*
Y282550D03*
Y291550D03*
X619250Y852550D03*
Y861550D03*
X629250Y561550D03*
Y570550D03*
Y591550D03*
Y600550D03*
X631250Y406550D03*
Y415550D03*
Y436550D03*
Y445550D03*
X633250Y45550D03*
Y54550D03*
X633750Y174050D03*
Y183050D03*
Y199050D03*
Y208050D03*
Y229050D03*
Y238050D03*
X636750Y852550D03*
Y861550D03*
X646750Y561550D03*
Y570550D03*
Y591550D03*
Y600550D03*
X651250Y174050D03*
Y183050D03*
X654250Y852550D03*
Y861550D03*
X668750Y145050D03*
Y154050D03*
X689250Y123050D03*
Y132050D03*
X698750Y251550D03*
Y260550D03*
Y276550D03*
Y285550D03*
X703750Y204050D03*
Y213050D03*
X704250Y123050D03*
Y132050D03*
Y145050D03*
Y154050D03*
Y174050D03*
Y183050D03*
X746250Y871550D03*
Y880550D03*
X768750Y204050D03*
Y213050D03*
Y226550D03*
Y235550D03*
X769250Y25550D03*
Y34550D03*
Y53050D03*
Y62050D03*
X781750Y289050D03*
Y298050D03*
D02*
D108*
X62750Y770050D03*
X63250Y795550D03*
Y848050D03*
X85250Y770050D03*
X85750Y795550D03*
Y848050D03*
D02*
D109*
X152750Y860550D03*
Y877550D03*
D02*
D110*
X181250Y858050D03*
Y880550D03*
D02*
D111*
X65750Y745050D03*
Y820550D03*
X82750Y745050D03*
Y820550D03*
D02*
D112*
X32750Y672550D03*
Y687050D03*
X36750Y662550D03*
Y697050D03*
X40750Y672550D03*
Y687050D03*
X122750Y732550D03*
Y747550D03*
Y802550D03*
Y817550D03*
X126750Y722550D03*
Y757550D03*
Y792550D03*
Y827550D03*
X130750Y732550D03*
Y747550D03*
Y802550D03*
Y817550D03*
X525250Y173550D03*
X529250Y183550D03*
X533250Y173550D03*
D02*
D113*
X96250Y413550D03*
Y438550D03*
X101250Y413550D03*
Y438550D03*
Y567550D03*
Y592550D03*
X106250Y413550D03*
Y438550D03*
Y567550D03*
Y592550D03*
X111250Y413550D03*
Y438550D03*
Y567550D03*
Y592550D03*
X116250Y567550D03*
Y592550D03*
X121250Y567550D03*
Y592550D03*
X126250Y567550D03*
Y592550D03*
X131250Y106050D03*
Y131050D03*
Y228550D03*
Y253550D03*
Y567550D03*
Y592550D03*
X136250Y106050D03*
Y131050D03*
Y228550D03*
Y253550D03*
X141250Y106050D03*
Y131050D03*
Y228550D03*
Y253550D03*
X146250Y106050D03*
Y131050D03*
Y228550D03*
Y253550D03*
X151250Y106050D03*
Y131050D03*
Y228550D03*
Y253550D03*
X156250Y106050D03*
Y131050D03*
Y228550D03*
Y253550D03*
X161250Y106050D03*
Y131050D03*
Y228550D03*
Y253550D03*
X166250Y106050D03*
Y131050D03*
Y228550D03*
Y253550D03*
X181250Y413550D03*
Y438550D03*
X183750Y567550D03*
Y592550D03*
X186250Y413550D03*
Y438550D03*
X188750Y567550D03*
Y592550D03*
X191250Y413550D03*
Y438550D03*
X193750Y567550D03*
Y592550D03*
X196250Y413550D03*
Y438550D03*
X198750Y567550D03*
Y592550D03*
X203750Y567550D03*
Y592550D03*
X208750Y567550D03*
Y592550D03*
X213750Y567550D03*
Y592550D03*
X236250Y106050D03*
Y131050D03*
Y228550D03*
Y253550D03*
X241250Y106050D03*
Y131050D03*
Y228550D03*
Y253550D03*
X246250Y106050D03*
Y131050D03*
Y228550D03*
Y253550D03*
Y567550D03*
Y592550D03*
X248750Y413550D03*
Y438550D03*
X251250Y106050D03*
Y131050D03*
Y228550D03*
Y253550D03*
Y567550D03*
Y592550D03*
X253750Y413550D03*
Y438550D03*
X256250Y106050D03*
Y131050D03*
Y228550D03*
Y253550D03*
Y567550D03*
Y592550D03*
X258750Y413550D03*
Y438550D03*
X261250Y106050D03*
Y131050D03*
Y228550D03*
Y253550D03*
Y567550D03*
Y592550D03*
X263750Y413550D03*
Y438550D03*
X266250Y106050D03*
Y131050D03*
Y228550D03*
Y253550D03*
Y567550D03*
Y592550D03*
X268750Y413550D03*
Y438550D03*
X271250Y106050D03*
Y131050D03*
Y228550D03*
Y253550D03*
Y567550D03*
Y592550D03*
X273750Y413550D03*
Y438550D03*
X276250Y567550D03*
Y592550D03*
X278750Y413550D03*
Y438550D03*
X281250Y567550D03*
Y592550D03*
X290250Y687550D03*
Y712550D03*
X295250Y687550D03*
Y712550D03*
X300250Y687550D03*
Y712550D03*
X305250Y687550D03*
Y712550D03*
X310250Y687550D03*
Y712550D03*
X315250Y687550D03*
Y712550D03*
X320250Y687550D03*
Y712550D03*
X343750Y106050D03*
Y131050D03*
Y228550D03*
Y253550D03*
X348750Y106050D03*
Y131050D03*
Y228550D03*
Y253550D03*
X353750Y106050D03*
Y131050D03*
Y228550D03*
Y253550D03*
X358750Y106050D03*
Y131050D03*
Y228550D03*
Y253550D03*
X363750Y106050D03*
Y131050D03*
Y228550D03*
Y253550D03*
X368750Y106050D03*
Y131050D03*
Y228550D03*
Y253550D03*
X373750Y106050D03*
Y131050D03*
Y228550D03*
Y253550D03*
X465750Y795050D03*
Y835050D03*
X470750Y795050D03*
Y835050D03*
X473250Y693050D03*
Y718050D03*
X473750Y451050D03*
Y476050D03*
Y568550D03*
Y593550D03*
X474250Y395550D03*
Y420550D03*
X475750Y795050D03*
Y835050D03*
X478250Y693050D03*
Y718050D03*
X478750Y451050D03*
Y476050D03*
Y568550D03*
Y593550D03*
X479250Y395550D03*
Y420550D03*
X480750Y795050D03*
Y835050D03*
X483250Y693050D03*
Y718050D03*
X483750Y451050D03*
Y476050D03*
Y568550D03*
Y593550D03*
X484250Y395550D03*
Y420550D03*
X485750Y795050D03*
Y835050D03*
X488250Y693050D03*
Y718050D03*
X488750Y451050D03*
Y476050D03*
Y568550D03*
Y593550D03*
X489250Y395550D03*
Y420550D03*
X490750Y795050D03*
Y835050D03*
X493250Y693050D03*
Y718050D03*
X493750Y451050D03*
Y476050D03*
Y568550D03*
Y593550D03*
X494250Y395550D03*
Y420550D03*
X495750Y795050D03*
Y835050D03*
X498250Y693050D03*
Y718050D03*
X498750Y451050D03*
Y476050D03*
Y568550D03*
Y593550D03*
X499250Y395550D03*
Y420550D03*
X500750Y795050D03*
Y835050D03*
X503250Y693050D03*
Y718050D03*
X503750Y451050D03*
Y476050D03*
Y568550D03*
Y593550D03*
X504250Y395550D03*
Y420550D03*
X505750Y795050D03*
Y835050D03*
X508750Y206050D03*
Y231050D03*
Y451050D03*
Y476050D03*
Y568550D03*
Y593550D03*
X509250Y395550D03*
Y420550D03*
X510750Y795050D03*
Y835050D03*
X513750Y206050D03*
Y231050D03*
X518750Y206050D03*
Y231050D03*
X523750Y206050D03*
Y231050D03*
X528750Y206050D03*
Y231050D03*
X533750Y206050D03*
Y231050D03*
X538750Y206050D03*
Y231050D03*
X563750Y413550D03*
Y438550D03*
Y568550D03*
Y593550D03*
X567750Y693050D03*
Y718050D03*
X568750Y413550D03*
Y438550D03*
Y568550D03*
Y593550D03*
X572750Y693050D03*
Y718050D03*
X573750Y413550D03*
Y438550D03*
Y568550D03*
Y593550D03*
X577750Y693050D03*
Y718050D03*
X578750Y413550D03*
Y438550D03*
Y568550D03*
Y593550D03*
X582750Y693050D03*
Y718050D03*
X583750Y413550D03*
Y438550D03*
Y568550D03*
Y593550D03*
X587750Y693050D03*
Y718050D03*
X588750Y413550D03*
Y438550D03*
Y568550D03*
Y593550D03*
X592750Y693050D03*
Y718050D03*
X593750Y413550D03*
Y438550D03*
Y568550D03*
Y593550D03*
X597750Y693050D03*
Y718050D03*
X619750Y123550D03*
Y148550D03*
X624750Y123550D03*
Y148550D03*
X629750Y123550D03*
Y148550D03*
X634750Y123550D03*
Y148550D03*
X639750Y123550D03*
Y148550D03*
X644750Y123550D03*
Y148550D03*
X646250Y256050D03*
Y281050D03*
X649750Y123550D03*
Y148550D03*
X651250Y206050D03*
Y231050D03*
Y256050D03*
Y281050D03*
X654750Y123550D03*
Y148550D03*
X656250Y206050D03*
Y231050D03*
Y256050D03*
Y281050D03*
X661250Y206050D03*
Y231050D03*
Y256050D03*
Y281050D03*
X666250Y206050D03*
Y231050D03*
Y256050D03*
Y281050D03*
X671250Y206050D03*
Y231050D03*
Y256050D03*
Y281050D03*
X676250Y206050D03*
Y231050D03*
Y256050D03*
Y281050D03*
X681250Y206050D03*
Y231050D03*
Y256050D03*
Y281050D03*
X716250Y256050D03*
Y281050D03*
X721250Y143550D03*
Y168550D03*
Y206050D03*
Y231050D03*
Y256050D03*
Y281050D03*
X726250Y143550D03*
Y168550D03*
Y206050D03*
Y231050D03*
Y256050D03*
Y281050D03*
X731250Y143550D03*
Y168550D03*
Y206050D03*
Y231050D03*
Y256050D03*
Y281050D03*
X736250Y143550D03*
Y168550D03*
Y206050D03*
Y231050D03*
Y256050D03*
Y281050D03*
X741250Y143550D03*
Y168550D03*
Y206050D03*
Y231050D03*
Y256050D03*
Y281050D03*
X746250Y143550D03*
Y168550D03*
Y206050D03*
Y231050D03*
Y256050D03*
Y281050D03*
X751250Y143550D03*
Y168550D03*
Y206050D03*
Y231050D03*
Y256050D03*
Y281050D03*
D02*
D114*
X82750Y612850D03*
Y626250D03*
X523250Y534350D03*
Y547750D03*
X523750Y612850D03*
Y626250D03*
X543750Y404850D03*
Y418250D03*
Y435850D03*
Y449250D03*
X616250Y196850D03*
Y210250D03*
X670750Y171850D03*
Y185250D03*
D02*
D115*
X249750Y846050D03*
Y856050D03*
X598750Y248050D03*
Y258050D03*
X602750Y281550D03*
Y291550D03*
X616250Y173550D03*
Y183550D03*
X689250Y143550D03*
Y153550D03*
X754250Y103050D03*
Y113050D03*
Y122550D03*
Y132550D03*
D02*
D116*
X652250Y35550D03*
Y40550D03*
Y45550D03*
Y50550D03*
Y55550D03*
X666250Y35550D03*
Y40550D03*
Y45550D03*
Y50550D03*
Y55550D03*
D02*
D117*
X353270Y637550D03*
Y657550D03*
Y681550D03*
X357010Y645544D03*
Y665544D03*
Y689544D03*
X360750Y637550D03*
Y657550D03*
Y681550D03*
X428010Y848553D03*
X431750Y856547D03*
X435490Y848553D03*
X702510Y377053D03*
Y402053D03*
Y427053D03*
Y452053D03*
Y557053D03*
Y582053D03*
Y691053D03*
Y708053D03*
Y728053D03*
Y748053D03*
X706250Y385047D03*
Y410047D03*
Y435047D03*
Y460047D03*
Y565047D03*
Y590047D03*
Y699047D03*
Y716047D03*
Y736047D03*
Y756047D03*
X709990Y377053D03*
Y402053D03*
Y427053D03*
Y452053D03*
Y557053D03*
Y582053D03*
Y691053D03*
Y708053D03*
Y728053D03*
Y748053D03*
D02*
D118*
X39250Y735050D03*
X48250D03*
D02*
D119*
X522753Y287050D03*
X530747Y283310D03*
Y290790D03*
X542753Y287050D03*
X550747Y283310D03*
Y290790D03*
D02*
D120*
X476750Y358550D03*
Y372550D03*
X481750Y358550D03*
Y372550D03*
X486750Y358550D03*
Y372550D03*
X491750Y358550D03*
Y372550D03*
X496750Y358550D03*
Y372550D03*
D02*
D121*
X121250Y871550D03*
X121270Y883550D03*
X124990Y871550D03*
X125010Y883550D03*
X128750Y871550D03*
Y883550D03*
D02*
D122*
X98750Y923050D03*
X102750D03*
D02*
D123*
X94750D03*
X106750D03*
D02*
D124*
X89750D03*
X111750D03*
D02*
D125*
X669250Y879850D03*
Y893250D03*
X0Y0D02*
M02*
