G05
M48
INCH,TZ
FMAT,2
T1C000.02500
T2C000.07500
T3C000.12000
%
T002
X265750Y911550
X299750Y911550
X325750Y911550
X359750Y911550
X385750Y911550
X419750Y911550
X445750Y911550
X479750Y911550
X505750Y911550
X539750Y911550
T003
X178250Y465050
X178250Y740550
X650750Y465050
X650750Y740550
T001
G00X34750Y34350
M15
G03X34750Y21750A06300
X34750Y34350A06300
M17
G00X34750Y943350
M15
G03X34750Y930750A06300
X34750Y943350A06300
M17
G00X793750Y34350
M15
G03X793750Y21750A06300
X793750Y34350A06300
M17
G00X793750Y943350
M15
G03X793750Y930750A06300
X793750Y943350A06300
M17
G00X811750Y25050
M15
G02X796750Y10050A15000
G01X31750Y10050
G02X16750Y25050A15000
G01X16750Y940050
G02X31750Y955050A15000
G01X69250Y955050
X69250Y953050
G03X74250Y948050A05000
G01X126750Y948050
G03X131750Y953050A05000
G01X131750Y955050
X796750Y955050
G02X811750Y940050A15000
G01X811750Y25050
M17
M30
