G04 DesignSpark PCB PRO Gerber Version 9.0 Build 5138 *
G04 #@! TF.Part,Single*
G04 #@! TF.FileFunction,Soldermask,Bot *
G04 #@! TF.FilePolarity,Negative *
%FSLAX35Y35*%
%MOIN*%
G04 #@! TA.AperFunction,ComponentPad*
%ADD20O,0.08600X0.13600*%
G04 #@! TD.AperFunction*
%ADD13C,0.00500*%
G04 #@! TA.AperFunction,ViaPad*
%AMT15*0 Octagon Pad at angle 0*4,1,8,-0.00704,-0.01700,0.00704,-0.01700,0.01700,-0.00704,0.01700,0.00704,0.00704,0.01700,-0.00704,0.01700,-0.01700,0.00704,-0.01700,-0.00704,-0.00704,-0.01700,0*%
%ADD15T15*%
%AMT14*0 Octagon Pad at angle 0*4,1,8,-0.00952,-0.02300,0.00952,-0.02300,0.02300,-0.00952,0.02300,0.00952,0.00952,0.02300,-0.00952,0.02300,-0.02300,0.00952,-0.02300,-0.00952,-0.00952,-0.02300,0*%
%ADD14T14*%
G04 #@! TA.AperFunction,ComponentPad*
%AMT24*0 Octagon Pad at angle 0*4,1,8,-0.01200,-0.02900,0.01200,-0.02900,0.02900,-0.01200,0.02900,0.01200,0.01200,0.02900,-0.01200,0.02900,-0.02900,0.01200,-0.02900,-0.01200,-0.01200,-0.02900,0*%
%ADD24T24*%
G04 #@! TA.AperFunction,WasherPad*
%AMT18*0 Octagon Pad at angle 0*4,1,8,-0.01242,-0.03000,0.01242,-0.03000,0.03000,-0.01242,0.03000,0.01242,0.01242,0.03000,-0.01242,0.03000,-0.03000,0.01242,-0.03000,-0.01242,-0.01242,-0.03000,0*%
%ADD18T18*%
G04 #@! TA.AperFunction,ViaPad*
%AMT16*0 Octagon Pad at angle 0*4,1,8,-0.01366,-0.03300,0.01366,-0.03300,0.03300,-0.01366,0.03300,0.01366,0.01366,0.03300,-0.01366,0.03300,-0.03300,0.01366,-0.03300,-0.01366,-0.01366,-0.03300,0*%
%ADD16T16*%
G04 #@! TA.AperFunction,ComponentPad*
%ADD27C,0.07100*%
%ADD21C,0.08100*%
G04 #@! TA.AperFunction,WasherPad*
%ADD17C,0.12600*%
G04 #@! TA.AperFunction,ComponentPad*
%ADD19C,0.13600*%
%AMT70*0 Octagon Pad at angle 0*4,1,8,-0.01573,-0.03800,0.01573,-0.03800,0.03800,-0.01573,0.03800,0.01573,0.01573,0.03800,-0.01573,0.03800,-0.03800,0.01573,-0.03800,-0.01573,-0.01573,-0.03800,0*%
%ADD70T70*%
%ADD71O,0.13600X0.08600*%
%AMT25*0 Octagon Pad at angle 0*4,1,8,-0.01780,-0.04300,0.01780,-0.04300,0.04300,-0.01780,0.04300,0.01780,0.01780,0.04300,-0.01780,0.04300,-0.04300,0.01780,-0.04300,-0.01780,-0.01780,-0.04300,0*%
%ADD25T25*%
%AMT22*0 Octagon Pad at angle 0*4,1,8,-0.03023,-0.07300,0.03023,-0.07300,0.07300,-0.03023,0.07300,0.03023,0.03023,0.07300,-0.03023,0.07300,-0.07300,0.03023,-0.07300,-0.03023,-0.03023,-0.07300,0*%
%ADD22T22*%
%AMT23*0 Octagon Pad at angle 0*4,1,8,-0.03230,-0.07800,0.03230,-0.07800,0.07800,-0.03230,0.07800,0.03230,0.03230,0.07800,-0.03230,0.07800,-0.07800,0.03230,-0.07800,-0.03230,-0.03230,-0.07800,0*%
%ADD23T23*%
%ADD26C,0.15600*%
X0Y0D02*
D02*
D13*
X34750Y34350D02*
G75*
G03Y21750J-6300D01*
G01*
G75*
G03Y34350J6300*
G01*
Y943350D02*
G75*
G03Y930750J-6300D01*
G01*
G75*
G03Y943350J6300*
G01*
X793750Y34350D02*
G75*
G03Y21750J-6300D01*
G01*
G75*
G03Y34350J6300*
G01*
Y943350D02*
G75*
G03Y930750J-6300D01*
G01*
G75*
G03Y943350J6300*
G01*
X811750Y25050D02*
G75*
G02X796750Y10050I-15000D01*
G01*
X31750*
G75*
G02X16750Y25050J15000*
G01*
Y940050*
G75*
G02X31750Y955050I15000*
G01*
X69250*
Y953050*
G75*
G03X74250Y948050I5000*
G01*
X126750*
G75*
G03X131750Y953050J5000*
G01*
Y955050*
X796750*
G75*
G02X811750Y940050J-15000*
G01*
Y25050*
D02*
D14*
X28750Y160050D03*
Y236550D03*
Y581550D03*
X58750Y160050D03*
Y236550D03*
X74250Y581550D03*
X90750Y599550D03*
X120250Y255550D03*
X121250Y138050D03*
X136750Y406550D03*
Y445550D03*
X138250Y567550D03*
X173250Y560550D03*
Y599550D03*
X202250Y422050D03*
Y432550D03*
X208250Y420050D03*
Y430050D03*
X211750Y112050D03*
Y127550D03*
X213250Y221550D03*
Y257050D03*
X214250Y581550D03*
X224750Y582050D03*
X225250Y101550D03*
X225750Y138050D03*
Y589050D03*
X228750Y230550D03*
Y247550D03*
X233750Y153050D03*
Y162050D03*
X234250Y576050D03*
Y751550D03*
Y782550D03*
X238250Y445550D03*
X238750Y406550D03*
X239250Y153050D03*
Y162050D03*
X250250Y149050D03*
X291250Y245050D03*
X291750Y422050D03*
Y428050D03*
X297750Y255050D03*
X305750Y560550D03*
Y599550D03*
X319750Y245050D03*
X326250Y271050D03*
X333250Y101550D03*
Y142550D03*
Y224050D03*
Y258550D03*
X341250Y704550D03*
Y718050D03*
Y727050D03*
Y771050D03*
X382250Y578050D03*
Y584050D03*
X387750Y300050D03*
Y306050D03*
X396750Y263050D03*
X397250Y702550D03*
X405250Y270550D03*
X406250Y584050D03*
X406750Y471050D03*
X429250Y263050D03*
X433250Y882050D03*
Y932050D03*
X434250Y702550D03*
X440250Y466550D03*
Y578050D03*
X441250Y270550D03*
X443750Y471050D03*
Y584050D03*
X449250Y444050D03*
X453750Y261550D03*
X455250Y855550D03*
X459750Y261550D03*
X462750Y495550D03*
X463750Y483050D03*
Y561550D03*
Y600550D03*
Y625550D03*
X465750Y261550D03*
Y271550D03*
X471750Y372550D03*
X488750Y412550D03*
Y431050D03*
X494250D03*
X515750Y444550D03*
Y466550D03*
X518250Y794550D03*
X541250Y577050D03*
Y584050D03*
X547250Y577050D03*
Y590050D03*
X557250Y688550D03*
Y722550D03*
X563250Y199050D03*
Y238050D03*
X577250Y112550D03*
X593250Y256050D03*
Y271550D03*
X599250Y112550D03*
X604250Y406550D03*
Y445550D03*
X606250Y128050D03*
X618250Y561550D03*
Y600550D03*
X623750Y282550D03*
Y293550D03*
X640250Y238050D03*
X640750Y199050D03*
X662750Y503550D03*
X675750Y154050D03*
X692250Y251550D03*
X698250Y624550D03*
X706250Y285550D03*
X711250Y174050D03*
X757750Y143550D03*
Y333550D03*
X758250Y206050D03*
X775250Y289050D03*
X775750Y184550D03*
X784250Y304550D03*
X799750D03*
Y333550D03*
Y503550D03*
Y624550D03*
X802250Y184550D03*
D02*
D15*
X37750Y719550D03*
X40750Y577050D03*
X44250Y231550D03*
X48750Y612550D03*
X54250Y625050D03*
X55750Y593050D03*
X58250Y231550D03*
Y630050D03*
X59250Y896050D03*
Y900050D03*
X60750Y612550D03*
X63750Y309550D03*
Y334550D03*
X64250Y603550D03*
X65250Y625050D03*
Y630050D03*
X68250Y600550D03*
X71250Y597550D03*
Y634050D03*
X74750Y637550D03*
X82250Y379050D03*
X90750Y438550D03*
X91750Y530550D03*
Y548550D03*
X92750Y858050D03*
X98750Y346550D03*
Y916050D03*
X101250Y577050D03*
X101750Y270550D03*
X102750Y916050D03*
X109750Y882050D03*
X115750Y842550D03*
Y869050D03*
X117250Y270550D03*
X118750Y295550D03*
X120250Y126550D03*
X123750Y292550D03*
X124750Y601550D03*
Y650550D03*
Y878050D03*
X125250Y102050D03*
Y106050D03*
Y110050D03*
Y114050D03*
Y131050D03*
X126250Y578050D03*
Y585050D03*
X127750Y606050D03*
Y647550D03*
Y772050D03*
X128750Y292550D03*
X131250Y238050D03*
Y247050D03*
X133250Y282550D03*
X133750Y871550D03*
X136250Y215050D03*
Y247050D03*
X136750Y842550D03*
Y863050D03*
X137250Y575550D03*
Y585050D03*
X138750Y294550D03*
X141250Y140050D03*
Y238050D03*
Y264050D03*
X143750Y282550D03*
X145750Y892550D03*
X148750Y291550D03*
X151250Y97050D03*
Y235050D03*
X152750Y756550D03*
Y800050D03*
X153250Y246550D03*
X153750Y282550D03*
X156250Y97050D03*
Y140050D03*
Y235050D03*
Y262550D03*
X156750Y118550D03*
Y750550D03*
Y800050D03*
X161250Y118550D03*
Y140050D03*
Y211550D03*
Y262550D03*
X166250Y140050D03*
Y150050D03*
X169250Y87550D03*
X172250Y109550D03*
Y127050D03*
Y232050D03*
Y249050D03*
Y622050D03*
Y634050D03*
X174750Y618550D03*
Y653550D03*
X175250Y538050D03*
X176250Y419550D03*
Y432550D03*
Y438550D03*
X180750Y558550D03*
X188750D03*
X193750Y607050D03*
X201750Y413550D03*
X207750Y379050D03*
X208250Y141550D03*
X208750Y553550D03*
Y601550D03*
X212250Y523050D03*
Y535050D03*
X219750Y570550D03*
X223250Y871050D03*
X225250Y242550D03*
Y251050D03*
X225750Y556050D03*
X226750Y215550D03*
X228750Y559550D03*
X229250Y553550D03*
Y871050D03*
X229750Y93550D03*
Y106050D03*
X230250Y20050D03*
Y34550D03*
Y127050D03*
Y213050D03*
Y253550D03*
X232750Y96550D03*
X237250Y379050D03*
X238750Y96550D03*
X241250Y140050D03*
X242250Y435550D03*
Y440050D03*
X242750Y216050D03*
X246250Y262050D03*
Y308050D03*
X247250Y727050D03*
X247750Y162050D03*
Y213050D03*
X248250Y551050D03*
X248750Y239550D03*
X249250Y677550D03*
X249750Y140550D03*
X251250Y574050D03*
Y601550D03*
X251750Y154050D03*
Y162050D03*
X252750Y219050D03*
X255750Y162050D03*
X256181Y247050D03*
X256250Y112550D03*
Y235050D03*
Y586050D03*
X257250Y216050D03*
X258750Y404550D03*
X261250Y140550D03*
Y235050D03*
Y247050D03*
Y558550D03*
X264250Y447550D03*
X266250Y87550D03*
Y97050D03*
Y558550D03*
X268750Y404550D03*
X269750Y529050D03*
X271250Y140050D03*
Y165050D03*
Y601550D03*
Y608050D03*
X272750Y526050D03*
X274750Y551050D03*
X275250Y824050D03*
Y856550D03*
X275750Y574550D03*
X276250Y585550D03*
X277250Y233550D03*
Y247050D03*
X277750Y379050D03*
Y526050D03*
X278750Y667550D03*
X281250Y574550D03*
Y585550D03*
X283250Y704550D03*
X283750Y270550D03*
X286250Y679050D03*
X286750Y673050D03*
X289750Y818050D03*
Y835550D03*
X291750Y438550D03*
X293750Y250550D03*
X294250Y259050D03*
X295250Y670050D03*
Y678550D03*
Y705550D03*
X296750Y384050D03*
X301750Y391050D03*
X302750Y529050D03*
X306250Y387050D03*
X308750Y215550D03*
X312250Y526050D03*
X314250Y438550D03*
X315750Y523550D03*
X316750Y121550D03*
Y132550D03*
X318250Y395050D03*
Y483550D03*
Y487550D03*
X319750Y250550D03*
X321250Y275050D03*
X326250Y690050D03*
Y704550D03*
X329250Y162050D03*
X332250Y158550D03*
Y165050D03*
X332750Y818550D03*
Y838550D03*
X336750Y93550D03*
Y113550D03*
X340250Y139550D03*
X341750Y219550D03*
Y387050D03*
Y391050D03*
Y395050D03*
X345250Y384050D03*
X345750Y700050D03*
Y855550D03*
X346010Y675047D03*
X347750Y215550D03*
X348750Y139550D03*
Y483550D03*
Y487550D03*
X349250Y690550D03*
X350750Y158550D03*
X351750Y341550D03*
X353250Y219550D03*
X353750Y124550D03*
Y162050D03*
X355750Y341550D03*
X356750Y165050D03*
X357010Y650544D03*
Y670544D03*
Y675047D03*
X357750Y700050D03*
X361250Y117050D03*
Y690550D03*
Y702550D03*
X363750Y246550D03*
Y314550D03*
X364250Y650544D03*
Y670544D03*
X366750Y81050D03*
X367250Y28050D03*
Y44050D03*
X369250Y398550D03*
X370250Y702050D03*
X372250Y351550D03*
X372750Y395550D03*
Y401550D03*
Y405550D03*
Y409550D03*
X375250Y818550D03*
Y841550D03*
X378250Y341550D03*
Y347550D03*
X379750Y231550D03*
X381250Y480050D03*
X382250Y530550D03*
X382750Y617550D03*
Y625550D03*
Y629550D03*
Y633550D03*
X384250Y309550D03*
Y463050D03*
X386750Y259550D03*
Y264050D03*
X388250Y855550D03*
X388750Y476050D03*
X390250Y256550D03*
X397750Y253550D03*
X404250Y249050D03*
X405750Y818550D03*
Y846550D03*
X407250Y259550D03*
X409250Y537550D03*
X409750Y629550D03*
X411250Y331550D03*
Y533550D03*
Y625550D03*
Y740550D03*
X413750Y131550D03*
X414750Y460050D03*
X416750Y616550D03*
X417250Y343550D03*
X421750Y619550D03*
X422750Y335550D03*
Y543550D03*
Y547550D03*
X425250Y266550D03*
X428750Y254050D03*
X430750Y815550D03*
X432250Y800050D03*
X432750Y710550D03*
X433250Y249050D03*
X435250Y796050D03*
X436750Y710550D03*
X438250Y746550D03*
X439250Y255050D03*
X442750Y743550D03*
X443250Y280550D03*
Y331550D03*
Y335550D03*
Y339550D03*
Y343550D03*
Y347550D03*
Y351550D03*
Y395550D03*
Y401550D03*
Y405550D03*
Y409550D03*
Y476050D03*
Y480050D03*
Y612050D03*
Y616550D03*
Y633550D03*
X443750Y828550D03*
X444750Y261550D03*
Y526050D03*
Y533550D03*
Y537550D03*
X445750Y796050D03*
Y800050D03*
X446250Y398550D03*
X446750Y543550D03*
Y547550D03*
X448750Y463050D03*
Y698550D03*
X449250Y572050D03*
Y588050D03*
X451250Y287050D03*
Y543550D03*
X462250Y113050D03*
X464750Y458050D03*
X465250Y116050D03*
X466250Y140050D03*
X467250Y727050D03*
X467750Y573550D03*
Y587550D03*
X470750Y140050D03*
Y261550D03*
X473750Y442050D03*
Y485050D03*
X474250Y681050D03*
X478750Y580550D03*
Y602550D03*
X479750Y262550D03*
Y659550D03*
Y748550D03*
X481250Y255050D03*
X482250Y727050D03*
X483750Y485050D03*
Y602050D03*
X490750Y785550D03*
Y825050D03*
X491250Y488050D03*
X493750Y457550D03*
Y470050D03*
Y559550D03*
X494250Y386550D03*
X498250Y439050D03*
Y861550D03*
X498750Y485050D03*
Y602050D03*
X501750Y358550D03*
X502250Y199050D03*
X503750Y442050D03*
Y458050D03*
X506750Y367050D03*
X507250Y547050D03*
Y559550D03*
X508750Y240050D03*
Y277050D03*
Y458050D03*
Y485550D03*
X510750Y190550D03*
X511750Y356050D03*
X514750Y571050D03*
Y589550D03*
X515250Y619550D03*
X515750Y359050D03*
X516250Y120050D03*
X520750Y362050D03*
X522250Y699050D03*
Y716050D03*
X523750Y388050D03*
X525250Y353050D03*
X526250Y699050D03*
Y716050D03*
X527250Y797050D03*
Y830550D03*
X528250Y349550D03*
X528750Y197050D03*
X533250Y622550D03*
Y644550D03*
X535250Y560550D03*
X546250Y204050D03*
X550750Y409550D03*
X553750Y418050D03*
X554250Y400550D03*
Y470550D03*
X556750Y404050D03*
X557750Y421050D03*
Y432550D03*
X559250Y167550D03*
X560250Y17050D03*
Y34550D03*
X562750Y421050D03*
Y447550D03*
X563250Y204050D03*
X564250Y20050D03*
Y34550D03*
X565750Y880550D03*
X566750Y521050D03*
Y551550D03*
X567750Y699550D03*
X568250Y37550D03*
X569750Y524550D03*
Y544050D03*
Y883550D03*
X571250Y282550D03*
X573250Y886550D03*
X573750Y404550D03*
Y432050D03*
X575250Y586550D03*
X577750Y684050D03*
X578250Y118550D03*
X578750Y370550D03*
Y877550D03*
X580750Y160550D03*
X581250Y116050D03*
X581750Y261050D03*
Y275050D03*
Y799550D03*
Y835550D03*
X583250Y297050D03*
X583750Y404550D03*
Y432050D03*
Y559550D03*
Y602550D03*
Y606550D03*
X585750Y392550D03*
Y397550D03*
Y799550D03*
Y835550D03*
X586750Y886550D03*
X587250Y294550D03*
X589250Y259050D03*
Y276050D03*
Y404550D03*
X589750Y359550D03*
Y799550D03*
Y835550D03*
X592750Y162550D03*
X593750Y799550D03*
Y835550D03*
X594750Y105550D03*
X596750Y739550D03*
Y761050D03*
Y886050D03*
X600750Y586550D03*
X603250Y379550D03*
Y383550D03*
X604750Y183050D03*
Y187550D03*
Y208050D03*
Y367050D03*
X606750Y886050D03*
X607750Y235050D03*
Y240550D03*
X608250Y199050D03*
Y219550D03*
X612250Y158050D03*
X612750Y173550D03*
X613750Y349550D03*
X614250Y363050D03*
X616250Y158050D03*
X616750Y877550D03*
X618750Y699550D03*
X619750Y130050D03*
Y383550D03*
X621750Y353050D03*
X623750Y600550D03*
X624750Y130050D03*
Y157550D03*
Y219550D03*
X625250Y415550D03*
X628250Y23050D03*
Y32050D03*
X629250Y164050D03*
X629750Y95050D03*
Y115050D03*
X631250Y349550D03*
X633250Y60050D03*
X634250Y250050D03*
X637250Y247050D03*
X638750Y164050D03*
Y418550D03*
X639750Y130050D03*
Y175050D03*
X640250Y114550D03*
Y281050D03*
X641250Y140550D03*
X642750Y171550D03*
X645250Y225550D03*
X645750Y183050D03*
X646250Y247050D03*
X647750Y804550D03*
Y827550D03*
Y874550D03*
X649250Y337050D03*
X650750Y801550D03*
Y832050D03*
Y928550D03*
X651250Y247050D03*
Y290050D03*
X651750Y874550D03*
Y886050D03*
X653750Y341550D03*
X654750Y105550D03*
Y114550D03*
X655750Y130550D03*
X656250Y262550D03*
Y273550D03*
X656750Y922050D03*
Y926050D03*
X658250Y600550D03*
Y626050D03*
X659250Y29550D03*
Y35550D03*
Y163550D03*
Y171550D03*
X660250Y341550D03*
X661250Y197050D03*
X662250Y102050D03*
Y123550D03*
X662750Y140050D03*
Y145050D03*
X663250Y498550D03*
Y510050D03*
Y514050D03*
Y518050D03*
X665250Y341550D03*
X666250Y262550D03*
X670750Y341550D03*
X671250Y213550D03*
Y218050D03*
Y262550D03*
X674250Y29550D03*
Y50550D03*
Y552550D03*
X675750Y142550D03*
Y918050D03*
Y922050D03*
Y926050D03*
X676250Y224050D03*
Y262550D03*
Y273550D03*
Y290050D03*
Y341550D03*
X676750Y40550D03*
X677250Y89050D03*
X678750Y139550D03*
X680250Y291550D03*
X681250Y213050D03*
Y240050D03*
Y247050D03*
X681750Y161050D03*
Y341550D03*
X684750Y153550D03*
Y179050D03*
X686750Y341550D03*
X687250Y284550D03*
Y576550D03*
X687750Y167550D03*
Y203050D03*
X691250Y273550D03*
Y277550D03*
Y341550D03*
X691750Y203050D03*
Y222550D03*
X694250Y146550D03*
X695750Y139550D03*
X696250Y341550D03*
X697250Y153550D03*
Y179050D03*
X699250Y721050D03*
Y741050D03*
Y761050D03*
X704750Y223050D03*
Y227050D03*
Y231050D03*
X705250Y262550D03*
X705750Y721050D03*
X706250Y372050D03*
Y415550D03*
Y420050D03*
Y498550D03*
Y572550D03*
Y576550D03*
Y656550D03*
Y682050D03*
Y686050D03*
Y741050D03*
Y761050D03*
X710250Y258550D03*
Y656550D03*
Y682050D03*
X710750Y239550D03*
X711750Y868550D03*
Y891050D03*
X714250Y341550D03*
Y656550D03*
Y682050D03*
X716250Y274550D03*
X718750Y341550D03*
Y656550D03*
Y682050D03*
X721250Y161050D03*
Y274550D03*
Y300050D03*
X722250Y117550D03*
Y123550D03*
Y127550D03*
Y668050D03*
X722750Y218550D03*
X723750Y341550D03*
X725750Y120550D03*
X726250Y150050D03*
Y221550D03*
X728750Y341550D03*
X731750Y219050D03*
X733750Y341550D03*
X735750Y214050D03*
X736250Y239550D03*
Y262550D03*
X738250Y224550D03*
X738750Y197050D03*
Y341550D03*
X742750Y224550D03*
X743750Y341550D03*
X745750Y247050D03*
X746250Y262550D03*
Y917050D03*
X746750Y123550D03*
Y127550D03*
Y308550D03*
X747750Y212550D03*
Y224550D03*
X748750Y341550D03*
Y648550D03*
Y671050D03*
X750250Y120550D03*
X751250Y240050D03*
Y308550D03*
X751750Y645050D03*
Y667550D03*
X754750Y510050D03*
Y641550D03*
Y664050D03*
X758250Y117550D03*
X758750Y213550D03*
X760250Y247050D03*
X763250Y28050D03*
Y34550D03*
Y53050D03*
X768750Y190050D03*
X770250Y893050D03*
X771750Y193050D03*
X772750Y876050D03*
X773250Y825050D03*
Y829050D03*
X774250Y514050D03*
X774750Y174550D03*
X776250Y271550D03*
X776750Y226550D03*
X778750Y518050D03*
X779250Y275550D03*
Y279550D03*
X782750Y172050D03*
X784750Y279550D03*
X785250Y825050D03*
Y871550D03*
X789750Y275050D03*
X791750Y829050D03*
X792250Y226550D03*
Y271550D03*
X794750Y874050D03*
D02*
D16*
X61750Y931050D03*
X86750Y899050D03*
X96750D03*
X104750D03*
X114750D03*
X148250Y931050D03*
X179750Y895050D03*
Y905050D03*
X189750Y895050D03*
Y905050D03*
X199750Y895050D03*
Y905050D03*
X209750Y895050D03*
Y905050D03*
X219750Y895050D03*
Y905050D03*
X576750Y895050D03*
Y905050D03*
X586750Y895050D03*
Y905050D03*
X596750Y895050D03*
Y905050D03*
X606750Y895050D03*
Y905050D03*
X616750Y895050D03*
Y905050D03*
X626750Y895050D03*
Y905050D03*
X636750Y895050D03*
Y905050D03*
X646750Y895050D03*
Y905050D03*
X696750Y895050D03*
Y905050D03*
X706750Y895050D03*
Y905050D03*
X716750Y895050D03*
Y905050D03*
X726750Y895050D03*
Y905050D03*
X736750Y895050D03*
Y905050D03*
X781750Y105050D03*
Y122550D03*
D02*
D17*
X178250Y465050D03*
Y740550D03*
X650750Y465050D03*
Y740550D03*
D02*
D18*
X58750Y316050D03*
Y326050D03*
X68750Y316050D03*
Y326050D03*
X78750Y316050D03*
Y326050D03*
X88750Y316050D03*
Y326050D03*
X91250Y208550D03*
Y213550D03*
Y243550D03*
Y248550D03*
Y263550D03*
Y268550D03*
Y298550D03*
Y303550D03*
X96750Y619050D03*
X98750Y316050D03*
Y326050D03*
X108750Y316050D03*
Y326050D03*
X116750Y619050D03*
X118750Y316050D03*
Y326050D03*
X128750Y316050D03*
Y326050D03*
X138750Y316050D03*
Y326050D03*
X148750Y316050D03*
Y326050D03*
X158750Y316050D03*
Y326050D03*
X168750Y316050D03*
Y326050D03*
X178750Y316050D03*
Y326050D03*
X188750Y316050D03*
Y326050D03*
X198750Y316050D03*
Y326050D03*
X208750Y316050D03*
Y326050D03*
X218750Y316050D03*
Y326050D03*
X228750Y316050D03*
Y326050D03*
X233750Y81050D03*
X238750D03*
Y316050D03*
Y326050D03*
X248750Y316050D03*
Y326050D03*
X258750Y316050D03*
Y326050D03*
X268750Y81050D03*
Y316050D03*
Y326050D03*
X273750Y81050D03*
X278750Y316050D03*
Y326050D03*
X288750Y316050D03*
Y326050D03*
X298750Y316050D03*
Y326050D03*
X338750Y81050D03*
X343750D03*
X373750D03*
X378750D03*
X413750Y103550D03*
Y108550D03*
Y138550D03*
Y143550D03*
X526750Y478550D03*
X528750Y316050D03*
Y326050D03*
X529250Y373550D03*
X538750Y316050D03*
Y326050D03*
X540750Y542550D03*
X541750Y621550D03*
X546750Y478550D03*
X548750Y316050D03*
Y326050D03*
X549250Y373550D03*
X558750Y316050D03*
Y326050D03*
X560750Y542550D03*
X561750Y621550D03*
X568750Y316050D03*
Y326050D03*
X578750Y316050D03*
Y326050D03*
X588750Y316050D03*
Y326050D03*
X598750Y316050D03*
Y326050D03*
X608750Y316050D03*
Y326050D03*
X618750Y316050D03*
Y326050D03*
X628750Y316050D03*
Y326050D03*
X638750Y316050D03*
Y326050D03*
X648750Y316050D03*
Y326050D03*
X658750Y316050D03*
Y326050D03*
X668750Y316050D03*
Y326050D03*
X678750Y316050D03*
Y326050D03*
X688750Y316050D03*
Y326050D03*
X698750Y316050D03*
Y326050D03*
X708750Y316050D03*
Y326050D03*
X718750Y316050D03*
Y326050D03*
X728750Y316050D03*
Y326050D03*
X738750Y316050D03*
Y326050D03*
X748750Y316050D03*
Y326050D03*
X758750Y316050D03*
Y326050D03*
X763750Y871050D03*
Y881050D03*
Y891050D03*
X766750Y140050D03*
Y150050D03*
Y160050D03*
Y170050D03*
X768750Y316050D03*
Y326050D03*
D02*
D19*
X75250Y909550D03*
X126750D03*
D02*
D70*
X41750Y768050D03*
Y778050D03*
Y788050D03*
Y808050D03*
Y818050D03*
X86250Y46050D03*
Y153550D03*
X96250Y46050D03*
Y153550D03*
X106250Y46050D03*
Y153550D03*
X191250Y46050D03*
Y153550D03*
X201250Y46050D03*
Y153550D03*
X211250Y46050D03*
Y153550D03*
X296250Y46050D03*
Y153550D03*
X306250Y46050D03*
Y153550D03*
X316250Y46050D03*
Y153550D03*
X401250Y46050D03*
Y153550D03*
X411250Y46050D03*
Y153550D03*
X421250Y46050D03*
Y153550D03*
X491250Y37550D03*
Y109550D03*
X501250Y37550D03*
Y109550D03*
X511250Y37550D03*
Y109550D03*
X521250Y37550D03*
Y109550D03*
X531250Y37550D03*
Y109550D03*
X586250Y46050D03*
X596250D03*
X606250D03*
X693750Y37550D03*
Y109550D03*
X703750Y37550D03*
Y109550D03*
X713750Y37550D03*
Y109550D03*
X723750Y37550D03*
Y109550D03*
X733750Y37550D03*
Y109550D03*
X791750Y60050D03*
Y80050D03*
X801750Y70050D03*
D02*
D71*
X282750Y897050D03*
X342750D03*
X402750D03*
X462750D03*
X522750D03*
D02*
D20*
X282750Y880050D03*
X342750D03*
X402750D03*
X462750D03*
X522750D03*
D02*
D21*
X265750Y911550D03*
X299750D03*
X325750D03*
X359750D03*
X385750D03*
X419750D03*
X445750D03*
X479750D03*
X505750D03*
X539750D03*
D02*
D22*
X479750Y78050D03*
X542750D03*
X682250D03*
X745250D03*
D02*
D23*
X78750Y73550D03*
Y181050D03*
X113750Y73550D03*
Y181050D03*
X183750Y73550D03*
Y181050D03*
X218750Y73550D03*
Y181050D03*
X288750Y73550D03*
Y181050D03*
X323750Y73550D03*
Y181050D03*
X393750Y73550D03*
Y181050D03*
X428750Y73550D03*
Y181050D03*
X578750Y73550D03*
X613750D03*
D02*
D24*
X481250Y299050D03*
Y307050D03*
Y315050D03*
Y323050D03*
D02*
D25*
X771750Y100050D03*
Y127550D03*
D02*
D26*
X331750Y321050D03*
D02*
D27*
X83750Y923550D03*
Y938550D03*
X117750Y923550D03*
Y938550D03*
X0Y0D02*
M02*
