G04 DesignSpark PCB PRO Gerber Version 9.0 Build 5138 *
G04 #@! TF.Part,Single*
G04 #@! TF.FileFunction,Copper,L1,Top *
G04 #@! TF.FilePolarity,Positive *
%FSLAX35Y35*%
%MOIN*%
%ADD13C,0.00500*%
%ADD75C,0.02000*%
G04 #@! TA.AperFunction,ViaPad*
%ADD73C,0.03600*%
G04 #@! TD.AperFunction*
%ADD74C,0.08000*%
G04 #@! TA.AperFunction,ComponentPad*
%ADD76C,0.15000*%
X0Y0D02*
D02*
D13*
X15300Y14000D02*
X780300D01*
G75*
G03X795300Y29000J15000*
G01*
Y944000*
G75*
G03X780300Y959000I-15000*
G01*
X15300*
G75*
G03X300Y944000J-15000*
G01*
Y29000*
G75*
G03X15300Y14000I15000*
G01*
X18300Y38300D02*
G75*
G03Y25700J-6300D01*
G01*
G75*
G03Y38300J6300*
G01*
Y947300D02*
G75*
G03Y934700J-6300D01*
G01*
G75*
G03Y947300J6300*
G01*
X79800Y91500D02*
G75*
G03Y63500J-14000D01*
G01*
G75*
G03Y91500J14000*
G01*
Y199000D02*
G75*
G03Y171000J-14000D01*
G01*
G75*
G03Y199000J14000*
G01*
X184800Y91500D02*
G75*
G03Y63500J-14000D01*
G01*
G75*
G03Y91500J14000*
G01*
Y199000D02*
G75*
G03Y171000J-14000D01*
G01*
G75*
G03Y199000J14000*
G01*
X289800Y91500D02*
G75*
G03Y63500J-14000D01*
G01*
G75*
G03Y91500J14000*
G01*
Y199000D02*
G75*
G03Y171000J-14000D01*
G01*
G75*
G03Y199000J14000*
G01*
X394800Y91500D02*
G75*
G03Y63500J-14000D01*
G01*
G75*
G03Y91500J14000*
G01*
Y199000D02*
G75*
G03Y171000J-14000D01*
G01*
G75*
G03Y199000J14000*
G01*
X478800Y138000D02*
X690800D01*
G75*
G03X693300Y140500J2500*
G01*
Y284500*
G75*
G03X690800Y287000I-2500*
G01*
X478800*
G75*
G03X476300Y284500J-2500*
G01*
Y140500*
G75*
G03X478800Y138000I2500*
G01*
X494800Y97500D02*
G75*
G03Y57500J-20000D01*
G01*
G75*
G03Y97500J20000*
G01*
X579800Y91500D02*
G75*
G03Y63500J-14000D01*
G01*
G75*
G03Y91500J14000*
G01*
X697300Y97500D02*
G75*
G03Y57500J-20000D01*
G01*
G75*
G03Y97500J20000*
G01*
X777300Y38300D02*
G75*
G03Y25700J-6300D01*
G01*
G75*
G03Y38300J6300*
G01*
Y947300D02*
G75*
G03Y934700J-6300D01*
G01*
G75*
G03Y947300J6300*
G01*
X790800Y917500D02*
G75*
G02X753800Y954500J37000D01*
G01*
X41800*
G75*
G02X4800Y917500I-37000*
G01*
Y55500*
G75*
G02X41800Y18500J-37000*
G01*
X753800*
G75*
G02X790800Y55500I37000*
G01*
Y917500*
X43550Y445000D02*
G75*
G02X61050I8750D01*
G01*
G75*
G02X43550I-8750*
G01*
X58550Y362500D02*
G75*
G02X76050I8750D01*
G01*
G75*
G02X58550I-8750*
G01*
X79800Y96000D02*
G75*
G02X98300Y77500J-18500D01*
G01*
G75*
G02X79800Y59000I-18500*
G01*
G75*
G02X61300Y77500J18500*
G01*
G75*
G02X79800Y96000I18500*
G01*
Y203500D02*
G75*
G02X98300Y185000J-18500D01*
G01*
G75*
G02X79800Y166500I-18500*
G01*
G75*
G02X61300Y185000J18500*
G01*
G75*
G02X79800Y203500I18500*
G01*
X43550Y485000D02*
G75*
G02X61050I8750D01*
G01*
G75*
G02X43550I-8750*
G01*
Y550000D02*
G75*
G02X61050I8750D01*
G01*
G75*
G02X43550I-8750*
G01*
Y590000D02*
G75*
G02X61050I8750D01*
G01*
G75*
G02X43550I-8750*
G01*
Y630000D02*
G75*
G02X61050I8750D01*
G01*
G75*
G02X43550I-8750*
G01*
Y670000D02*
G75*
G02X61050I8750D01*
G01*
G75*
G02X43550I-8750*
G01*
Y735000D02*
G75*
G02X61050I8750D01*
G01*
G75*
G02X43550I-8750*
G01*
Y775000D02*
G75*
G02X61050I8750D01*
G01*
G75*
G02X43550I-8750*
G01*
Y815000D02*
G75*
G02X61050I8750D01*
G01*
G75*
G02X43550I-8750*
G01*
Y855000D02*
G75*
G02X61050I8750D01*
G01*
G75*
G02X43550I-8750*
G01*
X83550Y445000D02*
G75*
G02X101050I8750D01*
G01*
G75*
G02X83550I-8750*
G01*
X86050Y392500D02*
G75*
G02X103550I8750D01*
G01*
G75*
G02X86050I-8750*
G01*
X83550Y485000D02*
G75*
G02X101050I8750D01*
G01*
G75*
G02X83550I-8750*
G01*
Y550000D02*
G75*
G02X101050I8750D01*
G01*
G75*
G02X83550I-8750*
G01*
Y590000D02*
G75*
G02X101050I8750D01*
G01*
G75*
G02X83550I-8750*
G01*
Y630000D02*
G75*
G02X101050I8750D01*
G01*
G75*
G02X83550I-8750*
G01*
Y670000D02*
G75*
G02X101050I8750D01*
G01*
G75*
G02X83550I-8750*
G01*
Y735000D02*
G75*
G02X101050I8750D01*
G01*
G75*
G02X83550I-8750*
G01*
Y775000D02*
G75*
G02X101050I8750D01*
G01*
G75*
G02X83550I-8750*
G01*
Y815000D02*
G75*
G02X101050I8750D01*
G01*
G75*
G02X83550I-8750*
G01*
Y855000D02*
G75*
G02X101050I8750D01*
G01*
G75*
G02X83550I-8750*
G01*
X116050Y362500D02*
G75*
G02X133550I8750D01*
G01*
G75*
G02X116050I-8750*
G01*
X133550Y445000D02*
G75*
G02X151050I8750D01*
G01*
G75*
G02X133550I-8750*
G01*
X143550Y392500D02*
G75*
G02X161050I8750D01*
G01*
G75*
G02X143550I-8750*
G01*
X133550Y485000D02*
G75*
G02X151050I8750D01*
G01*
G75*
G02X133550I-8750*
G01*
Y550000D02*
G75*
G02X151050I8750D01*
G01*
G75*
G02X133550I-8750*
G01*
Y590000D02*
G75*
G02X151050I8750D01*
G01*
G75*
G02X133550I-8750*
G01*
Y630000D02*
G75*
G02X151050I8750D01*
G01*
G75*
G02X133550I-8750*
G01*
Y670000D02*
G75*
G02X151050I8750D01*
G01*
G75*
G02X133550I-8750*
G01*
Y735000D02*
G75*
G02X151050I8750D01*
G01*
G75*
G02X133550I-8750*
G01*
X312300Y706250D02*
G75*
G02X317550Y701000J-5250D01*
G01*
G75*
G02X312300Y695750I-5250*
G01*
X142300*
G75*
G02X137050Y701000J5250*
G01*
G75*
G02X142300Y706250I5250*
G01*
X312300*
X258550Y392500D02*
G75*
G02X276050I8750D01*
G01*
G75*
G02X258550I-8750*
G01*
X289800Y96000D02*
G75*
G02X308300Y77500J-18500D01*
G01*
G75*
G02X289800Y59000I-18500*
G01*
G75*
G02X271300Y77500J18500*
G01*
G75*
G02X289800Y96000I18500*
G01*
Y203500D02*
G75*
G02X308300Y185000J-18500D01*
G01*
G75*
G02X289800Y166500I-18500*
G01*
G75*
G02X271300Y185000J18500*
G01*
G75*
G02X289800Y203500I18500*
G01*
X263550Y445000D02*
G75*
G02X281050I8750D01*
G01*
G75*
G02X263550I-8750*
G01*
Y485000D02*
G75*
G02X281050I8750D01*
G01*
G75*
G02X263550I-8750*
G01*
Y550000D02*
G75*
G02X281050I8750D01*
G01*
G75*
G02X263550I-8750*
G01*
Y590000D02*
G75*
G02X281050I8750D01*
G01*
G75*
G02X263550I-8750*
G01*
Y630000D02*
G75*
G02X281050I8750D01*
G01*
G75*
G02X263550I-8750*
G01*
Y670000D02*
G75*
G02X281050I8750D01*
G01*
G75*
G02X263550I-8750*
G01*
X288550Y362500D02*
G75*
G02X306050I8750D01*
G01*
G75*
G02X288550I-8750*
G01*
X303550Y445000D02*
G75*
G02X321050I8750D01*
G01*
G75*
G02X303550I-8750*
G01*
X316050Y392500D02*
G75*
G02X333550I8750D01*
G01*
G75*
G02X316050I-8750*
G01*
X303550Y485000D02*
G75*
G02X321050I8750D01*
G01*
G75*
G02X303550I-8750*
G01*
Y550000D02*
G75*
G02X321050I8750D01*
G01*
G75*
G02X303550I-8750*
G01*
Y590000D02*
G75*
G02X321050I8750D01*
G01*
G75*
G02X303550I-8750*
G01*
Y630000D02*
G75*
G02X321050I8750D01*
G01*
G75*
G02X303550I-8750*
G01*
Y670000D02*
G75*
G02X321050I8750D01*
G01*
G75*
G02X303550I-8750*
G01*
X184800Y96000D02*
G75*
G02Y59000J-18500D01*
G01*
G75*
G02X166300Y77500J18500*
G01*
G75*
G02X184800Y96000I18500*
G01*
Y203500D02*
G75*
G02X203300Y185000J-18500D01*
G01*
G75*
G02X184800Y166500I-18500*
G01*
G75*
G02X166300Y185000J18500*
G01*
G75*
G02X184800Y203500I18500*
G01*
X173550Y362500D02*
G75*
G02X191050I8750D01*
G01*
G75*
G02X173550I-8750*
G01*
Y445000D02*
G75*
G02X191050I8750D01*
G01*
G75*
G02X173550I-8750*
G01*
Y485000D02*
G75*
G02X191050I8750D01*
G01*
G75*
G02X173550I-8750*
G01*
Y550000D02*
G75*
G02X191050I8750D01*
G01*
G75*
G02X173550I-8750*
G01*
Y590000D02*
G75*
G02X191050I8750D01*
G01*
G75*
G02X173550I-8750*
G01*
Y630000D02*
G75*
G02X191050I8750D01*
G01*
G75*
G02X173550I-8750*
G01*
Y670000D02*
G75*
G02X191050I8750D01*
G01*
G75*
G02X173550I-8750*
G01*
X201050Y392500D02*
G75*
G02X218550I8750D01*
G01*
G75*
G02X201050I-8750*
G01*
X213550Y445000D02*
G75*
G02X231050I8750D01*
G01*
G75*
G02X213550I-8750*
G01*
X231050Y362500D02*
G75*
G02X248550I8750D01*
G01*
G75*
G02X231050I-8750*
G01*
X213550Y485000D02*
G75*
G02X231050I8750D01*
G01*
G75*
G02X213550I-8750*
G01*
Y590000D02*
G75*
G02X231050I8750D01*
G01*
G75*
G02X213550I-8750*
G01*
Y630000D02*
G75*
G02X231050I8750D01*
G01*
G75*
G02X213550I-8750*
G01*
Y670000D02*
G75*
G02X231050I8750D01*
G01*
G75*
G02X213550I-8750*
G01*
X133550Y775000D02*
G75*
G02X151050I8750D01*
G01*
G75*
G02X133550I-8750*
G01*
Y815000D02*
G75*
G02X151050I8750D01*
G01*
G75*
G02X133550I-8750*
G01*
Y855000D02*
G75*
G02X151050I8750D01*
G01*
G75*
G02X133550I-8750*
G01*
X173550Y735000D02*
G75*
G02X191050I8750D01*
G01*
G75*
G02X173550I-8750*
G01*
Y775000D02*
G75*
G02X191050I8750D01*
G01*
G75*
G02X173550I-8750*
G01*
Y815000D02*
G75*
G02X191050I8750D01*
G01*
G75*
G02X173550I-8750*
G01*
Y855000D02*
G75*
G02X191050I8750D01*
G01*
G75*
G02X173550I-8750*
G01*
X213550Y735000D02*
G75*
G02X231050I8750D01*
G01*
G75*
G02X213550I-8750*
G01*
Y775000D02*
G75*
G02X231050I8750D01*
G01*
G75*
G02X213550I-8750*
G01*
Y815000D02*
G75*
G02X231050I8750D01*
G01*
G75*
G02X213550I-8750*
G01*
Y855000D02*
G75*
G02X231050I8750D01*
G01*
G75*
G02X213550I-8750*
G01*
X263550Y735000D02*
G75*
G02X281050I8750D01*
G01*
G75*
G02X263550I-8750*
G01*
Y775000D02*
G75*
G02X281050I8750D01*
G01*
G75*
G02X263550I-8750*
G01*
Y815000D02*
G75*
G02X281050I8750D01*
G01*
G75*
G02X263550I-8750*
G01*
Y855000D02*
G75*
G02X281050I8750D01*
G01*
G75*
G02X263550I-8750*
G01*
X303550Y734500D02*
G75*
G02X321050I8750D01*
G01*
G75*
G02X303550I-8750*
G01*
Y775000D02*
G75*
G02X321050I8750D01*
G01*
G75*
G02X303550I-8750*
G01*
Y815000D02*
G75*
G02X321050I8750D01*
G01*
G75*
G02X303550I-8750*
G01*
Y855000D02*
G75*
G02X321050I8750D01*
G01*
G75*
G02X303550I-8750*
G01*
X343550Y445000D02*
G75*
G02X361050I8750D01*
G01*
G75*
G02X343550I-8750*
G01*
X346050Y362500D02*
G75*
G02X363550I8750D01*
G01*
G75*
G02X346050I-8750*
G01*
X343550Y485000D02*
G75*
G02X361050I8750D01*
G01*
G75*
G02X343550I-8750*
G01*
Y590000D02*
G75*
G02X361050I8750D01*
G01*
G75*
G02X343550I-8750*
G01*
Y630000D02*
G75*
G02X361050I8750D01*
G01*
G75*
G02X343550I-8750*
G01*
Y670000D02*
G75*
G02X361050I8750D01*
G01*
G75*
G02X343550I-8750*
G01*
Y735000D02*
G75*
G02X361050I8750D01*
G01*
G75*
G02X343550I-8750*
G01*
Y775000D02*
G75*
G02X361050I8750D01*
G01*
G75*
G02X343550I-8750*
G01*
Y815000D02*
G75*
G02X361050I8750D01*
G01*
G75*
G02X343550I-8750*
G01*
Y855000D02*
G75*
G02X361050I8750D01*
G01*
G75*
G02X343550I-8750*
G01*
X373550Y392500D02*
G75*
G02X391050I8750D01*
G01*
G75*
G02X373550I-8750*
G01*
X394800Y96000D02*
G75*
G02X413300Y77500J-18500D01*
G01*
G75*
G02X394800Y59000I-18500*
G01*
G75*
G02X376300Y77500J18500*
G01*
G75*
G02X394800Y96000I18500*
G01*
Y203500D02*
G75*
G02X413300Y185000J-18500D01*
G01*
G75*
G02X394800Y166500I-18500*
G01*
G75*
G02X376300Y185000J18500*
G01*
G75*
G02X394800Y203500I18500*
G01*
X393550Y445000D02*
G75*
G02X411050I8750D01*
G01*
G75*
G02X393550I-8750*
G01*
X403550Y362500D02*
G75*
G02X421050I8750D01*
G01*
G75*
G02X403550I-8750*
G01*
X393550Y485000D02*
G75*
G02X411050I8750D01*
G01*
G75*
G02X393550I-8750*
G01*
Y550000D02*
G75*
G02X411050I8750D01*
G01*
G75*
G02X393550I-8750*
G01*
Y590000D02*
G75*
G02X411050I8750D01*
G01*
G75*
G02X393550I-8750*
G01*
Y630000D02*
G75*
G02X411050I8750D01*
G01*
G75*
G02X393550I-8750*
G01*
Y670000D02*
G75*
G02X411050I8750D01*
G01*
G75*
G02X393550I-8750*
G01*
Y735000D02*
G75*
G02X411050I8750D01*
G01*
G75*
G02X393550I-8750*
G01*
Y775000D02*
G75*
G02X411050I8750D01*
G01*
G75*
G02X393550I-8750*
G01*
Y815000D02*
G75*
G02X411050I8750D01*
G01*
G75*
G02X393550I-8750*
G01*
Y855000D02*
G75*
G02X411050I8750D01*
G01*
G75*
G02X393550I-8750*
G01*
X431050Y392500D02*
G75*
G02X448550I8750D01*
G01*
G75*
G02X431050I-8750*
G01*
X433550Y445000D02*
G75*
G02X451050I8750D01*
G01*
G75*
G02X433550I-8750*
G01*
Y485000D02*
G75*
G02X451050I8750D01*
G01*
G75*
G02X433550I-8750*
G01*
Y550000D02*
G75*
G02X451050I8750D01*
G01*
G75*
G02X433550I-8750*
G01*
Y590000D02*
G75*
G02X451050I8750D01*
G01*
G75*
G02X433550I-8750*
G01*
Y630000D02*
G75*
G02X451050I8750D01*
G01*
G75*
G02X433550I-8750*
G01*
Y670000D02*
G75*
G02X451050I8750D01*
G01*
G75*
G02X433550I-8750*
G01*
Y735000D02*
G75*
G02X451050I8750D01*
G01*
G75*
G02X433550I-8750*
G01*
X733550D02*
G75*
G02X751050I8750D01*
G01*
G75*
G02X744550Y726544I-8750*
G01*
Y716504*
G75*
G02Y716501I-814J-1*
G01*
G75*
G02Y716500I-716J0*
G01*
G75*
G02X743891Y714909I-2250*
G01*
X738891Y709909*
G75*
G02X737296Y709250I-1591J1591*
G01*
X623732*
X617245Y702763*
G75*
G02X612300Y695750I-4945J-1763*
G01*
X442300*
G75*
G02X437050Y701000J5250*
G01*
G75*
G02X442300Y706250I5250*
G01*
X612300*
G75*
G02X614063Y705945I0J-5250*
G01*
X621206Y713089*
G75*
G02X622800Y713750I1593J-1589*
G01*
X736368*
X740050Y717432*
Y726544*
G75*
G02X733550Y735000I2250J8456*
G01*
X633550Y362500D02*
G75*
G02X651050I8750D01*
G01*
G75*
G02X633550I-8750*
G01*
X653550Y445000D02*
G75*
G02X671050I8750D01*
G01*
G75*
G02X653550I-8750*
G01*
X661050Y392500D02*
G75*
G02X678550I8750D01*
G01*
G75*
G02X661050I-8750*
G01*
X653550Y485000D02*
G75*
G02X671050I8750D01*
G01*
G75*
G02X653550I-8750*
G01*
Y550000D02*
G75*
G02X671050I8750D01*
G01*
G75*
G02X653550I-8750*
G01*
Y590000D02*
G75*
G02X671050I8750D01*
G01*
G75*
G02X653550I-8750*
G01*
Y630000D02*
G75*
G02X671050I8750D01*
G01*
G75*
G02X653550I-8750*
G01*
Y670000D02*
G75*
G02X671050I8750D01*
G01*
G75*
G02X653550I-8750*
G01*
X691050Y362500D02*
G75*
G02X708550I8750D01*
G01*
G75*
G02X691050I-8750*
G01*
X693550Y445000D02*
G75*
G02X711050I8750D01*
G01*
G75*
G02X693550I-8750*
G01*
Y485000D02*
G75*
G02X711050I8750D01*
G01*
G75*
G02X693550I-8750*
G01*
Y550000D02*
G75*
G02X711050I8750D01*
G01*
G75*
G02X693550I-8750*
G01*
Y590000D02*
G75*
G02X711050I8750D01*
G01*
G75*
G02X693550I-8750*
G01*
Y630000D02*
G75*
G02X711050I8750D01*
G01*
G75*
G02X693550I-8750*
G01*
Y670000D02*
G75*
G02X711050I8750D01*
G01*
G75*
G02X693550I-8750*
G01*
X718550Y392500D02*
G75*
G02X736050I8750D01*
G01*
G75*
G02X718550I-8750*
G01*
X739800Y175250D02*
G75*
G02X745050Y170000J-5250D01*
G01*
G75*
G02X739800Y164750I-5250*
G01*
G75*
G02X734550Y170000J5250*
G01*
G75*
G02X739800Y175250I5250*
G01*
Y225250D02*
G75*
G02X745050Y220000J-5250D01*
G01*
G75*
G02X739800Y214750I-5250*
G01*
G75*
G02X734550Y220000J5250*
G01*
G75*
G02X739800Y225250I5250*
G01*
Y275250D02*
G75*
G02X745050Y270000J-5250D01*
G01*
G75*
G02X739800Y264750I-5250*
G01*
G75*
G02X734550Y270000J5250*
G01*
G75*
G02X739800Y275250I5250*
G01*
X733550Y445000D02*
G75*
G02X751050I8750D01*
G01*
G75*
G02X733550I-8750*
G01*
X748550Y362500D02*
G75*
G02X766050I8750D01*
G01*
G75*
G02X748550I-8750*
G01*
X733550Y485000D02*
G75*
G02X751050I8750D01*
G01*
G75*
G02X733550I-8750*
G01*
Y550000D02*
G75*
G02X751050I8750D01*
G01*
G75*
G02X733550I-8750*
G01*
Y590000D02*
G75*
G02X751050I8750D01*
G01*
G75*
G02X733550I-8750*
G01*
Y630000D02*
G75*
G02X751050I8750D01*
G01*
G75*
G02X733550I-8750*
G01*
Y670000D02*
G75*
G02X751050I8750D01*
G01*
G75*
G02X733550I-8750*
G01*
X518550Y362500D02*
G75*
G02X536050I8750D01*
G01*
G75*
G02X518550I-8750*
G01*
X523550Y445000D02*
G75*
G02X541050I8750D01*
G01*
G75*
G02X523550I-8750*
G01*
Y485000D02*
G75*
G02X541050I8750D01*
G01*
G75*
G02X523550I-8750*
G01*
Y550000D02*
G75*
G02X541050I8750D01*
G01*
G75*
G02X523550I-8750*
G01*
Y590000D02*
G75*
G02X541050I8750D01*
G01*
G75*
G02X523550I-8750*
G01*
Y630000D02*
G75*
G02X541050I8750D01*
G01*
G75*
G02X523550I-8750*
G01*
Y670000D02*
G75*
G02X541050I8750D01*
G01*
G75*
G02X523550I-8750*
G01*
X546050Y392500D02*
G75*
G02X563550I8750D01*
G01*
G75*
G02X546050I-8750*
G01*
X563550Y445000D02*
G75*
G02X581050I8750D01*
G01*
G75*
G02X563550I-8750*
G01*
X576050Y362500D02*
G75*
G02X593550I8750D01*
G01*
G75*
G02X576050I-8750*
G01*
X563550Y485000D02*
G75*
G02X581050I8750D01*
G01*
G75*
G02X563550I-8750*
G01*
Y550000D02*
G75*
G02X581050I8750D01*
G01*
G75*
G02X563550I-8750*
G01*
Y590000D02*
G75*
G02X581050I8750D01*
G01*
G75*
G02X563550I-8750*
G01*
Y630000D02*
G75*
G02X581050I8750D01*
G01*
G75*
G02X563550I-8750*
G01*
Y670000D02*
G75*
G02X581050I8750D01*
G01*
G75*
G02X563550I-8750*
G01*
X603550Y392500D02*
G75*
G02X621050I8750D01*
G01*
G75*
G02X603550I-8750*
G01*
Y445000D02*
G75*
G02X621050I8750D01*
G01*
G75*
G02X603550I-8750*
G01*
Y485000D02*
G75*
G02X621050I8750D01*
G01*
G75*
G02X603550I-8750*
G01*
Y590000D02*
G75*
G02X621050I8750D01*
G01*
G75*
G02X603550I-8750*
G01*
Y630000D02*
G75*
G02X621050I8750D01*
G01*
G75*
G02X603550I-8750*
G01*
Y670000D02*
G75*
G02X621050I8750D01*
G01*
G75*
G02X603550I-8750*
G01*
X461050Y362500D02*
G75*
G02X478550I8750D01*
G01*
G75*
G02X461050I-8750*
G01*
X470300Y77500D02*
G75*
G02X519300I24500D01*
G01*
G75*
G02X470300I-24500*
G01*
X690800Y291500D02*
G75*
G02X697800Y284500J-7000D01*
G01*
Y140500*
G75*
G02X690800Y133500I-7000*
G01*
X478800*
G75*
G02X471800Y140500J7000*
G01*
Y284500*
G75*
G02X478800Y291500I7000*
G01*
X690800*
X579800Y96000D02*
G75*
G02Y59000J-18500D01*
G01*
G75*
G02X561300Y77500J18500*
G01*
G75*
G02X579800Y96000I18500*
G01*
X672800Y77500D02*
G75*
G02X721800I24500D01*
G01*
G75*
G02X672800I-24500*
G01*
X473550Y445000D02*
G75*
G02X491050I8750D01*
G01*
G75*
G02X473550I-8750*
G01*
X488550Y392500D02*
G75*
G02X506050I8750D01*
G01*
G75*
G02X488550I-8750*
G01*
X473550Y485000D02*
G75*
G02X491050I8750D01*
G01*
G75*
G02X473550I-8750*
G01*
Y590000D02*
G75*
G02X491050I8750D01*
G01*
G75*
G02X473550I-8750*
G01*
Y630000D02*
G75*
G02X491050I8750D01*
G01*
G75*
G02X473550I-8750*
G01*
Y670000D02*
G75*
G02X491050I8750D01*
G01*
G75*
G02X473550I-8750*
G01*
X433550Y775000D02*
G75*
G02X451050I8750D01*
G01*
G75*
G02X433550I-8750*
G01*
Y815000D02*
G75*
G02X451050I8750D01*
G01*
G75*
G02X433550I-8750*
G01*
Y855000D02*
G75*
G02X451050I8750D01*
G01*
G75*
G02X433550I-8750*
G01*
X473550Y735000D02*
G75*
G02X491050I8750D01*
G01*
G75*
G02X473550I-8750*
G01*
Y775000D02*
G75*
G02X491050I8750D01*
G01*
G75*
G02X473550I-8750*
G01*
Y815000D02*
G75*
G02X491050I8750D01*
G01*
G75*
G02X473550I-8750*
G01*
Y855000D02*
G75*
G02X491050I8750D01*
G01*
G75*
G02X473550I-8750*
G01*
X523550Y735000D02*
G75*
G02X541050I8750D01*
G01*
G75*
G02X523550I-8750*
G01*
Y775000D02*
G75*
G02X541050I8750D01*
G01*
G75*
G02X523550I-8750*
G01*
Y815000D02*
G75*
G02X541050I8750D01*
G01*
G75*
G02X523550I-8750*
G01*
Y855000D02*
G75*
G02X541050I8750D01*
G01*
G75*
G02X523550I-8750*
G01*
X563550Y735000D02*
G75*
G02X581050I8750D01*
G01*
G75*
G02X563550I-8750*
G01*
Y775000D02*
G75*
G02X581050I8750D01*
G01*
G75*
G02X563550I-8750*
G01*
Y815000D02*
G75*
G02X581050I8750D01*
G01*
G75*
G02X563550I-8750*
G01*
Y855000D02*
G75*
G02X581050I8750D01*
G01*
G75*
G02X563550I-8750*
G01*
X603550Y735000D02*
G75*
G02X621050I8750D01*
G01*
G75*
G02X603550I-8750*
G01*
Y775000D02*
G75*
G02X621050I8750D01*
G01*
G75*
G02X603550I-8750*
G01*
Y815000D02*
G75*
G02X621050I8750D01*
G01*
G75*
G02X603550I-8750*
G01*
Y855000D02*
G75*
G02X621050I8750D01*
G01*
G75*
G02X603550I-8750*
G01*
X653550Y735000D02*
G75*
G02X671050I8750D01*
G01*
G75*
G02X653550I-8750*
G01*
Y775000D02*
G75*
G02X671050I8750D01*
G01*
G75*
G02X653550I-8750*
G01*
Y815000D02*
G75*
G02X671050I8750D01*
G01*
G75*
G02X653550I-8750*
G01*
Y855000D02*
G75*
G02X671050I8750D01*
G01*
G75*
G02X653550I-8750*
G01*
X693550Y735000D02*
G75*
G02X711050I8750D01*
G01*
G75*
G02X693550I-8750*
G01*
Y775000D02*
G75*
G02X711050I8750D01*
G01*
G75*
G02X693550I-8750*
G01*
Y815000D02*
G75*
G02X711050I8750D01*
G01*
G75*
G02X693550I-8750*
G01*
Y855000D02*
G75*
G02X711050I8750D01*
G01*
G75*
G02X693550I-8750*
G01*
X733550Y775000D02*
G75*
G02X751050I8750D01*
G01*
G75*
G02X733550I-8750*
G01*
Y815000D02*
G75*
G02X751050I8750D01*
G01*
G75*
G02X733550I-8750*
G01*
Y855000D02*
G75*
G02X751050I8750D01*
G01*
G75*
G02X733550I-8750*
G01*
X28550Y392500D02*
G75*
G02X46050I8750D01*
G01*
G75*
G02X28550I-8750*
G01*
X5050Y77500D02*
G36*
Y55499D01*
G75*
G02X41799Y18750I-250J-36999*
G01*
X753801*
G75*
G02X790550Y55499I36999J-250*
G01*
Y77500*
X721800*
G75*
G02X672800I-24500*
G01*
X598300*
G75*
G02X579800Y59000I-18500*
G01*
G75*
G02X561300Y77500J18500*
G01*
X519300*
G75*
G02X470300I-24500*
G01*
X413300*
G75*
G02X394800Y59000I-18500*
G01*
G75*
G02X376300Y77500J18500*
G01*
X308300*
G75*
G02X289800Y59000I-18500*
G01*
G75*
G02X271300Y77500J18500*
G01*
X203300*
G75*
G02X184800Y59000I-18500*
G01*
G75*
G02X166300Y77500J18500*
G01*
X98300*
G75*
G02X79800Y59000I-18500*
G01*
G75*
G02X61300Y77500J18500*
G01*
X5050*
G37*
Y170000D02*
G36*
Y77500D01*
X61300*
G75*
G02X79800Y96000I18500*
G01*
G75*
G02X98300Y77500J-18500*
G01*
X166300*
G75*
G02X184800Y96000I18500*
G01*
G75*
G02X203300Y77500J-18500*
G01*
X271300*
G75*
G02X289800Y96000I18500*
G01*
G75*
G02X308300Y77500J-18500*
G01*
X376300*
G75*
G02X394800Y96000I18500*
G01*
G75*
G02X413300Y77500J-18500*
G01*
X470300*
G75*
G02X519300I24500*
G01*
X561300*
G75*
G02X579800Y96000I18500*
G01*
G75*
G02X598300Y77500J-18500*
G01*
X672800*
G75*
G02X721800I24500*
G01*
X790550*
Y170000*
X745050*
G75*
G02X739800Y164750I-5250*
G01*
G75*
G02X734550Y170000J5250*
G01*
X697800*
Y140500*
G75*
G02X690800Y133500I-7000*
G01*
X478800*
G75*
G02X471800Y140500J7000*
G01*
Y170000*
X405628*
G75*
G02X394800Y166500I-10828J15000*
G01*
G75*
G02X383972Y170000J18500*
G01*
X300628*
G75*
G02X289800Y166500I-10828J15000*
G01*
G75*
G02X278972Y170000J18500*
G01*
X195628*
G75*
G02X184800Y166500I-10828J15000*
G01*
G75*
G02X173972Y170000J18500*
G01*
X90628*
G75*
G02X79800Y166500I-10828J15000*
G01*
G75*
G02X68972Y170000J18500*
G01*
X5050*
G37*
Y185000D02*
G36*
Y170000D01*
X68972*
G75*
G02X61300Y185000I10828J15000*
G01*
X5050*
G37*
X98300D02*
G36*
G75*
G02X90628Y170000I-18500D01*
G01*
X173972*
G75*
G02X166300Y185000I10828J15000*
G01*
X98300*
G37*
X203300D02*
G36*
G75*
G02X195628Y170000I-18500D01*
G01*
X278972*
G75*
G02X271300Y185000I10828J15000*
G01*
X203300*
G37*
X308300D02*
G36*
G75*
G02X300628Y170000I-18500D01*
G01*
X383972*
G75*
G02X376300Y185000I10828J15000*
G01*
X308300*
G37*
X413300D02*
G36*
G75*
G02X405628Y170000I-18500D01*
G01*
X471800*
Y185000*
X413300*
G37*
X697800D02*
G36*
Y170000D01*
X734550*
G75*
G02X739800Y175250I5250*
G01*
G75*
G02X745050Y170000J-5250*
G01*
X790550*
Y185000*
X697800*
G37*
X5050Y220000D02*
G36*
Y185000D01*
X61300*
G75*
G02X79800Y203500I18500*
G01*
G75*
G02X98300Y185000J-18500*
G01*
X166300*
G75*
G02X184800Y203500I18500*
G01*
G75*
G02X203300Y185000J-18500*
G01*
X271300*
G75*
G02X289800Y203500I18500*
G01*
G75*
G02X308300Y185000J-18500*
G01*
X376300*
G75*
G02X394800Y203500I18500*
G01*
G75*
G02X413300Y185000J-18500*
G01*
X471800*
Y220000*
X5050*
G37*
X697800D02*
G36*
Y185000D01*
X790550*
Y220000*
X745050*
G75*
G02X739800Y214750I-5250*
G01*
G75*
G02X734550Y220000J5250*
G01*
X697800*
G37*
X5050Y270000D02*
G36*
Y220000D01*
X471800*
Y270000*
X5050*
G37*
X697800D02*
G36*
Y220000D01*
X734550*
G75*
G02X739800Y225250I5250*
G01*
G75*
G02X745050Y220000J-5250*
G01*
X790550*
Y270000*
X745050*
G75*
G02X739800Y264750I-5250*
G01*
G75*
G02X734550Y270000J5250*
G01*
X697800*
G37*
X5050Y362500D02*
G36*
Y270000D01*
X471800*
Y284500*
G75*
G02X478800Y291500I7000*
G01*
X690800*
G75*
G02X697800Y284500J-7000*
G01*
Y270000*
X734550*
G75*
G02X739800Y275250I5250*
G01*
G75*
G02X745050Y270000J-5250*
G01*
X790550*
Y362500*
X766050*
G75*
G02X748550I-8750*
G01*
X708550*
G75*
G02X691050I-8750*
G01*
X651050*
G75*
G02X633550I-8750*
G01*
X593550*
G75*
G02X576050I-8750*
G01*
X536050*
G75*
G02X518550I-8750*
G01*
X478550*
G75*
G02X461050I-8750*
G01*
X421050*
G75*
G02X403550I-8750*
G01*
X363550*
G75*
G02X346050I-8750*
G01*
X306050*
G75*
G02X288550I-8750*
G01*
X248550*
G75*
G02X231050I-8750*
G01*
X191050*
G75*
G02X173550I-8750*
G01*
X133550*
G75*
G02X116050I-8750*
G01*
X76050*
G75*
G02X58550I-8750*
G01*
X5050*
G37*
Y392500D02*
G36*
Y362500D01*
X58550*
G75*
G02X76050I8750*
G01*
X116050*
G75*
G02X133550I8750*
G01*
X173550*
G75*
G02X191050I8750*
G01*
X231050*
G75*
G02X248550I8750*
G01*
X288550*
G75*
G02X306050I8750*
G01*
X346050*
G75*
G02X363550I8750*
G01*
X403550*
G75*
G02X421050I8750*
G01*
X461050*
G75*
G02X478550I8750*
G01*
X518550*
G75*
G02X536050I8750*
G01*
X576050*
G75*
G02X593550I8750*
G01*
X633550*
G75*
G02X651050I8750*
G01*
X691050*
G75*
G02X708550I8750*
G01*
X748550*
G75*
G02X766050I8750*
G01*
X790550*
Y392500*
X736050*
G75*
G02X718550I-8750*
G01*
X678550*
G75*
G02X661050I-8750*
G01*
X621050*
G75*
G02X603550I-8750*
G01*
X563550*
G75*
G02X546050I-8750*
G01*
X506050*
G75*
G02X488550I-8750*
G01*
X448550*
G75*
G02X431050I-8750*
G01*
X391050*
G75*
G02X373550I-8750*
G01*
X333550*
G75*
G02X316050I-8750*
G01*
X276050*
G75*
G02X258550I-8750*
G01*
X218550*
G75*
G02X201050I-8750*
G01*
X161050*
G75*
G02X143550I-8750*
G01*
X103550*
G75*
G02X86050I-8750*
G01*
X46050*
G75*
G02X28550I-8750*
G01*
X5050*
G37*
Y445000D02*
G36*
Y392500D01*
X28550*
G75*
G02X46050I8750*
G01*
X86050*
G75*
G02X103550I8750*
G01*
X143550*
G75*
G02X161050I8750*
G01*
X201050*
G75*
G02X218550I8750*
G01*
X258550*
G75*
G02X276050I8750*
G01*
X316050*
G75*
G02X333550I8750*
G01*
X373550*
G75*
G02X391050I8750*
G01*
X431050*
G75*
G02X448550I8750*
G01*
X488550*
G75*
G02X506050I8750*
G01*
X546050*
G75*
G02X563550I8750*
G01*
X603550*
G75*
G02X621050I8750*
G01*
X661050*
G75*
G02X678550I8750*
G01*
X718550*
G75*
G02X736050I8750*
G01*
X790550*
Y445000*
X751050*
G75*
G02X733550I-8750*
G01*
X711050*
G75*
G02X693550I-8750*
G01*
X671050*
G75*
G02X653550I-8750*
G01*
X621050*
G75*
G02X603550I-8750*
G01*
X581050*
G75*
G02X563550I-8750*
G01*
X541050*
G75*
G02X523550I-8750*
G01*
X491050*
G75*
G02X473550I-8750*
G01*
X451050*
G75*
G02X433550I-8750*
G01*
X411050*
G75*
G02X393550I-8750*
G01*
X361050*
G75*
G02X343550I-8750*
G01*
X321050*
G75*
G02X303550I-8750*
G01*
X281050*
G75*
G02X263550I-8750*
G01*
X231050*
G75*
G02X213550I-8750*
G01*
X191050*
G75*
G02X173550I-8750*
G01*
X151050*
G75*
G02X133550I-8750*
G01*
X101050*
G75*
G02X83550I-8750*
G01*
X61050*
G75*
G02X43550I-8750*
G01*
X5050*
G37*
Y485000D02*
G36*
Y445000D01*
X43550*
G75*
G02X61050I8750*
G01*
X83550*
G75*
G02X101050I8750*
G01*
X133550*
G75*
G02X151050I8750*
G01*
X173550*
G75*
G02X191050I8750*
G01*
X213550*
G75*
G02X231050I8750*
G01*
X263550*
G75*
G02X281050I8750*
G01*
X303550*
G75*
G02X321050I8750*
G01*
X343550*
G75*
G02X361050I8750*
G01*
X393550*
G75*
G02X411050I8750*
G01*
X433550*
G75*
G02X451050I8750*
G01*
X473550*
G75*
G02X491050I8750*
G01*
X523550*
G75*
G02X541050I8750*
G01*
X563550*
G75*
G02X581050I8750*
G01*
X603550*
G75*
G02X621050I8750*
G01*
X653550*
G75*
G02X671050I8750*
G01*
X693550*
G75*
G02X711050I8750*
G01*
X733550*
G75*
G02X751050I8750*
G01*
X790550*
Y485000*
X751050*
G75*
G02X733550I-8750*
G01*
X711050*
G75*
G02X693550I-8750*
G01*
X671050*
G75*
G02X653550I-8750*
G01*
X621050*
G75*
G02X603550I-8750*
G01*
X581050*
G75*
G02X563550I-8750*
G01*
X541050*
G75*
G02X523550I-8750*
G01*
X491050*
G75*
G02X473550I-8750*
G01*
X451050*
G75*
G02X433550I-8750*
G01*
X411050*
G75*
G02X393550I-8750*
G01*
X361050*
G75*
G02X343550I-8750*
G01*
X321050*
G75*
G02X303550I-8750*
G01*
X281050*
G75*
G02X263550I-8750*
G01*
X231050*
G75*
G02X213550I-8750*
G01*
X191050*
G75*
G02X173550I-8750*
G01*
X151050*
G75*
G02X133550I-8750*
G01*
X101050*
G75*
G02X83550I-8750*
G01*
X61050*
G75*
G02X43550I-8750*
G01*
X5050*
G37*
Y550000D02*
G36*
Y485000D01*
X43550*
G75*
G02X61050I8750*
G01*
X83550*
G75*
G02X101050I8750*
G01*
X133550*
G75*
G02X151050I8750*
G01*
X173550*
G75*
G02X191050I8750*
G01*
X213550*
G75*
G02X231050I8750*
G01*
X263550*
G75*
G02X281050I8750*
G01*
X303550*
G75*
G02X321050I8750*
G01*
X343550*
G75*
G02X361050I8750*
G01*
X393550*
G75*
G02X411050I8750*
G01*
X433550*
G75*
G02X451050I8750*
G01*
X473550*
G75*
G02X491050I8750*
G01*
X523550*
G75*
G02X541050I8750*
G01*
X563550*
G75*
G02X581050I8750*
G01*
X603550*
G75*
G02X621050I8750*
G01*
X653550*
G75*
G02X671050I8750*
G01*
X693550*
G75*
G02X711050I8750*
G01*
X733550*
G75*
G02X751050I8750*
G01*
X790550*
Y550000*
X751050*
G75*
G02X733550I-8750*
G01*
X711050*
G75*
G02X693550I-8750*
G01*
X671050*
G75*
G02X653550I-8750*
G01*
X581050*
G75*
G02X563550I-8750*
G01*
X541050*
G75*
G02X523550I-8750*
G01*
X451050*
G75*
G02X433550I-8750*
G01*
X411050*
G75*
G02X393550I-8750*
G01*
X321050*
G75*
G02X303550I-8750*
G01*
X281050*
G75*
G02X263550I-8750*
G01*
X191050*
G75*
G02X173550I-8750*
G01*
X151050*
G75*
G02X133550I-8750*
G01*
X101050*
G75*
G02X83550I-8750*
G01*
X61050*
G75*
G02X43550I-8750*
G01*
X5050*
G37*
Y590000D02*
G36*
Y550000D01*
X43550*
G75*
G02X61050I8750*
G01*
X83550*
G75*
G02X101050I8750*
G01*
X133550*
G75*
G02X151050I8750*
G01*
X173550*
G75*
G02X191050I8750*
G01*
X263550*
G75*
G02X281050I8750*
G01*
X303550*
G75*
G02X321050I8750*
G01*
X393550*
G75*
G02X411050I8750*
G01*
X433550*
G75*
G02X451050I8750*
G01*
X523550*
G75*
G02X541050I8750*
G01*
X563550*
G75*
G02X581050I8750*
G01*
X653550*
G75*
G02X671050I8750*
G01*
X693550*
G75*
G02X711050I8750*
G01*
X733550*
G75*
G02X751050I8750*
G01*
X790550*
Y590000*
X751050*
G75*
G02X733550I-8750*
G01*
X711050*
G75*
G02X693550I-8750*
G01*
X671050*
G75*
G02X653550I-8750*
G01*
X621050*
G75*
G02X603550I-8750*
G01*
X581050*
G75*
G02X563550I-8750*
G01*
X541050*
G75*
G02X523550I-8750*
G01*
X491050*
G75*
G02X473550I-8750*
G01*
X451050*
G75*
G02X433550I-8750*
G01*
X411050*
G75*
G02X393550I-8750*
G01*
X361050*
G75*
G02X343550I-8750*
G01*
X321050*
G75*
G02X303550I-8750*
G01*
X281050*
G75*
G02X263550I-8750*
G01*
X231050*
G75*
G02X213550I-8750*
G01*
X191050*
G75*
G02X173550I-8750*
G01*
X151050*
G75*
G02X133550I-8750*
G01*
X101050*
G75*
G02X83550I-8750*
G01*
X61050*
G75*
G02X43550I-8750*
G01*
X5050*
G37*
Y630000D02*
G36*
Y590000D01*
X43550*
G75*
G02X61050I8750*
G01*
X83550*
G75*
G02X101050I8750*
G01*
X133550*
G75*
G02X151050I8750*
G01*
X173550*
G75*
G02X191050I8750*
G01*
X213550*
G75*
G02X231050I8750*
G01*
X263550*
G75*
G02X281050I8750*
G01*
X303550*
G75*
G02X321050I8750*
G01*
X343550*
G75*
G02X361050I8750*
G01*
X393550*
G75*
G02X411050I8750*
G01*
X433550*
G75*
G02X451050I8750*
G01*
X473550*
G75*
G02X491050I8750*
G01*
X523550*
G75*
G02X541050I8750*
G01*
X563550*
G75*
G02X581050I8750*
G01*
X603550*
G75*
G02X621050I8750*
G01*
X653550*
G75*
G02X671050I8750*
G01*
X693550*
G75*
G02X711050I8750*
G01*
X733550*
G75*
G02X751050I8750*
G01*
X790550*
Y630000*
X751050*
G75*
G02X733550I-8750*
G01*
X711050*
G75*
G02X693550I-8750*
G01*
X671050*
G75*
G02X653550I-8750*
G01*
X621050*
G75*
G02X603550I-8750*
G01*
X581050*
G75*
G02X563550I-8750*
G01*
X541050*
G75*
G02X523550I-8750*
G01*
X491050*
G75*
G02X473550I-8750*
G01*
X451050*
G75*
G02X433550I-8750*
G01*
X411050*
G75*
G02X393550I-8750*
G01*
X361050*
G75*
G02X343550I-8750*
G01*
X321050*
G75*
G02X303550I-8750*
G01*
X281050*
G75*
G02X263550I-8750*
G01*
X231050*
G75*
G02X213550I-8750*
G01*
X191050*
G75*
G02X173550I-8750*
G01*
X151050*
G75*
G02X133550I-8750*
G01*
X101050*
G75*
G02X83550I-8750*
G01*
X61050*
G75*
G02X43550I-8750*
G01*
X5050*
G37*
Y670000D02*
G36*
Y630000D01*
X43550*
G75*
G02X61050I8750*
G01*
X83550*
G75*
G02X101050I8750*
G01*
X133550*
G75*
G02X151050I8750*
G01*
X173550*
G75*
G02X191050I8750*
G01*
X213550*
G75*
G02X231050I8750*
G01*
X263550*
G75*
G02X281050I8750*
G01*
X303550*
G75*
G02X321050I8750*
G01*
X343550*
G75*
G02X361050I8750*
G01*
X393550*
G75*
G02X411050I8750*
G01*
X433550*
G75*
G02X451050I8750*
G01*
X473550*
G75*
G02X491050I8750*
G01*
X523550*
G75*
G02X541050I8750*
G01*
X563550*
G75*
G02X581050I8750*
G01*
X603550*
G75*
G02X621050I8750*
G01*
X653550*
G75*
G02X671050I8750*
G01*
X693550*
G75*
G02X711050I8750*
G01*
X733550*
G75*
G02X751050I8750*
G01*
X790550*
Y670000*
X751050*
G75*
G02X733550I-8750*
G01*
X711050*
G75*
G02X693550I-8750*
G01*
X671050*
G75*
G02X653550I-8750*
G01*
X621050*
G75*
G02X603550I-8750*
G01*
X581050*
G75*
G02X563550I-8750*
G01*
X541050*
G75*
G02X523550I-8750*
G01*
X491050*
G75*
G02X473550I-8750*
G01*
X451050*
G75*
G02X433550I-8750*
G01*
X411050*
G75*
G02X393550I-8750*
G01*
X361050*
G75*
G02X343550I-8750*
G01*
X321050*
G75*
G02X303550I-8750*
G01*
X281050*
G75*
G02X263550I-8750*
G01*
X231050*
G75*
G02X213550I-8750*
G01*
X191050*
G75*
G02X173550I-8750*
G01*
X151050*
G75*
G02X133550I-8750*
G01*
X101050*
G75*
G02X83550I-8750*
G01*
X61050*
G75*
G02X43550I-8750*
G01*
X5050*
G37*
Y701000D02*
G36*
Y670000D01*
X43550*
G75*
G02X61050I8750*
G01*
X83550*
G75*
G02X101050I8750*
G01*
X133550*
G75*
G02X151050I8750*
G01*
X173550*
G75*
G02X191050I8750*
G01*
X213550*
G75*
G02X231050I8750*
G01*
X263550*
G75*
G02X281050I8750*
G01*
X303550*
G75*
G02X321050I8750*
G01*
X343550*
G75*
G02X361050I8750*
G01*
X393550*
G75*
G02X411050I8750*
G01*
X433550*
G75*
G02X451050I8750*
G01*
X473550*
G75*
G02X491050I8750*
G01*
X523550*
G75*
G02X541050I8750*
G01*
X563550*
G75*
G02X581050I8750*
G01*
X603550*
G75*
G02X621050I8750*
G01*
X653550*
G75*
G02X671050I8750*
G01*
X693550*
G75*
G02X711050I8750*
G01*
X733550*
G75*
G02X751050I8750*
G01*
X790550*
Y701000*
X617550*
G75*
G02X612300Y695750I-5250*
G01*
X442300*
G75*
G02X437050Y701000J5250*
G01*
X317550*
G75*
G02X312300Y695750I-5250*
G01*
X142300*
G75*
G02X137050Y701000J5250*
G01*
X5050*
G37*
Y735000D02*
G36*
Y701000D01*
X137050*
G75*
G02X142300Y706250I5250*
G01*
X312300*
G75*
G02X317550Y701000J-5250*
G01*
X437050*
G75*
G02X442300Y706250I5250*
G01*
X612300*
G75*
G02X614063Y705945I0J-5256*
G01*
X621206Y713089*
G75*
G02X622800Y713750I1594J-1591*
G01*
X736368*
X740050Y717432*
Y726544*
G75*
G02X733550Y735000I2250J8456*
G01*
Y735000*
X711050*
G75*
G02X693550I-8750*
G01*
X671050*
G75*
G02X653550I-8750*
G01*
X621050*
G75*
G02X603550I-8750*
G01*
X581050*
G75*
G02X563550I-8750*
G01*
X541050*
G75*
G02X523550I-8750*
G01*
X491050*
G75*
G02X473550I-8750*
G01*
X451050*
G75*
G02X433550I-8750*
G01*
X411050*
G75*
G02X393550I-8750*
G01*
X361050*
G75*
G02X343550I-8750*
G01*
X321036*
G75*
G02X321050Y734500I-8738J-498*
G01*
G75*
G02X303550I-8750*
G01*
G75*
G02X303564Y735000I8752J2*
G01*
X281050*
G75*
G02X263550I-8750*
G01*
X231050*
G75*
G02X213550I-8750*
G01*
X191050*
G75*
G02X173550I-8750*
G01*
X151050*
G75*
G02X133550I-8750*
G01*
X101050*
G75*
G02X83550I-8750*
G01*
X61050*
G75*
G02X43550I-8750*
G01*
X5050*
G37*
X617550Y701000D02*
G36*
X790550D01*
Y735000*
X751050*
Y735000*
G75*
G02X744550Y726544I-8750*
G01*
Y716504*
Y716501*
Y716500*
G75*
G02X743891Y714909I-2250*
G01*
X738891Y709909*
G75*
G02X737296Y709250I-1590J1589*
G01*
X623732*
X617245Y702763*
G75*
G02X617550Y701000I-4946J-1763*
G01*
G37*
X5050Y775000D02*
G36*
Y735000D01*
X43550*
G75*
G02X61050I8750*
G01*
X83550*
G75*
G02X101050I8750*
G01*
X133550*
G75*
G02X151050I8750*
G01*
X173550*
G75*
G02X191050I8750*
G01*
X213550*
G75*
G02X231050I8750*
G01*
X263550*
G75*
G02X281050I8750*
G01*
X303564*
G75*
G02X321036I8736J-500*
G01*
X343550*
G75*
G02X361050I8750*
G01*
X393550*
G75*
G02X411050I8750*
G01*
X433550*
G75*
G02X451050I8750*
G01*
X473550*
G75*
G02X491050I8750*
G01*
X523550*
G75*
G02X541050I8750*
G01*
X563550*
G75*
G02X581050I8750*
G01*
X603550*
G75*
G02X621050I8750*
G01*
X653550*
G75*
G02X671050I8750*
G01*
X693550*
G75*
G02X711050I8750*
G01*
X733550*
G75*
G02X751050I8750*
G01*
X790550*
Y775000*
X751050*
G75*
G02X733550I-8750*
G01*
X711050*
G75*
G02X693550I-8750*
G01*
X671050*
G75*
G02X653550I-8750*
G01*
X621050*
G75*
G02X603550I-8750*
G01*
X581050*
G75*
G02X563550I-8750*
G01*
X541050*
G75*
G02X523550I-8750*
G01*
X491050*
G75*
G02X473550I-8750*
G01*
X451050*
G75*
G02X433550I-8750*
G01*
X411050*
G75*
G02X393550I-8750*
G01*
X361050*
G75*
G02X343550I-8750*
G01*
X321050*
G75*
G02X303550I-8750*
G01*
X281050*
G75*
G02X263550I-8750*
G01*
X231050*
G75*
G02X213550I-8750*
G01*
X191050*
G75*
G02X173550I-8750*
G01*
X151050*
G75*
G02X133550I-8750*
G01*
X101050*
G75*
G02X83550I-8750*
G01*
X61050*
G75*
G02X43550I-8750*
G01*
X5050*
G37*
Y815000D02*
G36*
Y775000D01*
X43550*
G75*
G02X61050I8750*
G01*
X83550*
G75*
G02X101050I8750*
G01*
X133550*
G75*
G02X151050I8750*
G01*
X173550*
G75*
G02X191050I8750*
G01*
X213550*
G75*
G02X231050I8750*
G01*
X263550*
G75*
G02X281050I8750*
G01*
X303550*
G75*
G02X321050I8750*
G01*
X343550*
G75*
G02X361050I8750*
G01*
X393550*
G75*
G02X411050I8750*
G01*
X433550*
G75*
G02X451050I8750*
G01*
X473550*
G75*
G02X491050I8750*
G01*
X523550*
G75*
G02X541050I8750*
G01*
X563550*
G75*
G02X581050I8750*
G01*
X603550*
G75*
G02X621050I8750*
G01*
X653550*
G75*
G02X671050I8750*
G01*
X693550*
G75*
G02X711050I8750*
G01*
X733550*
G75*
G02X751050I8750*
G01*
X790550*
Y815000*
X751050*
G75*
G02X733550I-8750*
G01*
X711050*
G75*
G02X693550I-8750*
G01*
X671050*
G75*
G02X653550I-8750*
G01*
X621050*
G75*
G02X603550I-8750*
G01*
X581050*
G75*
G02X563550I-8750*
G01*
X541050*
G75*
G02X523550I-8750*
G01*
X491050*
G75*
G02X473550I-8750*
G01*
X451050*
G75*
G02X433550I-8750*
G01*
X411050*
G75*
G02X393550I-8750*
G01*
X361050*
G75*
G02X343550I-8750*
G01*
X321050*
G75*
G02X303550I-8750*
G01*
X281050*
G75*
G02X263550I-8750*
G01*
X231050*
G75*
G02X213550I-8750*
G01*
X191050*
G75*
G02X173550I-8750*
G01*
X151050*
G75*
G02X133550I-8750*
G01*
X101050*
G75*
G02X83550I-8750*
G01*
X61050*
G75*
G02X43550I-8750*
G01*
X5050*
G37*
Y855000D02*
G36*
Y815000D01*
X43550*
G75*
G02X61050I8750*
G01*
X83550*
G75*
G02X101050I8750*
G01*
X133550*
G75*
G02X151050I8750*
G01*
X173550*
G75*
G02X191050I8750*
G01*
X213550*
G75*
G02X231050I8750*
G01*
X263550*
G75*
G02X281050I8750*
G01*
X303550*
G75*
G02X321050I8750*
G01*
X343550*
G75*
G02X361050I8750*
G01*
X393550*
G75*
G02X411050I8750*
G01*
X433550*
G75*
G02X451050I8750*
G01*
X473550*
G75*
G02X491050I8750*
G01*
X523550*
G75*
G02X541050I8750*
G01*
X563550*
G75*
G02X581050I8750*
G01*
X603550*
G75*
G02X621050I8750*
G01*
X653550*
G75*
G02X671050I8750*
G01*
X693550*
G75*
G02X711050I8750*
G01*
X733550*
G75*
G02X751050I8750*
G01*
X790550*
Y855000*
X751050*
G75*
G02X733550I-8750*
G01*
X711050*
G75*
G02X693550I-8750*
G01*
X671050*
G75*
G02X653550I-8750*
G01*
X621050*
G75*
G02X603550I-8750*
G01*
X581050*
G75*
G02X563550I-8750*
G01*
X541050*
G75*
G02X523550I-8750*
G01*
X491050*
G75*
G02X473550I-8750*
G01*
X451050*
G75*
G02X433550I-8750*
G01*
X411050*
G75*
G02X393550I-8750*
G01*
X361050*
G75*
G02X343550I-8750*
G01*
X321050*
G75*
G02X303550I-8750*
G01*
X281050*
G75*
G02X263550I-8750*
G01*
X231050*
G75*
G02X213550I-8750*
G01*
X191050*
G75*
G02X173550I-8750*
G01*
X151050*
G75*
G02X133550I-8750*
G01*
X101050*
G75*
G02X83550I-8750*
G01*
X61050*
G75*
G02X43550I-8750*
G01*
X5050*
G37*
Y917501D02*
G36*
Y855000D01*
X43550*
G75*
G02X61050I8750*
G01*
X83550*
G75*
G02X101050I8750*
G01*
X133550*
G75*
G02X151050I8750*
G01*
X173550*
G75*
G02X191050I8750*
G01*
X213550*
G75*
G02X231050I8750*
G01*
X263550*
G75*
G02X281050I8750*
G01*
X303550*
G75*
G02X321050I8750*
G01*
X343550*
G75*
G02X361050I8750*
G01*
X393550*
G75*
G02X411050I8750*
G01*
X433550*
G75*
G02X451050I8750*
G01*
X473550*
G75*
G02X491050I8750*
G01*
X523550*
G75*
G02X541050I8750*
G01*
X563550*
G75*
G02X581050I8750*
G01*
X603550*
G75*
G02X621050I8750*
G01*
X653550*
G75*
G02X671050I8750*
G01*
X693550*
G75*
G02X711050I8750*
G01*
X733550*
G75*
G02X751050I8750*
G01*
X790550*
Y917501*
G75*
G02X753801Y954250I250J36999*
G01*
X41799*
G75*
G02X5050Y917501I-36999J250*
G01*
G37*
D02*
D73*
X42300Y363000D03*
X52300Y570000D03*
Y650000D03*
Y755000D03*
Y835000D03*
X72300Y472000D03*
X92300Y570000D03*
Y650000D03*
Y755000D03*
Y835000D03*
X102300Y361000D03*
X142300Y465000D03*
Y570000D03*
Y650000D03*
Y701000D03*
Y835000D03*
X162300Y361000D03*
Y735000D03*
Y775000D03*
X167300Y315000D03*
Y319000D03*
Y333000D03*
Y337000D03*
X176300Y323000D03*
Y327000D03*
X182300Y465000D03*
Y570000D03*
Y650000D03*
Y835000D03*
X212300Y361000D03*
X217800Y307500D03*
Y311500D03*
Y315500D03*
Y332000D03*
Y336500D03*
X222300Y465000D03*
Y570000D03*
Y650000D03*
Y701000D03*
Y755000D03*
Y835000D03*
X267300Y361000D03*
X272300Y465000D03*
Y570000D03*
Y650000D03*
Y835000D03*
X292300Y735000D03*
Y775000D03*
X312300Y465000D03*
Y570000D03*
Y650000D03*
Y701000D03*
Y835000D03*
X326300Y363000D03*
X352300Y465000D03*
Y570000D03*
Y650000D03*
Y755000D03*
Y835000D03*
X386300Y363000D03*
X402300Y465000D03*
Y570000D03*
Y650000D03*
Y835000D03*
X422300Y735000D03*
Y775000D03*
X442300Y465000D03*
Y570000D03*
Y650000D03*
Y701000D03*
Y835000D03*
X443800Y363000D03*
X482300Y465000D03*
Y570000D03*
Y650000D03*
Y701000D03*
Y755000D03*
Y835000D03*
X501300Y363000D03*
X532300Y465000D03*
Y570000D03*
Y650000D03*
Y835000D03*
X552300Y735000D03*
Y775000D03*
X556300Y363000D03*
X559800Y324500D03*
X564800Y351500D03*
X569300D03*
X572300Y465000D03*
Y570000D03*
Y650000D03*
Y835000D03*
X574800Y324500D03*
X612300Y465000D03*
Y570000D03*
Y650000D03*
Y701000D03*
Y755000D03*
Y835000D03*
X620300Y362000D03*
X662300Y465000D03*
Y570000D03*
Y650000D03*
Y835000D03*
X682300Y735000D03*
Y775000D03*
X684800Y372500D03*
X702300Y465000D03*
Y570000D03*
Y650000D03*
Y835000D03*
X742300Y372500D03*
Y465000D03*
Y570000D03*
Y650000D03*
Y755000D03*
Y835000D03*
D02*
D74*
X142300Y701000D02*
X146300D01*
X218300*
X222300*
X312300*
X442300D02*
X482300D01*
X612300*
D02*
D75*
X742300Y735000D02*
Y716500D01*
X737300Y711500*
X622800*
X612300Y701000*
D02*
D76*
X37300Y392500D03*
X52300Y445000D03*
Y485000D03*
Y550000D03*
Y590000D03*
Y630000D03*
Y670000D03*
Y735000D03*
Y775000D03*
Y815000D03*
Y855000D03*
X67300Y362500D03*
X92300Y445000D03*
Y485000D03*
Y550000D03*
Y590000D03*
Y630000D03*
Y670000D03*
Y735000D03*
Y775000D03*
Y815000D03*
Y855000D03*
X94800Y392500D03*
X124800Y362500D03*
X142300Y445000D03*
Y485000D03*
Y550000D03*
Y590000D03*
Y630000D03*
Y670000D03*
Y735000D03*
Y775000D03*
Y815000D03*
Y855000D03*
X152300Y392500D03*
X182300Y362500D03*
Y445000D03*
Y485000D03*
Y550000D03*
Y590000D03*
Y630000D03*
Y670000D03*
Y735000D03*
Y775000D03*
Y815000D03*
Y855000D03*
X209800Y392500D03*
X222300Y445000D03*
Y485000D03*
Y550000D03*
Y590000D03*
Y630000D03*
Y670000D03*
Y735000D03*
Y775000D03*
Y815000D03*
Y855000D03*
X239800Y362500D03*
X267300Y392500D03*
X272300Y445000D03*
Y485000D03*
Y550000D03*
Y590000D03*
Y630000D03*
Y670000D03*
Y735000D03*
Y775000D03*
Y815000D03*
Y855000D03*
X297300Y362500D03*
X312300Y445000D03*
Y485000D03*
Y550000D03*
Y590000D03*
Y630000D03*
Y670000D03*
Y734500D03*
Y775000D03*
Y815000D03*
Y855000D03*
X324800Y392500D03*
X352300Y445000D03*
Y485000D03*
Y550000D03*
Y590000D03*
Y630000D03*
Y670000D03*
Y735000D03*
Y775000D03*
Y815000D03*
Y855000D03*
X354800Y362500D03*
X382300Y392500D03*
X402300Y445000D03*
Y485000D03*
Y550000D03*
Y590000D03*
Y630000D03*
Y670000D03*
Y735000D03*
Y775000D03*
Y815000D03*
Y855000D03*
X412300Y362500D03*
X439800Y392500D03*
X442300Y445000D03*
Y485000D03*
Y550000D03*
Y590000D03*
Y630000D03*
Y670000D03*
Y735000D03*
Y775000D03*
Y815000D03*
Y855000D03*
X469800Y362500D03*
X482300Y445000D03*
Y485000D03*
Y550000D03*
Y590000D03*
Y630000D03*
Y670000D03*
Y735000D03*
Y775000D03*
Y815000D03*
Y855000D03*
X497300Y392500D03*
X527300Y362500D03*
X532300Y445000D03*
Y485000D03*
Y550000D03*
Y590000D03*
Y630000D03*
Y670000D03*
Y735000D03*
Y775000D03*
Y815000D03*
Y855000D03*
X554800Y392500D03*
X572300Y445000D03*
Y485000D03*
Y550000D03*
Y590000D03*
Y630000D03*
Y670000D03*
Y735000D03*
Y775000D03*
Y815000D03*
Y855000D03*
X584800Y362500D03*
X612300Y392500D03*
Y445000D03*
Y485000D03*
Y550000D03*
Y590000D03*
Y630000D03*
Y670000D03*
Y735000D03*
Y775000D03*
Y815000D03*
Y855000D03*
X642300Y362500D03*
X662300Y445000D03*
Y485000D03*
Y550000D03*
Y590000D03*
Y630000D03*
Y670000D03*
Y735000D03*
Y775000D03*
Y815000D03*
Y855000D03*
X669800Y392500D03*
X699800Y362500D03*
X702300Y445000D03*
Y485000D03*
Y550000D03*
Y590000D03*
Y630000D03*
Y670000D03*
Y735000D03*
Y775000D03*
Y815000D03*
Y855000D03*
X727300Y392500D03*
X742300Y445000D03*
Y485000D03*
Y550000D03*
Y590000D03*
Y630000D03*
Y670000D03*
Y735000D03*
Y775000D03*
Y815000D03*
Y855000D03*
X757300Y362500D03*
X0Y0D02*
M02*
