G04 DesignSpark PCB PRO Gerber Version 9.0 Build 5138 *
G04 #@! TF.Part,Single*
G04 #@! TF.FileFunction,Paste,Bot *
G04 #@! TF.FilePolarity,Positive *
%FSLAX35Y35*%
%MOIN*%
G04 #@! TA.AperFunction,SMDPad,CuDef*
%ADD106R,0.02400X0.04400*%
%ADD101R,0.04200X0.12400*%
%ADD103R,0.04200X0.12900*%
%ADD102R,0.04200X0.13400*%
%ADD107R,0.04900X0.05400*%
G04 #@! TD.AperFunction*
%ADD13C,0.00500*%
G04 #@! TA.AperFunction,SMDPad,CuDef*
%ADD111C,0.07400*%
%ADD108R,0.03400X0.01600*%
%ADD104R,0.04400X0.02400*%
%ADD110R,0.06400X0.03800*%
%ADD109R,0.07400X0.04400*%
%ADD105R,0.05400X0.04900*%
X0Y0D02*
D02*
D13*
X15300Y14000D02*
X780300D01*
G75*
G03X795300Y29000J15000*
G01*
Y944000*
G75*
G03X780300Y959000I-15000*
G01*
X15300*
G75*
G03X300Y944000J-15000*
G01*
Y29000*
G75*
G03X15300Y14000I15000*
G01*
X18300Y38300D02*
G75*
G03Y25700J-6300D01*
G01*
G75*
G03Y38300J6300*
G01*
Y947300D02*
G75*
G03Y934700J-6300D01*
G01*
G75*
G03Y947300J6300*
G01*
X79800Y91500D02*
G75*
G03Y63500J-14000D01*
G01*
G75*
G03Y91500J14000*
G01*
Y199000D02*
G75*
G03Y171000J-14000D01*
G01*
G75*
G03Y199000J14000*
G01*
X184800Y91500D02*
G75*
G03Y63500J-14000D01*
G01*
G75*
G03Y91500J14000*
G01*
Y199000D02*
G75*
G03Y171000J-14000D01*
G01*
G75*
G03Y199000J14000*
G01*
X289800Y91500D02*
G75*
G03Y63500J-14000D01*
G01*
G75*
G03Y91500J14000*
G01*
Y199000D02*
G75*
G03Y171000J-14000D01*
G01*
G75*
G03Y199000J14000*
G01*
X394800Y91500D02*
G75*
G03Y63500J-14000D01*
G01*
G75*
G03Y91500J14000*
G01*
Y199000D02*
G75*
G03Y171000J-14000D01*
G01*
G75*
G03Y199000J14000*
G01*
X478800Y138000D02*
X690800D01*
G75*
G03X693300Y140500J2500*
G01*
Y284500*
G75*
G03X690800Y287000I-2500*
G01*
X478800*
G75*
G03X476300Y284500J-2500*
G01*
Y140500*
G75*
G03X478800Y138000I2500*
G01*
X494800Y97500D02*
G75*
G03Y57500J-20000D01*
G01*
G75*
G03Y97500J20000*
G01*
X579800Y91500D02*
G75*
G03Y63500J-14000D01*
G01*
G75*
G03Y91500J14000*
G01*
X697300Y97500D02*
G75*
G03Y57500J-20000D01*
G01*
G75*
G03Y97500J20000*
G01*
X777300Y38300D02*
G75*
G03Y25700J-6300D01*
G01*
G75*
G03Y38300J6300*
G01*
Y947300D02*
G75*
G03Y934700J-6300D01*
G01*
G75*
G03Y947300J6300*
G01*
D02*
D101*
X42300Y335800D03*
X52300D03*
X512300D03*
X522300D03*
D02*
D102*
X42300Y314000D03*
X52300D03*
X62300D03*
Y335500D03*
X72300Y314000D03*
Y335500D03*
X82300Y314000D03*
Y335500D03*
X92300Y314000D03*
Y335500D03*
X102300Y314000D03*
Y335500D03*
X112300Y314000D03*
Y335500D03*
X122300Y314000D03*
Y335500D03*
X132300Y314000D03*
Y335500D03*
X142300Y314000D03*
Y335500D03*
X152300Y314000D03*
Y335500D03*
X162300Y314000D03*
Y335500D03*
X172300Y314000D03*
Y335500D03*
X182300Y314000D03*
Y335500D03*
X192300Y314000D03*
Y335500D03*
X202300Y314000D03*
Y335500D03*
X212300Y314000D03*
Y335500D03*
X222300Y314000D03*
Y335500D03*
X232300Y314000D03*
Y335500D03*
X242300Y314000D03*
Y335500D03*
X252300Y314000D03*
Y335500D03*
X262300Y314000D03*
Y335500D03*
X272300Y314000D03*
X282300D03*
X512300D03*
X522300D03*
X532300D03*
Y335500D03*
X542300Y314000D03*
Y335500D03*
X552300Y314000D03*
Y335500D03*
X562300Y314000D03*
Y335500D03*
X572300Y314000D03*
Y335500D03*
X582300Y314000D03*
Y335500D03*
X592300Y314000D03*
Y335500D03*
X602300Y314000D03*
Y335500D03*
X612300Y314000D03*
Y335500D03*
X622300Y314000D03*
Y335500D03*
X632300Y314000D03*
Y335500D03*
X642300Y314000D03*
Y335500D03*
X652300Y314000D03*
Y335500D03*
X662300Y314000D03*
Y335500D03*
X672300Y314000D03*
Y335500D03*
X682300Y314000D03*
Y335500D03*
X692300Y314000D03*
Y335500D03*
X702300Y314000D03*
Y335500D03*
X712300Y314000D03*
Y335500D03*
X722300Y314000D03*
Y335500D03*
X732300Y314000D03*
Y335500D03*
X742300Y314000D03*
X752300D03*
D02*
D103*
X272300Y335800D03*
X282300D03*
X742300D03*
X752300D03*
D02*
D104*
X46800Y570000D03*
Y650000D03*
Y755000D03*
Y835000D03*
X57800Y566000D03*
Y574000D03*
Y646000D03*
Y654000D03*
Y751000D03*
Y759000D03*
Y831000D03*
Y839000D03*
X86800Y570000D03*
Y650000D03*
Y755000D03*
Y835000D03*
X97800Y566000D03*
Y574000D03*
Y646000D03*
Y654000D03*
Y751000D03*
Y759000D03*
Y831000D03*
Y839000D03*
X136800Y465000D03*
Y570000D03*
Y650000D03*
Y835000D03*
X147800Y461000D03*
Y469000D03*
Y566000D03*
Y574000D03*
Y646000D03*
Y654000D03*
Y831000D03*
Y839000D03*
X176800Y465000D03*
Y570000D03*
Y650000D03*
Y835000D03*
X187800Y461000D03*
Y469000D03*
Y566000D03*
Y574000D03*
Y646000D03*
Y654000D03*
Y831000D03*
Y839000D03*
X216800Y465000D03*
Y570000D03*
Y650000D03*
Y755000D03*
Y835000D03*
X227800Y461000D03*
Y469000D03*
Y566000D03*
Y574000D03*
Y646000D03*
Y654000D03*
Y751000D03*
Y759000D03*
Y831000D03*
Y839000D03*
X266800Y465000D03*
Y570000D03*
Y650000D03*
Y835000D03*
X277800Y461000D03*
Y469000D03*
Y566000D03*
Y574000D03*
Y646000D03*
Y654000D03*
Y831000D03*
Y839000D03*
X306800Y465000D03*
Y570000D03*
Y650000D03*
Y835000D03*
X317800Y461000D03*
Y469000D03*
Y566000D03*
Y574000D03*
Y646000D03*
Y654000D03*
Y831000D03*
Y839000D03*
X346800Y465000D03*
Y570000D03*
Y650000D03*
Y755000D03*
Y835000D03*
X357800Y461000D03*
Y469000D03*
Y566000D03*
Y574000D03*
Y646000D03*
Y654000D03*
Y751000D03*
Y759000D03*
Y831000D03*
Y839000D03*
X396800Y465000D03*
Y570000D03*
Y650000D03*
Y835000D03*
X407800Y461000D03*
Y469000D03*
Y566000D03*
Y574000D03*
Y646000D03*
Y654000D03*
Y831000D03*
Y839000D03*
X436800Y465000D03*
Y570000D03*
Y650000D03*
Y835000D03*
X447800Y461000D03*
Y469000D03*
Y566000D03*
Y574000D03*
Y646000D03*
Y654000D03*
Y831000D03*
Y839000D03*
X476800Y465000D03*
Y570000D03*
Y650000D03*
Y755000D03*
Y835000D03*
X487800Y461000D03*
Y469000D03*
Y566000D03*
Y574000D03*
Y646000D03*
Y654000D03*
Y751000D03*
Y759000D03*
Y831000D03*
Y839000D03*
X526800Y465000D03*
Y570000D03*
Y650000D03*
Y835000D03*
X537800Y461000D03*
Y469000D03*
Y566000D03*
Y574000D03*
Y646000D03*
Y654000D03*
Y831000D03*
Y839000D03*
X566800Y465000D03*
Y570000D03*
Y650000D03*
Y835000D03*
X577800Y461000D03*
Y469000D03*
Y566000D03*
Y574000D03*
Y646000D03*
Y654000D03*
Y831000D03*
Y839000D03*
X606800Y465000D03*
Y570000D03*
Y650000D03*
Y755000D03*
Y835000D03*
X617800Y461000D03*
Y469000D03*
Y566000D03*
Y574000D03*
Y646000D03*
Y654000D03*
Y751000D03*
Y759000D03*
Y831000D03*
Y839000D03*
X656800Y465000D03*
Y570000D03*
Y650000D03*
Y835000D03*
X667800Y461000D03*
Y469000D03*
Y566000D03*
Y574000D03*
Y646000D03*
Y654000D03*
Y831000D03*
Y839000D03*
X696800Y465000D03*
Y570000D03*
Y650000D03*
Y835000D03*
X707800Y461000D03*
Y469000D03*
Y566000D03*
Y574000D03*
Y646000D03*
Y654000D03*
Y831000D03*
Y839000D03*
X736800Y465000D03*
Y570000D03*
Y650000D03*
Y755000D03*
Y835000D03*
X747800Y461000D03*
Y469000D03*
Y566000D03*
Y574000D03*
Y646000D03*
Y654000D03*
Y751000D03*
Y759000D03*
Y831000D03*
Y839000D03*
D02*
D105*
X37800Y378000D03*
X46800D03*
X97800D03*
X106800D03*
X137800Y532500D03*
Y610000D03*
Y684000D03*
Y755000D03*
Y795000D03*
Y870000D03*
X146800Y532500D03*
Y610000D03*
Y684000D03*
Y755000D03*
Y795000D03*
Y870000D03*
X157800Y378000D03*
X166800D03*
X177800Y684000D03*
Y795000D03*
Y870000D03*
X180300Y610000D03*
X186800Y684000D03*
Y795000D03*
Y870000D03*
X189300Y610000D03*
X207800Y378000D03*
X216800D03*
X263800D03*
X267800Y532500D03*
Y610000D03*
Y684000D03*
Y755000D03*
Y795000D03*
Y870000D03*
X272800Y378000D03*
X276800Y532500D03*
Y610000D03*
Y684000D03*
Y755000D03*
Y795000D03*
Y870000D03*
X307800Y610000D03*
Y684000D03*
Y795000D03*
Y870000D03*
X316800Y610000D03*
Y684000D03*
Y795000D03*
Y870000D03*
X397800Y532500D03*
Y610000D03*
Y684000D03*
Y755000D03*
Y795000D03*
Y870000D03*
X406800Y532500D03*
Y610000D03*
Y684000D03*
Y755000D03*
Y795000D03*
Y870000D03*
X437800Y610000D03*
Y684000D03*
Y795000D03*
Y870000D03*
X446800Y610000D03*
Y684000D03*
Y795000D03*
Y870000D03*
X527800Y430000D03*
Y532500D03*
Y610000D03*
Y685000D03*
Y755000D03*
Y795000D03*
Y870000D03*
X536800Y430000D03*
Y532500D03*
Y610000D03*
Y685000D03*
Y755000D03*
Y795000D03*
Y870000D03*
X567800Y430000D03*
Y500000D03*
Y610000D03*
Y685000D03*
Y795000D03*
Y870000D03*
X576800Y430000D03*
Y500000D03*
Y610000D03*
Y685000D03*
Y795000D03*
Y870000D03*
X607800Y430000D03*
Y500000D03*
X616800Y430000D03*
Y500000D03*
X657800Y430000D03*
Y755000D03*
Y795000D03*
Y870000D03*
X666800Y430000D03*
Y755000D03*
Y795000D03*
Y870000D03*
X697800Y430000D03*
Y500000D03*
Y795000D03*
Y870000D03*
X706800Y430000D03*
Y500000D03*
Y795000D03*
Y870000D03*
X737800Y430000D03*
Y500000D03*
X746800Y430000D03*
Y500000D03*
D02*
D106*
X38300Y368500D03*
X42300Y357500D03*
X46300Y368500D03*
X68300Y467000D03*
X72300Y478000D03*
X76300Y467000D03*
X98300Y366500D03*
X102300Y355500D03*
X106300Y366500D03*
X158300D03*
Y729500D03*
Y769500D03*
X162300Y355500D03*
Y740500D03*
Y780500D03*
X166300Y366500D03*
Y729500D03*
Y769500D03*
X208300Y366500D03*
X212300Y355500D03*
X216300Y366500D03*
X263300D03*
X267300Y355500D03*
X271300Y366500D03*
X288300Y729500D03*
Y769500D03*
X292300Y740500D03*
Y780500D03*
X296300Y729500D03*
Y769500D03*
X322300Y368500D03*
X326300Y357500D03*
X330300Y368500D03*
X382300D03*
X386300Y357500D03*
X390300Y368500D03*
X418300Y729500D03*
Y769500D03*
X422300Y740500D03*
Y780500D03*
X426300Y729500D03*
Y769500D03*
X439800Y368500D03*
X443800Y357500D03*
X447800Y368500D03*
X497300D03*
X501300Y357500D03*
X505300Y368500D03*
X548300Y729500D03*
Y769500D03*
X552300Y368500D03*
Y740500D03*
Y780500D03*
X556300Y357500D03*
Y729500D03*
Y769500D03*
X560300Y368500D03*
X616300Y367500D03*
X620300Y356500D03*
X624300Y367500D03*
X678300Y729500D03*
Y769500D03*
X680800Y378000D03*
X682300Y740500D03*
Y780500D03*
X684800Y367000D03*
X686300Y729500D03*
Y769500D03*
X688800Y378000D03*
X738300D03*
X742300Y367000D03*
X746300Y378000D03*
D02*
D107*
X162300Y585500D03*
Y594500D03*
X202300Y585500D03*
Y594500D03*
X292300Y440500D03*
Y449500D03*
Y480500D03*
Y489500D03*
Y585500D03*
Y594500D03*
X332300Y585500D03*
Y594500D03*
X422300Y440500D03*
Y449500D03*
Y480500D03*
Y489500D03*
Y585500D03*
Y594500D03*
X462300Y585500D03*
Y594500D03*
X552300Y585500D03*
Y594500D03*
X589800Y585500D03*
Y594500D03*
X682300Y545500D03*
Y554500D03*
Y585500D03*
Y594500D03*
Y625500D03*
Y634500D03*
Y665500D03*
Y674500D03*
X720300Y163500D03*
Y172500D03*
Y213500D03*
Y222500D03*
Y263500D03*
Y272500D03*
D02*
D108*
X322300Y378000D03*
X332300D03*
X382300D03*
X392300D03*
X439800D03*
X449800D03*
X497300D03*
X507300D03*
D02*
D109*
X552800Y377000D03*
X567800D03*
X613800D03*
X628800D03*
D02*
D110*
X739800Y162500D03*
Y177500D03*
Y212500D03*
Y227500D03*
Y262500D03*
Y277500D03*
D02*
D111*
Y170000D03*
Y220000D03*
Y270000D03*
X0Y0D02*
M02*
