G05
M48
INCH,TZ
FMAT,2
T1C000.02500
T2C000.08000
%
T002
X739800Y170000
X739800Y220000
X739800Y270000
T001
G00X15300Y14000
M15
G01X780300Y14000
G03X795300Y29000A15000
G01X795300Y944000
G03X780300Y959000A15000
G01X15300Y959000
G03X00300Y944000A15000
G01X00300Y29000
G03X15300Y14000A15000
M17
G00X18300Y38300
M15
G03X18300Y25700A06300
X18300Y38300A06300
M17
G00X18300Y947300
M15
G03X18300Y934700A06300
X18300Y947300A06300
M17
G00X79800Y91500
M15
G03X79800Y63500A14000
X79800Y91500A14000
M17
G00X79800Y199000
M15
G03X79800Y171000A14000
X79800Y199000A14000
M17
G00X184800Y91500
M15
G03X184800Y63500A14000
X184800Y91500A14000
M17
G00X184800Y199000
M15
G03X184800Y171000A14000
X184800Y199000A14000
M17
G00X289800Y91500
M15
G03X289800Y63500A14000
X289800Y91500A14000
M17
G00X289800Y199000
M15
G03X289800Y171000A14000
X289800Y199000A14000
M17
G00X394800Y91500
M15
G03X394800Y63500A14000
X394800Y91500A14000
M17
G00X394800Y199000
M15
G03X394800Y171000A14000
X394800Y199000A14000
M17
G00X478800Y138000
M15
G01X690800Y138000
G03X693300Y140500A02500
G01X693300Y284500
G03X690800Y287000A02500
G01X478800Y287000
G03X476300Y284500A02500
G01X476300Y140500
G03X478800Y138000A02500
M17
G00X494800Y97500
M15
G03X494800Y57500A20000
X494800Y97500A20000
M17
G00X579800Y91500
M15
G03X579800Y63500A14000
X579800Y91500A14000
M17
G00X697300Y97500
M15
G03X697300Y57500A20000
X697300Y97500A20000
M17
G00X777300Y38300
M15
G03X777300Y25700A06300
X777300Y38300A06300
M17
G00X777300Y947300
M15
G03X777300Y934700A06300
X777300Y947300A06300
M17
M30
