G05
M48
INCH,TZ
FMAT,2
T1C000.02000
T2C000.08300
%
T001
X42300Y363000
X52300Y570000
X52300Y650000
X52300Y755000
X52300Y835000
X72300Y472000
X92300Y570000
X92300Y650000
X92300Y755000
X92300Y835000
X102300Y361000
X142300Y465000
X142300Y570000
X142300Y650000
X142300Y701000
X142300Y835000
X162300Y361000
X162300Y735000
X162300Y775000
X167300Y315000
X167300Y319000
X167300Y333000
X167300Y337000
X176300Y323000
X176300Y327000
X182300Y465000
X182300Y570000
X182300Y650000
X182300Y835000
X212300Y361000
X217800Y307500
X217800Y311500
X217800Y315500
X217800Y332000
X217800Y336500
X222300Y465000
X222300Y570000
X222300Y650000
X222300Y701000
X222300Y755000
X222300Y835000
X267300Y361000
X272300Y465000
X272300Y570000
X272300Y650000
X272300Y835000
X292300Y735000
X292300Y775000
X312300Y465000
X312300Y570000
X312300Y650000
X312300Y701000
X312300Y835000
X326300Y363000
X352300Y465000
X352300Y570000
X352300Y650000
X352300Y755000
X352300Y835000
X386300Y363000
X402300Y465000
X402300Y570000
X402300Y650000
X402300Y835000
X422300Y735000
X422300Y775000
X442300Y465000
X442300Y570000
X442300Y650000
X442300Y701000
X442300Y835000
X443800Y363000
X482300Y465000
X482300Y570000
X482300Y650000
X482300Y701000
X482300Y755000
X482300Y835000
X501300Y363000
X532300Y465000
X532300Y570000
X532300Y650000
X532300Y835000
X552300Y735000
X552300Y775000
X556300Y363000
X559800Y324500
X564800Y351500
X569300Y351500
X572300Y465000
X572300Y570000
X572300Y650000
X572300Y835000
X574800Y324500
X612300Y465000
X612300Y570000
X612300Y650000
X612300Y701000
X612300Y755000
X612300Y835000
X620300Y362000
X662300Y465000
X662300Y570000
X662300Y650000
X662300Y835000
X682300Y735000
X682300Y775000
X684800Y372500
X702300Y465000
X702300Y570000
X702300Y650000
X702300Y835000
X742300Y372500
X742300Y465000
X742300Y570000
X742300Y650000
X742300Y755000
X742300Y835000
T002
X37300Y392500
X52300Y445000
X52300Y485000
X52300Y550000
X52300Y590000
X52300Y630000
X52300Y670000
X52300Y735000
X52300Y775000
X52300Y815000
X52300Y855000
X67300Y362500
X92300Y445000
X92300Y485000
X92300Y550000
X92300Y590000
X92300Y630000
X92300Y670000
X92300Y735000
X92300Y775000
X92300Y815000
X92300Y855000
X94800Y392500
X124800Y362500
X142300Y445000
X142300Y485000
X142300Y550000
X142300Y590000
X142300Y630000
X142300Y670000
X142300Y735000
X142300Y775000
X142300Y815000
X142300Y855000
X152300Y392500
X182300Y362500
X182300Y445000
X182300Y485000
X182300Y550000
X182300Y590000
X182300Y630000
X182300Y670000
X182300Y735000
X182300Y775000
X182300Y815000
X182300Y855000
X209800Y392500
X222300Y445000
X222300Y485000
X222300Y550000
X222300Y590000
X222300Y630000
X222300Y670000
X222300Y735000
X222300Y775000
X222300Y815000
X222300Y855000
X239800Y362500
X267300Y392500
X272300Y445000
X272300Y485000
X272300Y550000
X272300Y590000
X272300Y630000
X272300Y670000
X272300Y735000
X272300Y775000
X272300Y815000
X272300Y855000
X297300Y362500
X312300Y445000
X312300Y485000
X312300Y550000
X312300Y590000
X312300Y630000
X312300Y670000
X312300Y734500
X312300Y775000
X312300Y815000
X312300Y855000
X324800Y392500
X352300Y445000
X352300Y485000
X352300Y550000
X352300Y590000
X352300Y630000
X352300Y670000
X352300Y735000
X352300Y775000
X352300Y815000
X352300Y855000
X354800Y362500
X382300Y392500
X402300Y445000
X402300Y485000
X402300Y550000
X402300Y590000
X402300Y630000
X402300Y670000
X402300Y735000
X402300Y775000
X402300Y815000
X402300Y855000
X412300Y362500
X439800Y392500
X442300Y445000
X442300Y485000
X442300Y550000
X442300Y590000
X442300Y630000
X442300Y670000
X442300Y735000
X442300Y775000
X442300Y815000
X442300Y855000
X469800Y362500
X482300Y445000
X482300Y485000
X482300Y550000
X482300Y590000
X482300Y630000
X482300Y670000
X482300Y735000
X482300Y775000
X482300Y815000
X482300Y855000
X497300Y392500
X527300Y362500
X532300Y445000
X532300Y485000
X532300Y550000
X532300Y590000
X532300Y630000
X532300Y670000
X532300Y735000
X532300Y775000
X532300Y815000
X532300Y855000
X554800Y392500
X572300Y445000
X572300Y485000
X572300Y550000
X572300Y590000
X572300Y630000
X572300Y670000
X572300Y735000
X572300Y775000
X572300Y815000
X572300Y855000
X584800Y362500
X612300Y392500
X612300Y445000
X612300Y485000
X612300Y550000
X612300Y590000
X612300Y630000
X612300Y670000
X612300Y735000
X612300Y775000
X612300Y815000
X612300Y855000
X642300Y362500
X662300Y445000
X662300Y485000
X662300Y550000
X662300Y590000
X662300Y630000
X662300Y670000
X662300Y735000
X662300Y775000
X662300Y815000
X662300Y855000
X669800Y392500
X699800Y362500
X702300Y445000
X702300Y485000
X702300Y550000
X702300Y590000
X702300Y630000
X702300Y670000
X702300Y735000
X702300Y775000
X702300Y815000
X702300Y855000
X727300Y392500
X742300Y445000
X742300Y485000
X742300Y550000
X742300Y590000
X742300Y630000
X742300Y670000
X742300Y735000
X742300Y775000
X742300Y815000
X742300Y855000
X757300Y362500
M30
