G04 DesignSpark PCB PRO Gerber Version 9.0 Build 5138 *
G04 #@! TF.Part,Single*
G04 #@! TF.FileFunction,Soldermask,Top *
G04 #@! TF.FilePolarity,Negative *
%FSLAX35Y35*%
%MOIN*%
%ADD13C,0.00500*%
G04 #@! TA.AperFunction,ComponentPad*
%ADD26C,0.15600*%
X0Y0D02*
D02*
D13*
X15300Y14000D02*
X780300D01*
G75*
G03X795300Y29000J15000*
G01*
Y944000*
G75*
G03X780300Y959000I-15000*
G01*
X15300*
G75*
G03X300Y944000J-15000*
G01*
Y29000*
G75*
G03X15300Y14000I15000*
G01*
X18300Y38300D02*
G75*
G03Y25700J-6300D01*
G01*
G75*
G03Y38300J6300*
G01*
Y947300D02*
G75*
G03Y934700J-6300D01*
G01*
G75*
G03Y947300J6300*
G01*
X79800Y91500D02*
G75*
G03Y63500J-14000D01*
G01*
G75*
G03Y91500J14000*
G01*
Y199000D02*
G75*
G03Y171000J-14000D01*
G01*
G75*
G03Y199000J14000*
G01*
X184800Y91500D02*
G75*
G03Y63500J-14000D01*
G01*
G75*
G03Y91500J14000*
G01*
Y199000D02*
G75*
G03Y171000J-14000D01*
G01*
G75*
G03Y199000J14000*
G01*
X289800Y91500D02*
G75*
G03Y63500J-14000D01*
G01*
G75*
G03Y91500J14000*
G01*
Y199000D02*
G75*
G03Y171000J-14000D01*
G01*
G75*
G03Y199000J14000*
G01*
X394800Y91500D02*
G75*
G03Y63500J-14000D01*
G01*
G75*
G03Y91500J14000*
G01*
Y199000D02*
G75*
G03Y171000J-14000D01*
G01*
G75*
G03Y199000J14000*
G01*
X478800Y138000D02*
X690800D01*
G75*
G03X693300Y140500J2500*
G01*
Y284500*
G75*
G03X690800Y287000I-2500*
G01*
X478800*
G75*
G03X476300Y284500J-2500*
G01*
Y140500*
G75*
G03X478800Y138000I2500*
G01*
X494800Y97500D02*
G75*
G03Y57500J-20000D01*
G01*
G75*
G03Y97500J20000*
G01*
X579800Y91500D02*
G75*
G03Y63500J-14000D01*
G01*
G75*
G03Y91500J14000*
G01*
X697300Y97500D02*
G75*
G03Y57500J-20000D01*
G01*
G75*
G03Y97500J20000*
G01*
X777300Y38300D02*
G75*
G03Y25700J-6300D01*
G01*
G75*
G03Y38300J6300*
G01*
Y947300D02*
G75*
G03Y934700J-6300D01*
G01*
G75*
G03Y947300J6300*
G01*
D02*
D26*
X37300Y392500D03*
X52300Y445000D03*
Y485000D03*
Y550000D03*
Y590000D03*
Y630000D03*
Y670000D03*
Y735000D03*
Y775000D03*
Y815000D03*
Y855000D03*
X67300Y362500D03*
X92300Y445000D03*
Y485000D03*
Y550000D03*
Y590000D03*
Y630000D03*
Y670000D03*
Y735000D03*
Y775000D03*
Y815000D03*
Y855000D03*
X94800Y392500D03*
X124800Y362500D03*
X142300Y445000D03*
Y485000D03*
Y550000D03*
Y590000D03*
Y630000D03*
Y670000D03*
Y735000D03*
Y775000D03*
Y815000D03*
Y855000D03*
X152300Y392500D03*
X182300Y362500D03*
Y445000D03*
Y485000D03*
Y550000D03*
Y590000D03*
Y630000D03*
Y670000D03*
Y735000D03*
Y775000D03*
Y815000D03*
Y855000D03*
X209800Y392500D03*
X222300Y445000D03*
Y485000D03*
Y550000D03*
Y590000D03*
Y630000D03*
Y670000D03*
Y735000D03*
Y775000D03*
Y815000D03*
Y855000D03*
X239800Y362500D03*
X267300Y392500D03*
X272300Y445000D03*
Y485000D03*
Y550000D03*
Y590000D03*
Y630000D03*
Y670000D03*
Y735000D03*
Y775000D03*
Y815000D03*
Y855000D03*
X297300Y362500D03*
X312300Y445000D03*
Y485000D03*
Y550000D03*
Y590000D03*
Y630000D03*
Y670000D03*
Y734500D03*
Y775000D03*
Y815000D03*
Y855000D03*
X324800Y392500D03*
X352300Y445000D03*
Y485000D03*
Y550000D03*
Y590000D03*
Y630000D03*
Y670000D03*
Y735000D03*
Y775000D03*
Y815000D03*
Y855000D03*
X354800Y362500D03*
X382300Y392500D03*
X402300Y445000D03*
Y485000D03*
Y550000D03*
Y590000D03*
Y630000D03*
Y670000D03*
Y735000D03*
Y775000D03*
Y815000D03*
Y855000D03*
X412300Y362500D03*
X439800Y392500D03*
X442300Y445000D03*
Y485000D03*
Y550000D03*
Y590000D03*
Y630000D03*
Y670000D03*
Y735000D03*
Y775000D03*
Y815000D03*
Y855000D03*
X469800Y362500D03*
X482300Y445000D03*
Y485000D03*
Y550000D03*
Y590000D03*
Y630000D03*
Y670000D03*
Y735000D03*
Y775000D03*
Y815000D03*
Y855000D03*
X497300Y392500D03*
X527300Y362500D03*
X532300Y445000D03*
Y485000D03*
Y550000D03*
Y590000D03*
Y630000D03*
Y670000D03*
Y735000D03*
Y775000D03*
Y815000D03*
Y855000D03*
X554800Y392500D03*
X572300Y445000D03*
Y485000D03*
Y550000D03*
Y590000D03*
Y630000D03*
Y670000D03*
Y735000D03*
Y775000D03*
Y815000D03*
Y855000D03*
X584800Y362500D03*
X612300Y392500D03*
Y445000D03*
Y485000D03*
Y550000D03*
Y590000D03*
Y630000D03*
Y670000D03*
Y735000D03*
Y775000D03*
Y815000D03*
Y855000D03*
X642300Y362500D03*
X662300Y445000D03*
Y485000D03*
Y550000D03*
Y590000D03*
Y630000D03*
Y670000D03*
Y735000D03*
Y775000D03*
Y815000D03*
Y855000D03*
X669800Y392500D03*
X699800Y362500D03*
X702300Y445000D03*
Y485000D03*
Y550000D03*
Y590000D03*
Y630000D03*
Y670000D03*
Y735000D03*
Y775000D03*
Y815000D03*
Y855000D03*
X727300Y392500D03*
X742300Y445000D03*
Y485000D03*
Y550000D03*
Y590000D03*
Y630000D03*
Y670000D03*
Y735000D03*
Y775000D03*
Y815000D03*
Y855000D03*
X757300Y362500D03*
X0Y0D02*
M02*
